LuxiSerif.sfdir
StartChar: exclam
Encoding: 33 33 232
Width: 333
Flags: MW
HStem: 0 96<118 214 118 214> 703 20<118 214 214 214>
VStem: 118 96<0 96 0 96 578 723>
LayerCount: 2
Fore
SplineSet
118 0 m 1
 118 96 l 1
 214 96 l 1
 214 0 l 1
 118 0 l 1
151 193 m 1
 118 578 l 1
 118 723 l 1
 214 723 l 1
 214 578 l 1
 181 193 l 1
 151 193 l 1
EndSplineSet
EndChar
StartChar: quotedbl
Encoding: 34 34 255
Width: 408
Flags: W
LayerCount: 2
Fore
SplineSet
104 530 m 1
 71 771 l 1
 167 771 l 1
 134 530 l 1
 104 530 l 1
273 530 m 1
 239 771 l 1
 336 771 l 1
 303 530 l 1
 273 530 l 1
EndSplineSet
EndChar
StartChar: numbersign
Encoding: 35 35 257
Width: 500
Flags: MW
HStem: 0 20 223 48<9 101 0 113 9 151 163 280 342 446> 452 48<55 158 45 170 55 208 220 337 399 491> 703 20<226 276 276 276 405 455 455 455>
LayerCount: 2
Fore
SplineSet
45 0 m 1
 101 223 l 1
 0 223 l 1
 9 271 l 1
 113 271 l 1
 158 452 l 1
 45 452 l 1
 55 500 l 1
 170 500 l 1
 226 723 l 1
 276 723 l 1
 220 500 l 1
 349 500 l 1
 405 723 l 1
 455 723 l 1
 399 500 l 1
 500 500 l 1
 491 452 l 1
 387 452 l 1
 342 271 l 1
 455 271 l 1
 446 223 l 1
 330 223 l 1
 274 0 l 1
 224 0 l 1
 280 223 l 1
 151 223 l 1
 95 0 l 1
 45 0 l 1
163 271 m 1
 292 271 l 1
 337 452 l 1
 208 452 l 1
 163 271 l 1
EndSplineSet
EndChar
StartChar: dollar
Encoding: 36 36 214
Width: 500
Flags: MW
HStem: 0 20
VStem: 63 84<543.5 575> 242 30<-60 -1 -60 0 -60 0 38 311 429 688 688 688> 371 84<149 198.5>
LayerCount: 2
Fore
SplineSet
242 -60 m 1
 242 0 l 1
 172 0 106 14 39 42 c 1
 39 163 l 1
 93 163 l 1
 94 154 l 2
 95 137 95 129 95 123 c 2
 95 121 l 2
 95 69 151 30 223 32 c 2
 242 32 l 1
 242 329 l 1
 106 408 63 462 63 552 c 0
 63 598 77 635 104 664 c 0
 134 696 171 713 242 726 c 1
 242 783 l 1
 271 783 l 1
 272 725 l 1
 327 723 386 710 446 687 c 1
 446 575 l 1
 392 575 l 1
 391 584 l 1
 390 596 l 1
 390 605 l 1
 389 610 l 1
 389 614 l 1
 389 616 l 2
 389 663 347 692 281 692 c 2
 272 692 l 1
 272 409 l 1
 359 353 374 343 390 330 c 0
 437 293 455 258 455 201 c 0
 455 97 389 23 272 -1 c 1
 272 -60 l 1
 242 -60 l 1
272 311 m 1
 272 38 l 1
 340 62 371 105 371 174 c 0
 371 223 346 263 294 296 c 2
 272 311 l 1
242 429 m 1
 242 688 l 1
 184 679 147 633 147 570 c 0
 147 517 175 475 242 429 c 1
EndSplineSet
EndChar
StartChar: percent
Encoding: 37 37 278
Width: 833
Flags: W
HStem: -18 20 0 30<593 647 593 664.5> 331 30<593 647> 362 30<185 239 185 256.5> 693 30<185 239> 721 20<677 737 737 737>
VStem: 59 72<492.5 593 492.5 596> 294 72<494.5 594> 467 72<130.5 231 130.5 233.5> 702 72<132.5 232>
LayerCount: 2
Fore
SplineSet
96 -18 m 1x87c0
 677 741 l 1
 737 741 l 1
 157 -18 l 1
 96 -18 l 1x87c0
213 723 m 0x7bc0
 303 723 366 649 366 543 c 0
 366 435 303 362 210 362 c 0
 122 362 59 437 59 543 c 0
 59 649 122 723 213 723 c 0x7bc0
212 693 m 0
 158 693 131 643 131 543 c 0
 131 442 158 392 212 392 c 0
 266 392 294 444 294 545 c 0
 294 643 266 693 212 693 c 0
620 361 m 0
 711 361 774 287 774 181 c 0
 774 73 711 0 618 0 c 0
 530 0 467 75 467 180 c 0
 467 287 530 361 620 361 c 0
620 331 m 0
 566 331 539 281 539 181 c 0
 539 80 566 30 620 30 c 0
 674 30 702 82 702 183 c 0
 702 281 674 331 620 331 c 0
EndSplineSet
EndChar
StartChar: ampersand
Encoding: 38 38 249
Width: 778
Flags: W
HStem: -18 55<290.5 338.5> 0 20 709 33<334 390.5>
VStem: 48 97<179.5 266.5> 174 96<589 631.5> 449 90<575 643 555 643.5>
LayerCount: 2
Fore
SplineSet
562 0 m 1x7c
 516 50 l 1
 438 2 375 -18 302 -18 c 0x9c
 154 -18 48 79 48 213 c 0
 48 320 104 387 235 434 c 1
 192 493 174 537 174 583 c 0
 174 680 246 742 359 742 c 0
 471 742 539 688 539 598 c 0
 539 512 485 456 359 416 c 1
 386 380 l 1
 455 285 l 1
 526 190 l 1
 562 140 l 1
 591 183 605 231 606 295 c 2
 605 322 l 2
 604 344 595 352 569 351 c 0
 568 351 562 352 532 354 c 2
 523 354 l 1
 523 384 l 1
 752 384 l 1
 752 354 l 1
 742 354 l 1
 703 352 l 2
 679 351 676 346 675 313 c 0
 675 258 645 192 585 115 c 1
 592 107 594 106 598 101 c 2
 599 100 l 1
 605 94 l 2
 651 44 660 38 695 34 c 2
 739 31 l 1
 746 30 l 1
 746 0 l 1
 562 0 l 1x7c
494 76 m 1xbc
 417 166 336 276 250 408 c 1
 177 371 145 321 145 241 c 0
 145 118 228 37 353 37 c 0
 406 37 448 49 494 76 c 1xbc
342 438 m 1
 417 487 449 539 449 611 c 0
 449 676 419 709 362 709 c 0
 306 709 270 671 270 613 c 0
 270 565 291 513 342 438 c 1
EndSplineSet
EndChar
StartChar: quotesingle
Encoding: 39 39 254
Width: 180
Flags: W
LayerCount: 2
Fore
SplineSet
75 506 m 1
 30 771 l 1
 151 771 l 1
 105 506 l 1
 75 506 l 1
EndSplineSet
EndChar
StartChar: parenleft
Encoding: 40 40 245
Width: 333
Flags: MW
VStem: 57 96<215.5 410.5>
LayerCount: 2
Fore
SplineSet
283 -114 m 1
 283 -145 l 1
 140 -52 57 117 57 314 c 0
 57 507 143 680 283 771 c 1
 283 741 l 1
 183 624 153 527 153 313 c 0
 153 100 182 3 283 -114 c 1
EndSplineSet
EndChar
StartChar: parenright
Encoding: 41 41 246
Width: 333
Flags: MW
VStem: 180 97<216.5 411 216.5 419>
LayerCount: 2
Fore
SplineSet
51 741 m 1
 51 771 l 1
 194 678 277 509 277 313 c 0
 277 120 191 -54 51 -145 c 1
 51 -114 l 1
 150 1 180 99 180 312 c 0
 180 526 151 624 51 741 c 1
EndSplineSet
EndChar
StartChar: asterisk
Encoding: 42 42 253
Width: 500
Flags: MW
HStem: 703 20<214 287 287 287>
LayerCount: 2
Fore
SplineSet
282 562 m 1
 420 626 l 1
 442 557 l 1
 293 528 l 1
 294 529 294 530 294 530 c 1
 294 534 l 1
 294 535 l 2
 294 545 290 553 282 562 c 1
288 512 m 1
 392 401 l 1
 333 358 l 1
 259 490 l 1
 273 494 282 500 288 512 c 1
242 490 m 1
 168 358 l 1
 110 401 l 1
 213 512 l 1
 220 500 230 493 242 490 c 1
208 528 m 1
 59 557 l 1
 81 626 l 1
 219 562 l 1
 211 553 207 544 207 535 c 2
 207 534 l 2
 208 530 208 529 208 528 c 1
233 573 m 1
 214 723 l 1
 287 723 l 1
 268 573 l 1
 262 575 255 577 251 577 c 0
 246 577 239 575 233 573 c 1
EndSplineSet
EndChar
StartChar: plus
Encoding: 43 43 259
Width: 564
Flags: MW
HStem: 265 48<41 258 41 258 306 523> 510 20<258 306 306 306>
VStem: 258 48<48 265 48 265 313 530>
LayerCount: 2
Fore
SplineSet
258 48 m 1
 258 265 l 1
 41 265 l 1
 41 313 l 1
 258 313 l 1
 258 530 l 1
 306 530 l 1
 306 313 l 1
 523 313 l 1
 523 265 l 1
 306 265 l 1
 306 48 l 1
 258 48 l 1
EndSplineSet
EndChar
StartChar: comma
Encoding: 44 44 226
Width: 250
Flags: MW
HStem: 0 20
VStem: 65 121<-156 16 -126 16 0 16 16 121 -18.5 121>
LayerCount: 2
Fore
SplineSet
113 0 m 1
 65 0 l 1
 65 121 l 1
 186 121 l 1
 186 16 l 2
 186 -53 182 -74 163 -100 c 0
 137 -135 106 -153 65 -156 c 1
 65 -126 l 1
 99 -121 113 -93 113 -31 c 2
 113 0 l 1
EndSplineSet
EndChar
StartChar: hyphen
Encoding: 45 45 241
Width: 333
Flags: MW
HStem: 265 60<40 293 40 293>
LayerCount: 2
Fore
SplineSet
40 265 m 1
 40 325 l 1
 293 325 l 1
 293 265 l 1
 40 265 l 1
EndSplineSet
EndChar
StartChar: period
Encoding: 46 46 222
Width: 250
Flags: MW
HStem: 0 121<65 186 65 186>
VStem: 65 121<0 121 0 121>
LayerCount: 2
Fore
SplineSet
65 0 m 1
 65 121 l 1
 186 121 l 1
 186 0 l 1
 65 0 l 1
EndSplineSet
EndChar
StartChar: slash
Encoding: 47 47 240
Width: 278
Flags: MW
HStem: 703 20<242 293 293 293>
LayerCount: 2
Fore
SplineSet
-15 -144 m 1
 242 723 l 1
 293 723 l 1
 36 -144 l 1
 -15 -144 l 1
EndSplineSet
EndChar
StartChar: zero
Encoding: 48 48 212
Width: 500
Flags: MW
HStem: -18 30<212 292 212 314.5> 711 30<210 265>
VStem: 27 102<251 474> 370 103<250 436>
LayerCount: 2
Fore
SplineSet
250 741 m 0
 381 741 473 586 473 363 c 0
 473 135 382 -18 247 -18 c 0
 118 -18 27 140 27 362 c 0
 27 586 118 741 250 741 c 0
250 711 m 0
 170 711 129 594 129 363 c 0
 129 130 171 12 253 12 c 0
 331 12 370 132 370 368 c 0
 370 504 353 611 323 662 c 0
 304 694 280 711 250 711 c 0
EndSplineSet
EndChar
StartChar: one
Encoding: 49 49 203
Width: 500
Flags: MW
HStem: 0 30<63 437 63 63> 709 20<298 298>
VStem: 202 96<127 575 575 575>
LayerCount: 2
Fore
SplineSet
298 729 m 1
 298 127 l 1
 301 78 l 2
 304 39 317 31 380 31 c 2
 437 30 l 1
 437 0 l 1
 63 0 l 1
 63 30 l 1
 120 31 l 2
 148 31 182 36 187 41 c 0
 197 49 202 78 202 126 c 2
 202 575 l 1
 199 624 l 2
 198 650 193 659 179 659 c 0
 169 659 151 656 112 649 c 2
 63 640 l 1
 63 671 l 1
 298 729 l 1
EndSplineSet
EndChar
StartChar: two
Encoding: 50 50 204
Width: 500
Flags: MW
HStem: 0 84<33 439 111 439 111 439> 709 33<201.5 257.5>
VStem: 340 102<517 604>
LayerCount: 2
Fore
SplineSet
33 0 m 1
 33 48 l 1
 54 139 80 177 195 292 c 2
 226 323 l 2
 317 415 340 460 340 552 c 0
 340 656 298 709 217 709 c 0
 175 709 129 691 115 668 c 0
 106 654 99 620 98 577 c 2
 97 565 l 1
 49 565 l 1
 49 697 l 1
 115 729 169 742 234 742 c 0
 372 742 442 679 442 556 c 0
 442 478 424 449 322 356 c 2
 274 311 l 1
 242 283 l 2
 152 201 124 158 111 84 c 1
 439 84 l 1
 439 0 l 1
 33 0 l 1
EndSplineSet
EndChar
StartChar: three
Encoding: 51 51 205
Width: 500
Flags: W
HStem: -18 33<176 247.5 173.5 277> 708 33<185 243.5>
VStem: 326 96<531.5 611.5> 342 102<135.5 220 131.5 247.5>
LayerCount: 2
Fore
SplineSet
45 5 m 1xd0
 45 132 l 1
 92 132 l 1
 93 122 l 1
 94 89 l 2
 96 44 141 15 206 15 c 0
 289 15 342 82 342 189 c 0xd0
 342 306 278 371 164 371 c 2
 111 371 l 1
 111 401 l 1
 143 401 l 2
 265 401 326 455 326 564 c 0
 326 659 284 708 203 708 c 0
 167 708 127 696 116 682 c 0
 107 671 103 656 99 610 c 2
 98 603 l 1
 50 603 l 1
 50 713 l 1
 107 733 154 741 208 741 c 0
 342 741 422 679 422 575 c 0xe0
 422 488 376 433 270 391 c 1
 345 370 382 348 411 308 c 0
 433 277 444 242 444 198 c 0
 444 65 351 -18 203 -18 c 0
 149 -18 95 -10 45 5 c 1xd0
EndSplineSet
EndChar
StartChar: four
Encoding: 52 52 206
Width: 500
Flags: MW
HStem: 0 30<218 470 218 218> 205 73<67 308 67 308 13 308 392 476> 715 20<338 392 392 392>
VStem: 308 84<127 205 127 205 127 205 278 635 635 635>
LayerCount: 2
Fore
SplineSet
308 205 m 1
 13 205 l 1
 13 254 l 1
 338 735 l 1
 392 735 l 1
 392 278 l 1
 476 278 l 1
 476 205 l 1
 392 205 l 1
 392 127 l 1
 395 78 l 2
 398 41 401 38 440 33 c 2
 461 31 l 1
 470 30 l 1
 470 0 l 1
 218 0 l 1
 218 30 l 1
 227 31 l 1
 265 33 l 2
 300 35 308 54 308 126 c 2
 308 205 l 1
67 278 m 1
 308 278 l 1
 308 635 l 1
 67 278 l 1
EndSplineSet
EndChar
StartChar: five
Encoding: 53 53 207
Width: 500
Flags: MW
HStem: -18 30<171 241.5 171 265> 639 84<105 427 105 105>
VStem: 75 30<437 639 437 723> 340 102<146 270.5>
LayerCount: 2
Fore
SplineSet
63 -1 m 1
 63 121 l 1
 111 121 l 1
 112 109 l 1
 113 72 l 2
 114 34 144 12 198 12 c 0
 285 12 340 87 340 205 c 0
 340 336 259 401 93 401 c 2
 75 401 l 1
 75 723 l 1
 427 723 l 1
 427 639 l 1
 105 639 l 1
 105 437 l 1
 150 437 l 2
 335 437 442 352 442 205 c 0
 442 69 343 -18 187 -18 c 0
 148 -18 108 -13 63 -1 c 1
EndSplineSet
EndChar
StartChar: six
Encoding: 54 54 208
Width: 500
Flags: MW
HStem: -18 33<229.5 304.5 229.5 319.5> 430 34<246 298.5> 709 33<267.5 323.5 210.5 330>
VStem: 23 105<230 313 195 467> 384 98<165 294>
LayerCount: 2
Fore
SplineSet
393 599 m 1
 392 610 l 2
 389 681 362 709 298 709 c 0
 237 709 191 671 160 592 c 0
 137 534 127 469 126 370 c 1
 166 436 212 464 280 464 c 0
 399 464 482 371 482 238 c 0
 482 92 385 -18 254 -18 c 0
 111 -18 23 118 23 342 c 0
 23 592 125 742 296 742 c 0
 351 742 397 732 441 709 c 1
 441 599 l 1
 393 599 l 1
256 430 m 0
 181 430 128 361 128 265 c 0
 128 125 190 15 269 15 c 0
 340 15 384 96 384 226 c 0
 384 362 341 430 256 430 c 0
EndSplineSet
EndChar
StartChar: seven
Encoding: 55 55 209
Width: 500
Flags: MW
HStem: 0 20 633 90<53 429 53 487>
LayerCount: 2
Fore
SplineSet
203 0 m 1
 89 0 l 1
 117 154 206 330 357 535 c 2
 429 633 l 1
 53 633 l 1
 53 723 l 1
 487 723 l 1
 487 660 l 1
 325 442 214 183 203 0 c 1
EndSplineSet
EndChar
StartChar: eight
Encoding: 56 56 210
Width: 500
Flags: W
HStem: -18 33<211.5 290 211.5 311> 709 33<214 280>
VStem: 19 96<136.5 226> 55 84<565 616.5> 362 85<548 618> 381 96<128.5 190.5>
LayerCount: 2
Fore
SplineSet
306 399 m 1xd8
 330 384 l 1
 437 322 477 269 477 187 c 0
 477 70 378 -18 244 -18 c 0
 112 -18 19 63 19 178 c 0xe4
 19 274 64 339 166 389 c 1
 81 450 55 490 55 561 c 0
 55 672 131 742 252 742 c 0
 370 742 447 680 447 584 c 0
 447 512 405 456 306 399 c 1xd8
248 438 m 2xd8
 277 415 l 1
 336 461 362 512 362 580 c 0
 362 656 314 709 246 709 c 0
 182 709 139 664 139 596 c 0
 139 534 156 510 248 438 c 2xd8
244 331 m 2xe4
 188 368 l 1
 137 318 115 264 115 190 c 0
 115 83 169 15 254 15 c 0
 326 15 381 77 381 157 c 0
 381 224 354 259 244 331 c 2xe4
EndSplineSet
EndChar
StartChar: nine
Encoding: 57 57 211
Width: 500
Flags: MW
HStem: -18 33<176.5 255.5 169 289> 259 34<201.5 253.5> 709 33<195.5 270.5>
VStem: 18 98<429 558.5> 372 105<410.5 493 256.5 529>
LayerCount: 2
Fore
SplineSet
107 124 m 1
 108 113 l 2
 111 42 137 15 201 15 c 0
 310 15 371 136 373 353 c 1
 334 287 288 259 219 259 c 0
 101 259 18 352 18 485 c 0
 18 632 116 742 245 742 c 0
 389 742 477 605 477 381 c 0
 477 132 374 -18 204 -18 c 0
 149 -18 102 -8 59 14 c 1
 59 124 l 1
 107 124 l 1
231 709 m 0
 160 709 116 627 116 497 c 0
 116 361 159 293 244 293 c 0
 319 293 372 362 372 459 c 0
 372 599 310 709 231 709 c 0
EndSplineSet
EndChar
StartChar: colon
Encoding: 58 58 223
Width: 278
Flags: MW
HStem: 0 121<79 200 79 200> 409 121<79 200 79 200>
VStem: 79 121<0 121 0 121 409 530>
LayerCount: 2
Fore
SplineSet
79 0 m 1
 79 121 l 1
 200 121 l 1
 200 0 l 1
 79 0 l 1
79 409 m 1
 79 530 l 1
 200 530 l 1
 200 409 l 1
 79 409 l 1
EndSplineSet
EndChar
StartChar: semicolon
Encoding: 59 59 227
Width: 278
Flags: MW
HStem: 0 20 409 121<79 200 79 200>
VStem: 79 121<-156 16 -126 16 0 16 16 121 -18.5 121 409 530>
LayerCount: 2
Fore
SplineSet
127 0 m 1
 79 0 l 1
 79 121 l 1
 200 121 l 1
 200 16 l 2
 200 -53 196 -74 177 -100 c 0
 151 -135 120 -153 79 -156 c 1
 79 -126 l 1
 113 -121 127 -93 127 -31 c 2
 127 0 l 1
79 409 m 1
 79 530 l 1
 200 530 l 1
 200 409 l 1
 79 409 l 1
EndSplineSet
EndChar
StartChar: less
Encoding: 60 60 300
Width: 564
Flags: MW
HStem: 510 20<523 523>
LayerCount: 2
Fore
SplineSet
523 48 m 1
 41 289 l 1
 523 530 l 1
 523 476 l 1
 150 289 l 1
 150 288 l 1
 523 102 l 1
 523 48 l 1
EndSplineSet
EndChar
StartChar: equal
Encoding: 61 61 263
Width: 564
Flags: MW
HStem: 175 48<41 523 41 523> 356 48<41 523 41 523>
LayerCount: 2
Fore
SplineSet
41 175 m 1
 41 223 l 1
 523 223 l 1
 523 175 l 1
 41 175 l 1
41 356 m 1
 41 404 l 1
 523 404 l 1
 523 356 l 1
 41 356 l 1
EndSplineSet
EndChar
StartChar: greater
Encoding: 62 62 301
Width: 564
Flags: MW
HStem: 510 20<41 41>
LayerCount: 2
Fore
SplineSet
41 530 m 1
 523 289 l 1
 41 48 l 1
 41 102 l 1
 414 288 l 1
 414 289 l 1
 41 476 l 1
 41 530 l 1
EndSplineSet
EndChar
StartChar: question
Encoding: 63 63 234
Width: 444
Flags: MW
HStem: 0 96<132 228 132 228> 711 30<173.5 222>
VStem: 132 96<0 96 0 96> 313 103<555 619.5>
LayerCount: 2
Fore
SplineSet
132 0 m 1
 132 96 l 1
 228 96 l 1
 228 0 l 1
 132 0 l 1
133 193 m 1
 133 202 l 2
 133 268 156 324 202 370 c 2
 222 390 l 2
 283 451 313 513 313 578 c 0
 313 661 263 711 181 711 c 0
 115 711 78 685 76 638 c 2
 74 585 l 1
 73 575 l 1
 25 575 l 1
 25 709 l 1
 93 731 145 741 202 741 c 0
 330 741 416 678 416 583 c 0
 416 527 385 480 314 424 c 0
 298 412 288 404 282 398 c 2
 264 382 l 2
 241 360 229 319 229 260 c 2
 229 193 l 1
 133 193 l 1
EndSplineSet
EndChar
StartChar: at
Encoding: 64 64 256
Width: 921
Flags: W
HStem: -18 30<305 417.5 305 420> 144 37<622.5 674.5> 144 60<356 374> 524 49<481 498> 711 30<470.5 609.5>
VStem: 68 30<208 336.5> 255 71<257 296.5> 523 66<211 217> 823 30<375 517>
LayerCount: 2
Fore
SplineSet
551 49 m 1xdf80
 562 21 l 1
 499 -6 449 -18 391 -18 c 0
 203 -18 68 108 68 283 c 0
 68 390 109 493 188 583 c 0
 279 688 394 741 527 741 c 0
 715 741 853 611 853 434 c 0
 853 277 741 144 608 144 c 0xcf80
 551 144 523 167 523 212 c 0
 523 222 525 237 528 247 c 2
 540 289 l 1
 544 310 l 1
 534 310 l 1
 462 192 406 144 342 144 c 0x2780
 285 144 255 183 255 258 c 0
 255 335 282 407 336 473 c 0
 390 540 449 573 513 573 c 0
 527 573 537 572 553 567 c 2
 592 556 l 2
 596 556 600 554 606 553 c 2
 652 553 l 1
 595 273 l 2
 591 250 589 238 589 226 c 0
 589 196 606 181 639 181 c 0
 731 181 823 310 823 440 c 0
 823 594 694 711 525 711 c 0
 416 711 317 667 230 580 c 0
 142 493 98 395 98 289 c 0
 98 127 219 12 391 12 c 0
 444 12 492 23 551 49 c 1xdf80
548 400 m 1x3780
 569 503 l 1
 541 517 513 524 483 524 c 0
 392 524 326 422 326 283 c 0
 326 231 341 204 371 204 c 0
 420 204 473 263 548 400 c 1x3780
EndSplineSet
EndChar
StartChar: A
Encoding: 65 65 133
Width: 722
Flags: MW
HStem: 0 20 222 40<188 464 188 481 172 464> 712 20<345 379 379 379>
LayerCount: 2
Fore
SplineSet
0 0 m 1
 0 30 l 1
 11 31 l 2
 47 33 51 36 68 75 c 2
 90 126 l 1
 345 732 l 1
 379 732 l 1
 632 123 l 1
 657 73 l 2
 670 46 688 32 711 31 c 2
 722 30 l 1
 722 0 l 1
 483 0 l 1
 483 30 l 1
 492 30 l 2
 528 30 543 37 543 51 c 0
 543 68 536 93 522 126 c 2
 481 222 l 1
 172 222 l 1
 130 126 l 2
 124 111 122 107 120 100 c 2
 109 66 l 2
 107 61 106 53 106 50 c 0
 106 37 121 30 151 30 c 2
 159 30 l 1
 159 0 l 1
 0 0 l 1
188 262 m 1
 464 262 l 1
 327 592 l 1
 188 262 l 1
EndSplineSet
EndChar
StartChar: B
Encoding: 66 66 134
Width: 667
Flags: W
HStem: 0 30<23 330 23 23> 693 30<23 344>
VStem: 113 101<127 359 392 597 597 612.5> 473 105<536.5 594 536.5 604> 501 107<154.5 216 154.5 244.5>
LayerCount: 2
Fore
SplineSet
23 723 m 1xe8
 344 723 l 2
 426 723 465 718 496 702 c 0
 550 674 578 626 578 562 c 0xf0
 578 511 563 470 533 439 c 0
 500 405 461 388 384 375 c 1
 451 365 484 356 520 336 c 0
 579 303 608 251 608 181 c 0
 608 128 588 81 552 50 c 0
 512 16 441 0 330 0 c 2
 23 0 l 1
 23 30 l 1
 32 31 l 1
 65 33 l 2
 91 35 103 42 107 56 c 0
 110 72 113 100 113 126 c 2
 113 597 l 2
 113 628 109 664 105 673 c 0
 100 683 86 689 65 690 c 2
 32 692 l 1
 23 693 l 1
 23 723 l 1xe8
214 359 m 1
 214 127 l 1
 215 84 l 2
 217 41 232 33 311 33 c 0
 438 33 501 81 501 180 c 0xe8
 501 309 425 357 214 359 c 1
214 392 m 1
 268 392 l 2
 415 392 473 437 473 551 c 0xf0
 473 657 423 690 263 690 c 2
 214 690 l 1
 214 392 l 1
EndSplineSet
EndChar
StartChar: C
Encoding: 67 67 135
Width: 667
Flags: MW
HStem: -18 48<342.5 437.5> 708 33<317.5 420 276.5 439.5>
VStem: 39 111<261 472.5 261 482>
LayerCount: 2
Fore
SplineSet
619 86 m 1
 619 39 l 1
 548 -1 480 -18 395 -18 c 0
 175 -18 39 128 39 364 c 0
 39 600 168 741 385 741 c 0
 455 741 521 730 607 705 c 1
 607 567 l 1
 546 567 l 1
 546 576 l 1
 546 602 l 1
 546 605 l 2
 546 668 486 708 393 708 c 0
 242 708 150 579 150 366 c 0
 150 156 255 30 430 30 c 0
 490 30 546 46 619 86 c 1
EndSplineSet
EndChar
StartChar: F
Encoding: 70 70 138
Width: 556
Flags: W
HStem: 0 30<21 317 21 21> 350 40<214 354 214 354> 684 39<214 373 214 214 373 423> 693 30<21 517>
VStem: 111 103<126 350 390 597 597 612.5>
LayerCount: 2
Fore
SplineSet
517 723 m 1x28
 517 596 l 1
 462 596 l 1
 462 606 l 1
 459 647 l 2
 458 679 454 683 423 684 c 2
 373 684 l 1
 214 684 l 1x28
 214 390 l 1
 354 390 l 1
 385 391 l 2
 413 391 416 394 418 418 c 2
 419 429 l 1
 420 441 l 1
 420 450 l 1
 459 450 l 1
 459 290 l 1
 420 290 l 1
 420 299 l 2
 417 346 412 350 354 350 c 2
 214 350 l 1
 214 126 l 2
 214 48 222 35 274 33 c 2
 291 32 l 1
 307 31 l 1
 317 30 l 1
 317 0 l 1
 21 0 l 1
 21 30 l 1
 30 31 l 1
 63 33 l 2
 89 35 101 42 105 56 c 0
 108 72 111 100 111 126 c 2
 111 597 l 2
 111 628 107 664 103 673 c 0
 98 683 84 689 63 690 c 2
 30 692 l 1
 21 693 l 1xd8
 21 723 l 1
 517 723 l 1x28
EndSplineSet
EndChar
StartChar: G
Encoding: 71 71 139
Width: 722
Flags: MW
HStem: -18 41<384.5 424> 709 33<321.5 437 284 454>
VStem: 41 111<301 472 301 485.5> 525 102<39 181 18 197>
LayerCount: 2
Fore
SplineSet
627 181 m 1
 627 18 l 1
 523 -8 456 -18 392 -18 c 0
 176 -18 41 129 41 365 c 0
 41 606 170 742 398 742 c 0
 476 742 545 730 625 704 c 1
 625 573 l 1
 571 573 l 1
 571 582 l 2
 570 592 570 600 570 607 c 2
 570 610 l 2
 570 672 506 709 402 709 c 0
 241 709 152 585 152 359 c 0
 152 243 177 162 231 105 c 0
 281 52 348 23 421 23 c 0
 450 23 481 28 525 39 c 1
 525 181 l 2
 525 213 521 248 516 257 c 0
 511 268 500 273 477 275 c 2
 443 278 l 1
 435 278 l 1
 435 308 l 1
 711 308 l 1
 711 278 l 1
 703 278 l 1
 675 275 l 2
 637 271 633 267 630 230 c 2
 627 181 l 1
EndSplineSet
EndChar
StartChar: H
Encoding: 72 72 140
Width: 722
Flags: MW
HStem: 0 30<20 303 20 20> 354 42<213 509 213 509> 693 30<20 303 20 303>
VStem: 110 103<126 354 396 597> 509 103<126 354 354 354 396 597>
LayerCount: 2
Fore
SplineSet
213 396 m 1
 509 396 l 1
 509 597 l 2
 509 628 505 664 501 673 c 0
 496 683 482 689 461 690 c 2
 428 692 l 1
 419 693 l 1
 419 723 l 1
 702 723 l 1
 702 693 l 1
 693 692 l 1
 660 690 l 2
 636 689 622 681 619 667 c 0
 615 651 612 623 612 597 c 2
 612 126 l 2
 612 95 616 61 621 51 c 0
 626 40 638 35 660 33 c 2
 693 31 l 1
 702 30 l 1
 702 0 l 1
 419 0 l 1
 419 30 l 1
 428 31 l 1
 461 33 l 2
 487 35 499 42 503 56 c 0
 506 72 509 100 509 126 c 2
 509 354 l 1
 213 354 l 1
 213 126 l 2
 213 95 217 60 221 51 c 0
 226 40 239 35 261 33 c 2
 294 31 l 1
 303 30 l 1
 303 0 l 1
 20 0 l 1
 20 30 l 1
 29 31 l 1
 62 33 l 2
 88 35 100 42 104 56 c 0
 107 72 110 100 110 126 c 2
 110 597 l 2
 110 628 106 664 102 673 c 0
 97 683 83 689 62 690 c 2
 29 692 l 1
 20 693 l 1
 20 723 l 1
 303 723 l 1
 303 693 l 1
 294 692 l 1
 261 690 l 2
 236 689 223 681 219 667 c 0
 216 652 213 622 213 597 c 2
 213 396 l 1
EndSplineSet
EndChar
StartChar: J
Encoding: 74 74 142
Width: 389
Flags: MW
HStem: -145 40<93.5 110> 693 30<91 374 91 374>
VStem: 181 103<81 132 132 597>
LayerCount: 2
Fore
SplineSet
0 -134 m 1
 0 -22 l 1
 57 -22 l 1
 58 -34 l 2
 63 -93 73 -105 114 -105 c 0
 170 -105 181 -75 181 73 c 2
 181 597 l 2
 181 629 177 663 173 673 c 0
 168 683 154 689 133 690 c 2
 100 692 l 1
 91 693 l 1
 91 723 l 1
 374 723 l 1
 374 693 l 1
 365 692 l 1
 332 690 l 2
 295 687 290 683 287 645 c 2
 284 597 l 1
 284 132 l 2
 284 30 269 -36 235 -76 c 0
 199 -120 142 -145 78 -145 c 0
 57 -145 33 -142 0 -134 c 1
EndSplineSet
EndChar
StartChar: K
Encoding: 75 75 143
Width: 722
Flags: MW
HStem: 0 30<27 298 27 27 419 428 428 447.5> 693 30<27 310 27 310 431 440>
VStem: 117 103<127 365 368 597>
LayerCount: 2
Fore
SplineSet
220 368 m 1
 439 596 l 2
 456 614 469 629 480 646 c 0
 491 661 501 674 506 678 c 0
 509 680 511 683 511 685 c 0
 511 690 503 692 483 692 c 2
 440 693 l 1
 431 693 l 1
 431 723 l 1
 654 723 l 1
 654 693 l 1
 645 692 l 1
 616 692 l 2
 582 690 574 684 486 596 c 2
 302 408 l 1
 554 126 l 1
 605 73 l 2
 642 35 644 35 704 31 c 2
 714 30 l 1
 714 0 l 1
 419 0 l 1
 419 30 l 1
 428 30 l 2
 467 30 488 34 488 42 c 0
 488 53 466 84 428 128 c 2
 220 365 l 1
 220 127 l 1
 222 78 l 2
 224 37 226 35 289 31 c 2
 298 30 l 1
 298 0 l 1
 27 0 l 1
 27 30 l 1
 36 31 l 1
 69 33 l 2
 95 35 107 42 111 56 c 0
 114 72 117 100 117 126 c 2
 117 597 l 2
 117 628 113 664 109 673 c 0
 104 683 90 689 69 690 c 2
 36 692 l 1
 27 693 l 1
 27 723 l 1
 310 723 l 1
 310 693 l 1
 301 692 l 1
 268 690 l 2
 243 689 230 681 226 667 c 0
 223 652 220 622 220 597 c 2
 220 368 l 1
EndSplineSet
EndChar
StartChar: L
Encoding: 76 76 144
Width: 611
Flags: W
HStem: 0 30<27 587 27 27> 0 42<304 419 419 464> 693 30<27 310 27 310>
VStem: 117 103<126 127 127 597>
LayerCount: 2
Fore
SplineSet
535 135 m 1x70
 536 145 l 1
 587 145 l 1
 587 0 l 1
 27 0 l 1x50
 27 30 l 1x90
 36 31 l 1
 69 33 l 2
 95 35 107 42 111 56 c 0
 114 72 117 100 117 126 c 2
 117 597 l 2
 117 628 113 664 109 673 c 0
 104 683 90 689 69 690 c 2
 36 692 l 1
 27 693 l 1
 27 723 l 1
 310 723 l 1
 310 693 l 1
 301 692 l 1
 268 690 l 2
 243 689 230 681 226 667 c 0
 223 652 220 622 220 597 c 2
 220 127 l 2
 220 76 224 54 233 49 c 0
 243 44 267 42 304 42 c 2
 419 42 l 2
 509 42 533 51 534 85 c 2
 535 135 l 1x70
EndSplineSet
EndChar
StartChar: M
Encoding: 77 77 145
Width: 889
Flags: MW
HStem: 0 30<23 257 23 23> 693 30<23 225>
VStem: 679 96<127 596 127 623 127 623>
LayerCount: 2
Fore
SplineSet
225 723 m 1
 455 190 l 1
 683 723 l 1
 865 723 l 1
 865 693 l 1
 856 692 l 1
 823 690 l 2
 785 687 780 682 778 645 c 2
 775 596 l 1
 775 127 l 1
 778 78 l 2
 781 41 785 37 823 33 c 2
 856 31 l 1
 865 30 l 1
 865 0 l 1
 590 0 l 1
 590 30 l 1
 598 31 l 1
 631 33 l 2
 669 37 673 41 676 78 c 2
 679 127 l 1
 679 623 l 1
 439 58 l 1
 404 58 l 1
 167 601 l 1
 167 126 l 2
 167 95 171 61 176 51 c 0
 181 40 193 35 215 33 c 2
 248 31 l 1
 257 30 l 1
 257 0 l 1
 23 0 l 1
 23 30 l 1
 33 31 l 1
 65 33 l 2
 108 37 111 44 113 126 c 2
 114 597 l 2
 112 678 107 687 65 690 c 2
 32 692 l 1
 23 693 l 1
 23 723 l 1
 225 723 l 1
EndSplineSet
EndChar
StartChar: N
Encoding: 78 78 146
Width: 722
Flags: W
HStem: -10 20 0 30<21 248 21 21> 693 30<21 183>
VStem: 112 45<126 596> 566 44<162 596 -10 596>
LayerCount: 2
Fore
SplineSet
183 723 m 1x78
 566 162 l 1
 566 596 l 1
 563 645 l 2
 561 682 556 687 518 690 c 2
 485 692 l 1
 476 693 l 1
 476 723 l 1
 700 723 l 1
 700 693 l 1
 692 692 l 1
 658 690 l 2
 621 687 616 683 613 645 c 2
 610 596 l 1
 610 -10 l 1
 576 -10 l 1xb8
 157 596 l 1
 157 126 l 2
 157 96 161 61 166 51 c 0
 171 40 183 35 205 33 c 2
 239 31 l 1
 248 30 l 1
 248 0 l 1
 21 0 l 1
 21 30 l 1
 30 31 l 1
 64 33 l 2
 89 35 102 42 105 56 c 0
 109 73 112 100 112 126 c 2
 112 597 l 2
 112 628 108 663 103 673 c 0
 98 683 84 689 64 690 c 2
 30 692 l 1
 21 693 l 1
 21 723 l 1
 183 723 l 1x78
EndSplineSet
EndChar
StartChar: O
Encoding: 79 79 147
Width: 722
Flags: MW
HStem: -18 33<294 426 294 458.5> 708 33<295 427>
VStem: 39 111<254 470 254 479.5> 572 111<253.5 470.5>
LayerCount: 2
Fore
SplineSet
361 741 m 0
 561 741 683 597 683 362 c 0
 683 124 561 -18 356 -18 c 0
 161 -18 39 129 39 362 c 0
 39 597 162 741 361 741 c 0
361 708 m 0
 229 708 150 578 150 362 c 0
 150 146 229 15 359 15 c 0
 493 15 572 144 572 363 c 0
 572 578 493 708 361 708 c 0
EndSplineSet
EndChar
StartChar: P
Encoding: 80 80 148
Width: 556
Flags: MW
HStem: 0 30<15 310 15 15> 693 30<15 226>
VStem: 105 102<126 301 335 597 597 612.5> 433 108<467 563.5 457.5 589>
LayerCount: 2
Fore
SplineSet
226 723 m 1
 297 725 l 1
 330 726 l 1
 339 727 l 2
 396 731 465 706 498 669 c 0
 527 637 541 592 541 535 c 0
 541 380 438 301 233 301 c 2
 207 301 l 1
 207 126 l 2
 207 96 211 61 216 51 c 0
 221 40 233 35 255 33 c 2
 289 31 l 1
 310 30 l 1
 310 0 l 1
 15 0 l 1
 15 30 l 1
 24 31 l 1
 57 33 l 2
 83 35 95 42 99 56 c 0
 102 72 105 100 105 126 c 2
 105 597 l 2
 105 628 101 664 97 673 c 0
 92 683 78 689 57 690 c 2
 24 692 l 1
 15 693 l 1
 15 723 l 1
 226 723 l 1
207 335 m 1
 239 335 l 2
 368 335 433 401 433 533 c 0
 433 645 387 690 273 690 c 2
 207 690 l 1
 207 335 l 1
EndSplineSet
EndChar
StartChar: Q
Encoding: 81 81 149
Width: 722
Flags: W
HStem: -18 33<294.5 372> 0 20 708 33<295.5 427>
VStem: 39 111<255 471.5 255 479> 572 111<269.5 469.5>
LayerCount: 2
Fore
SplineSet
835 -85 m 1x78
 714 -146 l 1
 632 -121 545 -81 452 -24 c 2
 432 -12 l 1
 408 -16 383 -18 361 -18 c 0xb8
 161 -18 39 126 39 361 c 0
 39 597 162 741 361 741 c 0
 561 741 683 597 683 362 c 0
 683 177 609 48 476 0 c 1
 553 -44 672 -73 835 -85 c 1x78
361 708 m 0
 230 708 150 578 150 365 c 0
 150 145 228 15 361 15 c 0
 493 15 572 145 572 361 c 0
 572 578 493 708 361 708 c 0
EndSplineSet
EndChar
StartChar: R
Encoding: 82 82 150
Width: 667
Flags: MW
HStem: 0 30<15 286 15 15> 693 30<15 189>
VStem: 105 103<127 318 351 597 597 612.5> 435 105<492.5 570 492.5 590>
LayerCount: 2
Fore
SplineSet
189 723 m 1
 237 724 l 1
 277 725 l 1
 316 726 l 1
 325 727 l 2
 387 731 464 705 499 667 c 0
 526 636 540 596 540 544 c 0
 540 441 495 380 391 340 c 1
 532 128 l 1
 578 64 l 2
 592 45 609 34 630 32 c 2
 651 31 l 1
 661 30 l 1
 661 0 l 1
 489 0 l 1
 292 318 l 1
 208 318 l 1
 208 127 l 1
 210 78 l 2
 212 37 214 35 277 31 c 2
 286 30 l 1
 286 0 l 1
 15 0 l 1
 15 30 l 1
 24 31 l 1
 57 33 l 2
 83 35 95 42 99 56 c 0
 102 72 105 100 105 126 c 2
 105 597 l 2
 105 628 101 664 97 673 c 0
 92 683 78 689 57 690 c 2
 24 692 l 1
 15 693 l 1
 15 723 l 1
 189 723 l 1
208 351 m 1
 244 351 l 2
 372 351 435 412 435 534 c 0
 435 646 391 690 277 690 c 2
 208 690 l 1
 208 351 l 1
EndSplineSet
EndChar
StartChar: T
Encoding: 84 84 152
Width: 611
Flags: MW
HStem: 0 30<152 460 152 152> 684 39<158 254 158 158 357 357 357 453>
VStem: 254 103<126 684>
LayerCount: 2
Fore
SplineSet
254 684 m 1
 158 684 l 1
 108 682 l 2
 80 681 73 678 70 663 c 0
 69 657 68 639 68 610 c 0
 67 606 67 602 67 601 c 2
 66 591 l 1
 15 591 l 1
 15 723 l 1
 596 723 l 1
 596 591 l 1
 545 591 l 1
 544 601 l 1
 544 612 l 1
 543 630 l 1
 543 644 l 2
 542 676 537 681 503 682 c 2
 453 684 l 1
 357 684 l 1
 357 126 l 2
 357 95 361 61 366 51 c 0
 371 40 383 35 405 33 c 2
 439 31 l 1
 460 30 l 1
 460 0 l 1
 152 0 l 1
 152 30 l 1
 173 31 l 1
 206 33 l 2
 231 35 244 42 248 56 c 0
 251 72 254 100 254 126 c 2
 254 684 l 1
EndSplineSet
EndChar
StartChar: V
Encoding: 86 86 154
Width: 722
Flags: MW
HStem: -9 20 703 20<0 265 265 265 535 722 722 722>
LayerCount: 2
Fore
SplineSet
354 -9 m 1
 94 594 l 1
 67 656 l 2
 53 687 49 690 10 692 c 2
 0 693 l 1
 0 723 l 1
 265 723 l 1
 265 693 l 1
 255 693 l 2
 205 693 179 687 179 674 c 0
 179 669 184 655 196 627 c 2
 209 594 l 1
 404 139 l 1
 591 595 l 1
 601 619 l 2
 609 642 616 664 616 672 c 0
 616 686 606 692 583 692 c 2
 545 693 l 1
 535 693 l 1
 535 723 l 1
 722 723 l 1
 722 693 l 1
 711 692 l 2
 674 690 669 686 655 652 c 2
 632 595 l 1
 387 -9 l 1
 354 -9 l 1
EndSplineSet
EndChar
StartChar: W
Encoding: 87 87 155
Width: 944
Flags: MW
HStem: -9 20 703 20<0 262 262 262 745 944 944 944>
LayerCount: 2
Fore
SplineSet
256 -9 m 1
 92 594 l 2
 79 642 76 653 75 658 c 0
 70 681 58 692 39 692 c 2
 11 692 l 1
 0 693 l 1
 0 723 l 1
 262 723 l 1
 262 693 l 1
 252 693 l 1
 226 692 l 2
 192 691 180 684 180 666 c 0
 180 653 186 624 194 594 c 2
 308 173 l 1
 483 714 l 1
 518 714 l 1
 675 158 l 1
 810 593 l 2
 825 643 831 666 831 676 c 0
 831 687 819 691 788 692 c 2
 754 693 l 1
 745 693 l 1
 745 723 l 1
 944 723 l 1
 944 693 l 1
 936 692 l 1
 906 691 l 2
 887 691 874 680 868 661 c 2
 847 594 l 1
 660 -9 l 1
 627 -9 l 1
 470 547 l 1
 290 -9 l 1
 256 -9 l 1
EndSplineSet
EndChar
StartChar: X
Encoding: 88 88 156
Width: 722
Flags: MW
HStem: 0 20 703 20<18 302 302 302 523 704 704 704>
LayerCount: 2
Fore
SplineSet
6 0 m 1
 6 30 l 1
 13 31 l 1
 34 32 l 2
 55 34 73 46 91 70 c 2
 136 128 l 1
 309 356 l 1
 148 597 l 1
 109 651 l 2
 90 678 73 690 52 691 c 2
 28 692 l 1
 18 693 l 1
 18 723 l 1
 302 723 l 1
 302 693 l 1
 294 693 l 1
 259 693 l 2
 235 692 223 687 223 677 c 0
 223 671 229 662 246 639 c 0
 248 635 258 622 274 597 c 2
 391 420 l 1
 533 597 l 2
 569 643 586 669 586 680 c 0
 586 688 579 691 556 692 c 2
 532 693 l 1
 523 693 l 1
 523 723 l 1
 704 723 l 1
 704 693 l 1
 692 692 l 2
 660 690 638 677 617 648 c 0
 609 636 590 612 578 597 c 2
 418 398 l 1
 596 128 l 1
 638 67 l 2
 654 44 666 34 681 32 c 2
 707 31 l 1
 716 30 l 1
 716 0 l 1
 439 0 l 1
 439 30 l 1
 447 30 l 1
 477 31 l 2
 506 31 520 37 520 49 c 0
 520 55 513 70 500 88 c 2
 473 127 l 1
 338 330 l 1
 184 128 l 2
 171 111 165 104 154 88 c 0
 138 68 129 53 129 46 c 0
 129 36 141 31 169 31 c 2
 198 30 l 1
 208 30 l 1
 208 0 l 1
 6 0 l 1
EndSplineSet
EndChar
StartChar: Y
Encoding: 89 89 157
Width: 722
Flags: MW
HStem: 0 30<216 499 216 216> 703 20<0 280 280 280 522 722 722 722>
VStem: 306 103<126 320>
LayerCount: 2
Fore
SplineSet
306 320 m 1
 123 594 l 1
 94 636 l 2
 70 673 54 689 37 691 c 2
 9 692 l 1
 0 693 l 1
 0 723 l 1
 280 723 l 1
 280 693 l 1
 270 693 l 1
 236 692 l 2
 211 691 200 686 200 674 c 0
 200 666 210 645 223 626 c 2
 245 594 l 1
 399 365 l 1
 553 593 l 2
 584 640 599 667 599 679 c 0
 599 688 589 691 558 692 c 2
 531 693 l 1
 522 693 l 1
 522 723 l 1
 722 723 l 1
 722 693 l 1
 713 692 l 1
 712 692 l 1
 710 693 l 2
 708 691 708 691 707 691 c 2
 697 692 l 2
 674 694 652 680 634 651 c 0
 626 641 612 619 595 594 c 2
 409 320 l 1
 409 126 l 2
 409 95 413 60 417 51 c 0
 422 40 435 35 457 33 c 2
 490 31 l 1
 499 30 l 1
 499 0 l 1
 216 0 l 1
 216 30 l 1
 225 31 l 1
 258 33 l 2
 283 35 296 42 299 56 c 0
 303 72 306 100 306 126 c 2
 306 320 l 1
EndSplineSet
EndChar
StartChar: bracketleft
Encoding: 91 91 247
Width: 333
Flags: MW
HStem: -145 30<174 287 174 287> 741 30<174 287 174 174>
VStem: 90 84<-115 741 -115 771 -115 771>
LayerCount: 2
Fore
SplineSet
90 -145 m 1
 90 771 l 1
 287 771 l 1
 287 741 l 1
 174 741 l 1
 174 -115 l 1
 287 -115 l 1
 287 -145 l 1
 90 -145 l 1
EndSplineSet
EndChar
StartChar: backslash
Encoding: 92 92 280
Width: 278
Flags: MW
HStem: 703 20<-15 36 36 36>
LayerCount: 2
Fore
SplineSet
293 -144 m 1
 242 -144 l 1
 -15 723 l 1
 36 723 l 1
 293 -144 l 1
EndSplineSet
EndChar
StartChar: bracketright
Encoding: 93 93 248
Width: 333
Flags: MW
HStem: -145 30<45 158 45 158 45 242> 741 30<45 158 45 242>
VStem: 158 84<-115 741 741 741>
LayerCount: 2
Fore
SplineSet
45 -145 m 1
 45 -115 l 1
 158 -115 l 1
 158 741 l 1
 45 741 l 1
 45 771 l 1
 242 771 l 1
 242 -145 l 1
 45 -145 l 1
EndSplineSet
EndChar
StartChar: asciicircum
Encoding: 94 94 303
Width: 469
Flags: MW
HStem: 703 20<235 235>
LayerCount: 2
Fore
SplineSet
18 289 m 1
 235 723 l 1
 452 289 l 1
 390 289 l 1
 235 598 l 1
 80 289 l 1
 18 289 l 1
EndSplineSet
EndChar
StartChar: underscore
Encoding: 95 95 306
Width: 500
Flags: MW
HStem: -60 60<0 500 0 500>
LayerCount: 2
Fore
SplineSet
0 -60 m 1
 0 0 l 1
 500 0 l 1
 500 -60 l 1
 0 -60 l 1
EndSplineSet
EndChar
StartChar: grave
Encoding: 96 96 285
Width: 333
Flags: W
LayerCount: 2
Fore
SplineSet
288 626 m 1
 243 626 l 1
 44 783 l 1
 170 783 l 1
 288 626 l 1
EndSplineSet
EndChar
StartChar: b
Encoding: 98 98 167
Width: 500
Flags: W
HStem: -12 39<232.5 264 210.5 314.5> 0 20 480 62<269.5 297>
VStem: 59 96<0 0 0 38 38 408 443 644 644 644> 363 104<189.5 333>
LayerCount: 2
Fore
SplineSet
59 -6 m 1x58
 59 644 l 1
 58 693 l 2
 57 732 52 737 9 740 c 2
 0 741 l 1
 0 771 l 1
 155 771 l 1
 155 443 l 1
 200 513 241 542 298 542 c 0
 403 542 467 443 467 281 c 0
 467 98 384 -12 245 -12 c 0xb8
 220 -12 194 -9 155 0 c 1
 59 -6 l 1x58
155 408 m 1
 155 38 l 1
 182 30 202 27 219 27 c 0
 309 27 363 115 363 262 c 0
 363 404 329 480 265 480 c 0
 233 480 201 459 155 408 c 1
EndSplineSet
EndChar
StartChar: d
Encoding: 100 100 169
Width: 500
Flags: W
HStem: -12 63<203 230> 0 20 504 38<236 268 186 289.5>
VStem: 33 104<198 341> 345 96<0 771 87 771 126 492 492 492 530 644 644 644>
LayerCount: 2
Fore
SplineSet
345 0 m 1x78
 345 87 l 1
 301 17 258 -12 202 -12 c 0x98
 97 -12 33 87 33 249 c 0
 33 433 116 542 256 542 c 0
 280 542 309 538 345 530 c 1
 345 644 l 1
 344 693 l 2
 343 732 338 737 295 740 c 2
 286 741 l 1
 286 771 l 1
 441 771 l 1
 441 126 l 1
 442 78 l 2
 443 39 448 34 491 31 c 2
 500 30 l 1
 500 0 l 1
 345 0 l 1x78
345 121 m 1xb8
 345 492 l 1
 319 500 298 504 281 504 c 0
 191 504 137 416 137 269 c 0
 137 127 171 51 235 51 c 0
 268 51 300 72 345 121 c 1xb8
EndSplineSet
EndChar
StartChar: f
Encoding: 102 102 171
Width: 333
Flags: W
HStem: 0 20 488 42<18 86 18 86> 490 40<182 291> 752 31<222.5 259.5>
VStem: 86 96<127 488 488 488 530 555 555 614 614 639.5>
LayerCount: 2
Fore
SplineSet
27 0 m 1xa8
 27 30 l 1
 36 31 l 2
 79 34 84 39 85 78 c 2
 86 127 l 1
 86 488 l 1
 18 488 l 1
 18 530 l 1
 86 530 l 1
 86 555 l 2
 86 724 125 783 239 783 c 0
 283 783 315 773 351 747 c 1
 351 632 l 1
 297 632 l 1
 296 641 l 2
 295 659 295 668 295 673 c 2
 295 676 l 2
 295 727 277 752 242 752 c 0
 203 752 183 723 182 662 c 2
 182 614 l 1
 182 530 l 1
 291 530 l 1xd8
 291 490 l 1
 182 490 l 1
 182 127 l 1
 183 78 l 2
 184 38 192 31 244 31 c 2
 265 30 l 1
 265 0 l 1
 27 0 l 1xa8
EndSplineSet
EndChar
StartChar: i
Encoding: 105 105 174
Width: 278
Flags: MW
HStem: 0 20 510 20<23 190 190 190> 627 96<94 190 94 190>
VStem: 94 96<126 404 404 404 627 723>
LayerCount: 2
Fore
SplineSet
94 627 m 1
 94 723 l 1
 190 723 l 1
 190 627 l 1xf0
 94 627 l 1
23 0 m 1
 23 30 l 1
 32 31 l 2
 69 33 86 37 88 43 c 0
 91 49 93 59 93 78 c 2
 94 126 l 1
 94 404 l 1
 93 451 l 2
 93 477 90 489 83 492 c 0
 76 495 57 498 32 499 c 2
 23 500 l 1
 23 530 l 1
 190 530 l 1
 190 126 l 1
 191 78 l 2
 191 52 194 41 202 38 c 0
 208 35 226 32 252 31 c 2
 261 30 l 1
 261 0 l 1
 23 0 l 1
EndSplineSet
EndChar
StartChar: j
Encoding: 106 106 175
Width: 278
Flags: MW
HStem: -205 33<49 86 45 115.5> 510 20<69 224 224 224> 627 96<128 224 128 224>
VStem: 128 96<-63.5 -40 -40 6 6 404 404 404 627 723>
LayerCount: 2
Fore
SplineSet
-38 -186 m 1
 -38 -67 l 1
 10 -67 l 1
 11 -75 l 1
 13 -151 25 -172 65 -172 c 0
 107 -172 128 -145 128 -91 c 2
 128 -40 l 1
 128 404 l 1
 127 451 l 2
 126 490 121 495 78 499 c 2
 69 500 l 1
 69 530 l 1
 224 530 l 1
 224 6 l 2
 224 -133 169 -205 62 -205 c 0
 36 -205 8 -200 -38 -186 c 1
128 627 m 1
 128 723 l 1
 224 723 l 1
 224 627 l 1
 128 627 l 1
EndSplineSet
EndChar
StartChar: k
Encoding: 107 107 176
Width: 500
Flags: MW
HStem: 0 20 510 20<297 462 462 462>
VStem: 74 96<126 261 285 644 644 644>
LayerCount: 2
Fore
SplineSet
15 0 m 1
 15 30 l 1
 24 31 l 2
 67 34 72 39 73 78 c 2
 74 126 l 1
 74 644 l 1
 73 693 l 2
 72 732 67 737 24 740 c 2
 15 741 l 1
 15 771 l 1
 170 771 l 1
 170 285 l 1
 193 285 l 1
 286 403 l 1
 324 451 l 1
 343 478 l 2
 349 485 350 487 350 490 c 0
 350 497 338 500 308 500 c 2
 297 500 l 1
 297 530 l 1
 462 530 l 1
 462 500 l 1
 453 499 l 2
 403 495 401 494 369 453 c 2
 335 408 l 1
 263 312 l 1
 396 123 l 2
 452 44 462 34 490 31 c 2
 500 30 l 1
 500 0 l 1
 375 0 l 1
 193 261 l 1
 170 261 l 1
 170 126 l 1
 171 78 l 2
 172 39 177 34 220 31 c 2
 229 30 l 1
 229 0 l 1xe0
 15 0 l 1
EndSplineSet
EndChar
StartChar: l
Encoding: 108 108 177
Width: 278
Flags: MW
HStem: 0 20
VStem: 94 96<126 645 645 645>
LayerCount: 2
Fore
SplineSet
23 0 m 1
 23 30 l 1
 32 31 l 2
 69 33 86 37 88 43 c 0
 91 49 93 59 93 78 c 2
 94 126 l 1
 94 645 l 1
 93 693 l 2
 93 719 90 730 83 733 c 0
 76 736 58 739 32 740 c 2
 23 741 l 1
 23 771 l 1
 190 771 l 1
 190 126 l 1
 191 78 l 2
 191 52 194 41 202 38 c 0
 208 35 226 32 252 31 c 2
 261 30 l 1
 261 0 l 1xc0
 23 0 l 1
EndSplineSet
EndChar
StartChar: m
Encoding: 109 109 178
Width: 778
Flags: W
HStem: 0 20 479 63<297 310.5 568.5 580.5> 510 20<18 173 173 173>
VStem: 77 96<126 404 404 404> 348 96<126 358 358 358> 618 96<126 358 358 358>
LayerCount: 2
Fore
SplineSet
18 0 m 1xdc
 18 30 l 1
 27 31 l 2
 70 34 75 39 76 78 c 2
 77 126 l 1
 77 404 l 1
 76 451 l 2
 75 490 70 495 27 499 c 2
 18 500 l 1
 18 530 l 1
 173 530 l 1xbc
 173 443 l 1
 223 513 268 542 326 542 c 0
 389 542 425 511 444 441 c 1
 493 513 538 542 599 542 c 0
 683 542 714 496 714 373 c 2
 714 126 l 1
 715 78 l 2
 716 39 721 34 764 31 c 2
 773 30 l 1
 773 0 l 1
 559 0 l 1
 559 30 l 1
 568 31 l 2
 611 34 616 39 617 78 c 2
 618 126 l 1
 618 358 l 1
 617 396 l 2
 616 454 599 479 562 479 c 0
 521 479 486 458 444 410 c 1
 444 126 l 1
 445 78 l 2
 446 39 451 34 494 31 c 2
 503 30 l 1
 503 0 l 1
 289 0 l 1
 289 30 l 1
 298 31 l 2
 341 34 346 39 347 78 c 2
 348 126 l 1
 348 358 l 1
 347 396 l 2
 345 454 329 479 292 479 c 0
 251 479 215 458 173 410 c 1
 173 126 l 1
 174 78 l 2
 175 39 180 34 223 31 c 2
 232 30 l 1
 232 0 l 1
 18 0 l 1xdc
EndSplineSet
EndChar
StartChar: p
Encoding: 112 112 181
Width: 500
Flags: W
HStem: -12 39<232.5 264 210.5 314.5> 0 20 480 62<269.5 297> 510 20<0 155 155 155>
VStem: 59 96<-66 0 -66 38 38 404 404 404> 363 104<189.5 333>
LayerCount: 2
Fore
SplineSet
0 -193 m 1x4c
 0 -163 l 1
 9 -162 l 2
 52 -159 57 -154 58 -115 c 2
 59 -66 l 1
 59 404 l 1
 58 451 l 2
 57 490 52 495 9 499 c 2
 0 500 l 1
 0 530 l 1
 155 530 l 1x1c
 155 443 l 1
 200 513 241 542 298 542 c 0
 403 542 467 443 467 281 c 0
 467 98 384 -12 245 -12 c 0xac
 220 -12 194 -9 155 0 c 1
 155 -66 l 1
 156 -115 l 2
 157 -154 162 -159 205 -162 c 2
 214 -163 l 1
 214 -193 l 1
 0 -193 l 1x4c
155 408 m 1xac
 155 38 l 1
 182 30 202 27 219 27 c 0
 309 27 363 115 363 262 c 0
 363 404 329 480 265 480 c 0
 233 480 201 459 155 408 c 1xac
EndSplineSet
EndChar
StartChar: q
Encoding: 113 113 182
Width: 500
Flags: W
HStem: -12 62<203 230> 504 38<236 268 186 289.5> 510 20<345 441 441 441>
VStem: 33 104<197.5 341> 345 96<-66 87 87 87 121 492 492 492 -66 530>
LayerCount: 2
Fore
SplineSet
286 -193 m 1x38
 286 -163 l 1
 295 -162 l 2
 338 -159 343 -154 344 -115 c 2
 345 -66 l 1
 345 87 l 1
 301 17 258 -12 202 -12 c 0
 97 -12 33 87 33 249 c 0
 33 433 116 542 256 542 c 0xd8
 280 542 309 538 345 530 c 1
 441 530 l 1
 441 -66 l 1
 442 -115 l 2
 443 -154 448 -159 491 -162 c 2
 500 -163 l 1
 500 -193 l 1
 286 -193 l 1x38
345 121 m 1
 345 492 l 1
 319 500 298 504 281 504 c 0
 191 504 137 416 137 269 c 0
 137 126 171 50 235 50 c 0
 268 50 300 71 345 121 c 1
EndSplineSet
EndChar
StartChar: r
Encoding: 114 114 183
Width: 333
Flags: W
HStem: 0 20 459 83<238.5 302.5> 510 20<15 170 170 170>
VStem: 74 96<126 397 126 404 126 404>
LayerCount: 2
Fore
SplineSet
15 0 m 1
 15 30 l 1
 24 31 l 2
 67 34 72 39 73 78 c 2
 74 126 l 1
 74 404 l 1
 73 451 l 2
 72 490 67 495 24 499 c 2
 15 500 l 1
 15 530 l 1
 170 530 l 1xb0
 170 443 l 1
 207 512 246 542 297 542 c 0
 308 542 317 540 327 536 c 1
 327 391 l 1
 282 391 l 1
 281 400 l 1
 281 404 l 1
 280 408 l 1
 280 413 l 1
 280 421 l 2
 278 448 270 459 252 459 c 0
 225 459 199 440 170 397 c 1
 170 126 l 1
 171 78 l 2
 172 39 177 34 220 31 c 2
 229 30 l 1
 229 0 l 1xd0
 15 0 l 1
EndSplineSet
EndChar
StartChar: t
Encoding: 116 116 185
Width: 278
Flags: W
HStem: -12 20 3 39<260 260> 488 42<12 66 12 66 163 272>
VStem: 66 97<166 488 530 626 626 626>
LayerCount: 2
Fore
SplineSet
66 488 m 1xb0
 12 488 l 1
 12 530 l 1
 66 530 l 1
 66 626 l 1
 163 650 l 1
 163 530 l 1
 272 530 l 1
 272 488 l 1
 163 488 l 1
 163 153 l 1
 163 110 l 2
 163 55 180 27 214 27 c 0
 227 27 242 32 260 42 c 1
 260 3 l 1x70
 233 -8 213 -12 190 -12 c 0
 100 -12 66 37 66 166 c 2
 66 488 l 1xb0
EndSplineSet
EndChar
StartChar: v
Encoding: 118 118 187
Width: 500
Flags: MW
HStem: -6 20 510 20<0 214 214 214 359 500 500 500>
LayerCount: 2
Fore
SplineSet
241 -6 m 1
 76 400 l 2
 50 464 27 498 9 499 c 2
 0 500 l 1
 0 530 l 1
 214 530 l 1
 214 500 l 1
 204 500 l 1
 190 499 l 2
 163 498 152 492 152 479 c 0
 152 474 157 457 167 435 c 2
 181 399 l 1
 289 133 l 1
 388 399 l 1
 401 431 l 2
 412 459 416 473 416 479 c 0
 416 493 400 500 370 500 c 2
 359 500 l 1
 359 530 l 1
 500 530 l 1
 500 500 l 1
 492 499 l 2
 472 498 457 483 445 454 c 2
 423 399 l 1
 270 -6 l 1
 241 -6 l 1
EndSplineSet
EndChar
StartChar: w
Encoding: 119 119 188
Width: 722
Flags: MW
HStem: -6 20 510 20<0 217 217 217 573 722 722 722>
LayerCount: 2
Fore
SplineSet
187 -6 m 1
 74 404 l 2
 51 485 44 495 9 499 c 2
 0 500 l 1
 0 530 l 1
 217 530 l 1
 217 500 l 1
 207 500 l 2
 174 500 157 492 157 477 c 0
 157 466 162 444 173 404 c 2
 241 158 l 1
 370 527 l 1
 402 527 l 1
 536 139 l 1
 615 404 l 1
 623 432 l 1
 632 466 l 2
 635 473 635 475 635 478 c 0
 635 492 624 498 598 499 c 2
 583 500 l 1
 573 500 l 1
 573 530 l 1
 722 530 l 1
 722 500 l 1
 711 499 l 2
 688 498 671 479 660 443 c 2
 648 404 l 1
 522 -6 l 1
 495 -6 l 1
 355 391 l 1
 216 -6 l 1
 187 -6 l 1
EndSplineSet
EndChar
StartChar: x
Encoding: 120 120 189
Width: 500
Flags: MW
HStem: 0 20 510 20<0 240 240 240 327 482 482 482>
LayerCount: 2
Fore
SplineSet
3 0 m 1
 3 30 l 1
 11 31 l 2
 31 32 50 45 66 67 c 2
 106 125 l 1
 198 255 l 1
 107 402 l 2
 76 452 59 477 51 485 c 0
 43 493 29 498 9 499 c 2
 0 500 l 1
 0 530 l 1
 240 530 l 1
 240 500 l 1
 230 500 l 1
 210 499 l 2
 186 497 177 493 177 483 c 0
 177 478 179 473 185 464 c 0
 188 460 189 457 193 450 c 0
 205 429 207 426 222 402 c 2
 281 306 l 1
 338 400 l 1
 363 444 l 2
 375 465 382 480 382 485 c 0
 382 494 374 499 356 499 c 2
 338 500 l 1
 327 500 l 1
 327 530 l 1
 482 530 l 1
 482 500 l 1
 472 499 l 2
 435 495 431 492 375 402 c 2
 299 278 l 1
 393 126 l 2
 443 46 455 35 492 31 c 2
 500 30 l 1
 500 0 l 1
 259 0 l 1
 259 30 l 1
 268 30 l 1
 290 31 l 2
 315 31 326 35 326 44 c 0
 326 48 323 53 317 62 c 0
 313 68 310 73 303 87 c 0
 295 102 293 105 281 125 c 2
 215 229 l 1
 143 125 l 2
 138 119 122 94 121 91 c 2
 106 63 l 2
 101 53 99 50 99 46 c 0
 99 36 110 31 136 31 c 2
 154 30 l 1
 166 30 l 1
 166 0 l 1
 3 0 l 1
EndSplineSet
EndChar
StartChar: y
Encoding: 121 121 190
Width: 500
Flags: MW
HStem: 0 20 510 20<0 213 213 213 359 500 500 500>
LayerCount: 2
Fore
SplineSet
238 0 m 1
 76 400 l 2
 51 464 27 498 8 499 c 2
 0 500 l 1
 0 530 l 1
 213 530 l 1
 213 500 l 1
 204 500 l 1
 190 499 l 2
 163 498 151 492 151 479 c 0
 151 474 157 457 166 435 c 2
 181 399 l 1
 289 133 l 1
 388 399 l 1
 400 431 l 2
 413 464 416 473 416 479 c 0
 416 493 400 500 370 500 c 2
 359 500 l 1
 359 530 l 1
 500 530 l 1
 500 500 l 1
 492 499 l 2
 472 498 456 482 445 454 c 2
 423 399 l 1
 201 -193 l 1
 79 -193 l 1xc0
 238 0 l 1
EndSplineSet
EndChar
StartChar: braceleft
Encoding: 123 123 269
Width: 480
Flags: MW
VStem: 169 78<-36.5 -29.5 -60.5 17.5 654.5 663.5>
LayerCount: 2
Fore
SplineSet
72 298 m 1
 72 328 l 1
 110 328 l 2
 169 328 199 356 199 410 c 0
 199 423 197 438 192 465 c 2
 187 490 l 1
 178 537 l 2
 173 564 169 600 169 619 c 0
 169 708 241 771 342 771 c 2
 371 771 l 1
 371 741 l 1
 342 741 l 2
 279 741 247 713 247 659 c 0
 247 650 249 634 250 628 c 2
 256 605 l 1
 263 571 l 2
 268 544 272 508 272 483 c 0
 272 400 240 349 164 313 c 1
 240 278 272 227 272 142 c 0
 272 118 268 82 263 56 c 2
 256 22 l 1
 250 -1 l 2
 249 -7 247 -25 247 -34 c 0
 247 -87 279 -114 342 -114 c 2
 371 -114 l 1
 371 -145 l 1
 342 -145 l 2
 241 -145 169 -81 169 8 c 0
 169 27 173 62 178 89 c 2
 187 137 l 1
 192 161 l 2
 197 188 199 203 199 216 c 0
 199 270 169 298 110 298 c 2
 72 298 l 1
EndSplineSet
EndChar
StartChar: bar
Encoding: 124 124 304
Width: 200
Flags: MW
VStem: 76 48<-145 771 -145 771>
LayerCount: 2
Fore
SplineSet
76 -145 m 1
 76 771 l 1
 124 771 l 1
 124 -145 l 1
 76 -145 l 1
EndSplineSet
EndChar
StartChar: braceright
Encoding: 125 125 270
Width: 480
Flags: MW
VStem: 233 78<-36.5 -28 655 663>
LayerCount: 2
Fore
SplineSet
407 328 m 1
 407 298 l 1
 370 298 l 2
 311 298 281 270 281 217 c 0
 281 203 284 180 288 161 c 2
 293 137 l 1
 301 89 l 2
 308 55 311 27 311 8 c 0
 311 -81 239 -145 138 -145 c 2
 108 -145 l 1
 108 -114 l 1
 137 -114 l 2
 201 -114 233 -87 233 -33 c 0
 233 -23 232 -11 229 -1 c 2
 223 22 l 1
 217 56 l 2
 211 84 208 118 208 143 c 0
 208 227 240 278 316 313 c 1
 240 349 208 400 208 484 c 0
 208 509 211 540 217 571 c 2
 223 605 l 1
 229 628 l 2
 232 638 233 650 233 660 c 0
 233 714 201 741 137 741 c 2
 108 741 l 1
 108 771 l 1
 138 771 l 2
 239 771 311 708 311 618 c 0
 311 599 308 573 301 537 c 2
 293 490 l 1
 288 465 l 2
 284 446 281 423 281 410 c 0
 281 356 311 328 370 328 c 2
 407 328 l 1
EndSplineSet
EndChar
StartChar: asciitilde
Encoding: 126 126 307
Width: 541
Flags: MW
HStem: 205 50<382 420.5 382 422.5> 323 50<118.5 157.5>
LayerCount: 2
Fore
SplineSet
59 217 m 1
 29 217 l 1
 37 324 77 373 158 373 c 0
 199 373 237 356 284 316 c 2
 303 300 l 2
 340 268 368 255 396 255 c 0
 445 255 480 298 481 361 c 1
 511 361 l 1
 503 254 463 205 382 205 c 0
 341 205 303 222 256 262 c 2
 237 278 l 2
 200 310 172 323 143 323 c 0
 94 323 60 280 59 217 c 1
EndSplineSet
EndChar
StartChar: exclamdown
Encoding: 161 161 233
Width: 333
Flags: MW
HStem: 433 97<118 214 118 214>
VStem: 118 96<-193 -48 -193 -48 433 530>
LayerCount: 2
Fore
SplineSet
214 530 m 1
 214 433 l 1
 118 433 l 1
 118 530 l 1
 214 530 l 1
181 337 m 1
 214 -48 l 1
 214 -193 l 1
 118 -193 l 1
 118 -48 l 1
 151 337 l 1
 181 337 l 1
EndSplineSet
EndChar
StartChar: cent
Encoding: 162 162 215
Width: 500
Flags: MW
HStem: 0 20 703 20<292 322 322 322>
VStem: 60 102<318.5 399.5 318.5 409.5> 292 30<0 84 0 86 0 86 137 607 641 723>
LayerCount: 2
Fore
SplineSet
292 0 m 1
 292 86 l 1
 148 102 60 208 60 367 c 0
 60 452 82 517 127 564 c 0
 167 606 207 624 292 639 c 1
 292 723 l 1
 322 723 l 1
 322 641 l 1
 375 637 423 627 470 612 c 1
 470 488 l 1
 416 488 l 1
 415 497 l 2
 415 499 415 503 414 510 c 0
 413 526 413 528 413 533 c 0
 412 585 391 601 322 607 c 1
 322 133 l 1
 346 132 l 2
 376 132 415 141 470 162 c 1
 470 114 l 1
 425 97 376 87 322 84 c 1
 322 0 l 1
 292 0 l 1
292 137 m 1
 292 607 l 1
 249 595 230 582 207 550 c 0
 178 509 162 441 162 358 c 0
 162 279 177 225 209 186 c 0
 231 160 250 149 292 137 c 1
EndSplineSet
EndChar
StartChar: sterling
Encoding: 163 163 213
Width: 500
Flags: MW
HStem: 0 72<36 36 97 452> 362 30<54 139 54 139 235 350> 705 30<290 342 259 348.5>
VStem: 139 96<267 287 287 362 240.5 362 392 500 500 556>
LayerCount: 2
Fore
SplineSet
36 0 m 1
 36 72 l 1
 117 95 139 136 139 267 c 2
 139 362 l 1
 54 362 l 1
 54 392 l 1
 139 392 l 1
 139 500 l 2
 139 656 199 735 319 735 c 0
 365 735 404 725 452 701 c 1
 452 597 l 1
 404 597 l 1
 403 606 l 1
 402 642 l 2
 400 683 373 705 324 705 c 0
 256 705 235 670 235 556 c 2
 235 392 l 1
 350 392 l 1
 350 362 l 1
 235 362 l 1
 235 287 l 2
 235 194 193 129 97 72 c 1
 452 72 l 1
 452 0 l 1
 36 0 l 1
EndSplineSet
EndChar
StartChar: currency
Encoding: 164 164 266
Width: 500
Flags: MW
HStem: 235 48<233.5 266> 494 48<233.5 266 233.5 279.5>
VStem: 96 48<371 405.5> 355 48<370.5 405.5 370.5 418.5>
LayerCount: 2
Fore
SplineSet
157 266 m 1
 93 202 l 1
 63 232 l 1
 127 296 l 1
 106 326 96 354 96 388 c 0
 96 423 106 451 127 481 c 1
 63 545 l 1
 93 575 l 1
 157 511 l 1
 189 533 217 542 250 542 c 0
 282 542 311 532 342 511 c 1
 406 575 l 1
 436 545 l 1
 372 481 l 1
 394 451 403 423 403 388 c 0
 403 353 394 326 372 296 c 1
 436 232 l 1
 406 202 l 1
 342 266 l 1
 311 245 282 235 250 235 c 0
 217 235 188 245 157 266 c 1
250 494 m 0
 191 494 144 448 144 390 c 0
 144 329 190 283 250 283 c 0
 309 283 355 329 355 389 c 0
 355 448 309 494 250 494 c 0
EndSplineSet
EndChar
StartChar: yen
Encoding: 165 165 218
Width: 500
Flags: MW
HStem: 0 30<112 388 112 112> 193 30<51 202 51 202 298 449> 325 30<51 202 51 202 298 449> 703 20<0 245 245 245 324 500 500 500>
VStem: 202 96<126 193 110.5 193 223 325>
LayerCount: 2
Fore
SplineSet
202 193 m 1
 51 193 l 1
 51 223 l 1
 202 223 l 1
 202 325 l 1
 51 325 l 1
 51 355 l 1
 202 355 l 1
 107 577 l 2
 68 666 48 688 0 692 c 1
 0 723 l 1
 245 723 l 1
 245 693 l 1
 218 693 l 2
 195 693 183 686 183 672 c 0
 183 664 186 651 195 631 c 2
 280 417 l 1
 375 641 l 2
 380 654 384 668 384 677 c 0
 384 687 372 694 358 693 c 2
 346 692 l 1
 324 693 l 1
 324 723 l 1
 500 723 l 1
 500 692 l 1
 445 686 435 675 392 576 c 2
 298 355 l 1
 449 355 l 1
 449 325 l 1
 298 325 l 1
 298 223 l 1
 449 223 l 1
 449 193 l 1
 298 193 l 1
 298 126 l 2
 298 95 302 61 307 51 c 0
 312 40 324 35 346 33 c 2
 379 31 l 1
 388 30 l 1
 388 0 l 1
 112 0 l 1
 112 30 l 1
 121 31 l 1
 154 33 l 2
 179 35 192 42 195 56 c 0
 199 72 202 100 202 126 c 2
 202 193 l 1
EndSplineSet
EndChar
StartChar: brokenbar
Encoding: 166 166 305
Width: 200
Flags: MW
VStem: 76 48<-145 217 -145 217 410 771>
LayerCount: 2
Fore
SplineSet
76 -145 m 1
 76 217 l 1
 124 217 l 1
 124 -145 l 1
 76 -145 l 1
76 410 m 1
 76 771 l 1
 124 771 l 1
 124 410 l 1
 76 410 l 1
EndSplineSet
EndChar
StartChar: section
Encoding: 167 167 250
Width: 500
Flags: W
HStem: -156 30<208.5 286.5> 711 30<227 305.5>
VStem: 42 82<303.5 316.5> 44 85<564.5 617> 386 85<-40.5 15> 388 73<261.5 269>
LayerCount: 2
Fore
SplineSet
37 -126 m 1xc8
 37 -18 l 1
 85 -18 l 1
 86 -27 l 1
 87 -50 l 2
 90 -93 158 -126 244 -126 c 0
 329 -126 386 -79 386 -9 c 0
 386 39 366 58 272 97 c 2
 220 119 l 2
 90 173 42 220 42 291 c 0xe8
 42 342 67 385 126 434 c 1
 68 467 44 504 44 562 c 0
 44 672 135 741 279 741 c 0
 335 741 387 733 447 714 c 1
 447 603 l 1
 399 603 l 1
 398 612 l 1
 397 641 l 2
 396 682 342 711 269 711 c 0
 185 711 129 662 129 589 c 0
 129 540 155 511 229 481 c 2
 281 459 l 2
 424 401 461 365 461 288 c 0xd4
 461 235 438 193 382 142 c 1
 445 106 471 68 471 12 c 0
 471 -93 385 -156 240 -156 c 0
 177 -156 115 -147 37 -126 c 1xc8
288 190 m 2
 356 161 l 1
 378 192 388 220 388 249 c 0xc4
 388 289 365 320 319 341 c 2
 217 387 l 1
 149 416 l 1
 131 383 124 361 124 335 c 0
 124 272 151 248 288 190 c 2
EndSplineSet
EndChar
StartChar: copyright
Encoding: 169 169 295
Width: 760
Flags: MW
HStem: 24 30<335 464 335 471.5> 152 33<360 414.5> 543 27<349 408.5 321.5 420.5> 669 30<333.5 426 333.5 465.5>
VStem: 42 30<320 408> 178 88<304 422.5 304 428> 687 30<275.5 408.5 267 447.5>
LayerCount: 2
Fore
SplineSet
380 699 m 0
 472 699 552 666 618 600 c 0
 684 535 717 455 717 362 c 0
 717 172 567 24 376 24 c 0
 294 24 222 51 161 104 c 0
 83 173 42 260 42 362 c 0
 42 454 75 535 141 600 c 0
 207 666 287 699 380 699 c 0
380 669 m 0
 208 669 72 533 72 362 c 0
 72 278 102 206 162 145 c 0
 222 84 293 54 377 54 c 0
 551 54 687 189 687 362 c 0
 687 533 551 669 380 669 c 0
523 216 m 1
 523 177 l 1
 479 160 438 152 391 152 c 0
 256 152 178 229 178 361 c 0
 178 495 254 570 389 570 c 0
 428 570 470 564 516 552 c 1
 516 470 l 1
 476 470 l 1
 476 475 l 2
 476 523 451 543 390 543 c 0
 308 543 266 482 266 363 c 0
 266 245 313 185 407 185 c 0
 442 185 476 194 523 216 c 1
EndSplineSet
EndChar
StartChar: ordfeminine
Encoding: 170 170 271
Width: 276
Flags: MW
HStem: 406 41<109 109.5> 716 25<114.5 144.5>
VStem: 12 72<481 522 481 528> 177 66<483 500 500 572 572 572 597 627>
LayerCount: 2
Fore
SplineSet
273 451 m 1
 273 423 l 1
 257 411 242 406 227 406 c 0
 202 406 187 420 177 452 c 1
 148 419 125 406 94 406 c 0
 41 406 12 437 12 493 c 0
 12 563 59 597 155 597 c 2
 177 597 l 1
 177 627 l 2
 177 694 164 716 125 716 c 0
 94 716 78 698 78 662 c 2
 78 654 l 1
 29 654 l 1
 29 714 l 1
 62 733 94 741 135 741 c 0
 215 741 243 712 243 627 c 2
 243 500 l 2
 243 466 250 449 263 449 c 0
 265 449 268 449 273 451 c 1
177 483 m 1
 177 572 l 1
 159 572 l 2
 109 572 84 547 84 497 c 0
 84 465 97 447 121 447 c 0
 139 447 155 458 177 483 c 1
EndSplineSet
EndChar
StartChar: guillemotleft
Encoding: 171 171 237
Width: 500
Flags: W
LayerCount: 2
Fore
SplineSet
267 457 m 1
 133 265 l 1
 267 74 l 1
 243 54 l 1
 36 265 l 1
 243 476 l 1
 267 457 l 1
458 457 m 1
 324 265 l 1
 458 74 l 1
 433 54 l 1
 227 265 l 1
 433 476 l 1
 458 457 l 1
EndSplineSet
EndChar
StartChar: logicalnot
Encoding: 172 172 302
Width: 564
Flags: MW
HStem: 338 48<41 451 41 499 41 499>
VStem: 451 48<145 338 145 338>
LayerCount: 2
Fore
SplineSet
451 145 m 1
 451 338 l 1
 41 338 l 1
 41 386 l 1
 499 386 l 1
 499 338 l 1
 499 145 l 1
 451 145 l 1
EndSplineSet
EndChar
StartChar: sfthyphen
Encoding: 173 173 242
Width: 333
Flags: MW
HStem: 265 60<40 293 40 293>
LayerCount: 2
Fore
SplineSet
40 265 m 1
 40 325 l 1
 293 325 l 1
 293 265 l 1
 40 265 l 1
EndSplineSet
EndChar
StartChar: registered
Encoding: 174 174 296
Width: 760
Flags: MW
HStem: 24 30<335 464 335 471.5> 669 30<333.5 426 333.5 465.5>
VStem: 42 30<320 408> 258 80<238 334 360 479 479 479> 445 83<430.5 478.5> 687 30<275.5 408.5 267 447.5>
LayerCount: 2
Fore
SplineSet
380 699 m 0
 472 699 552 666 618 600 c 0
 684 535 717 455 717 362 c 0
 717 172 567 24 376 24 c 0
 294 24 222 51 161 104 c 0
 83 173 42 260 42 362 c 0
 42 454 75 535 141 600 c 0
 207 666 287 699 380 699 c 0
380 669 m 0
 208 669 72 533 72 362 c 0
 72 278 102 206 162 145 c 0
 222 84 293 54 377 54 c 0
 551 54 687 189 687 362 c 0
 687 533 551 669 380 669 c 0
338 334 m 1
 338 238 l 1
 339 211 l 2
 340 189 341 188 371 185 c 1
 371 160 l 1
 222 160 l 1
 222 185 l 1
 235 186 l 2
 250 188 256 195 257 211 c 2
 258 238 l 1
 258 479 l 1
 257 506 l 2
 256 522 250 529 235 531 c 2
 222 532 l 1
 222 557 l 1
 331 557 l 1
 356 557 l 1
 380 558 l 1
 404 559 l 1
 408 559 l 2
 486 559 528 524 528 458 c 0
 528 403 504 368 451 345 c 1
 528 237 l 1
 550 210 l 2
 560 196 567 190 576 188 c 1
 576 160 l 1
 482 160 l 1
 372 334 l 1
 338 334 l 1
338 360 m 1
 353 360 l 2
 414 360 445 392 445 452 c 0
 445 505 419 531 368 531 c 2
 338 531 l 1
 338 360 l 1
EndSplineSet
EndChar
StartChar: macron
Encoding: 349 175 293
Width: 333
Flags: MW
HStem: 627 60<10 323 10 323>
LayerCount: 2
Fore
SplineSet
10 627 m 1
 10 687 l 1
 323 687 l 1
 323 627 l 1x80
 10 627 l 1
EndSplineSet
EndChar
StartChar: degree
Encoding: 176 176 258
Width: 400
Flags: MW
HStem: 452 42<172 229 172 240> 699 42<171.5 228.5>
VStem: 56 42<568 624.5 568 637> 303 42<568 625.5>
LayerCount: 2
Fore
SplineSet
201 741 m 0
 281 741 345 677 345 597 c 0
 345 516 281 452 199 452 c 0
 120 452 56 517 56 597 c 0
 56 677 120 741 201 741 c 0
200 699 m 0
 143 699 98 653 98 596 c 0
 98 540 144 494 200 494 c 0
 258 494 303 539 303 597 c 0
 303 654 257 699 200 699 c 0
EndSplineSet
EndChar
StartChar: plusminus
Encoding: 177 177 273
Width: 564
Flags: MW
HStem: 0 48<41 523 41 523> 338 48<41 258 41 258 306 523>
VStem: 258 48<145 338 145 338 386 578>
LayerCount: 2
Fore
SplineSet
41 0 m 1
 41 48 l 1
 523 48 l 1
 523 0 l 1
 41 0 l 1
258 145 m 1
 258 338 l 1
 41 338 l 1
 41 386 l 1
 258 386 l 1
 258 578 l 1
 306 578 l 1
 306 386 l 1
 523 386 l 1
 523 338 l 1
 306 338 l 1
 306 145 l 1
 258 145 l 1
EndSplineSet
EndChar
StartChar: twosuperior
Encoding: 178 178 220
Width: 300
Flags: MW
HStem: 371 51<97 271 97 271> 722 20<136 162.5>
VStem: 208 64<625.5 670>
LayerCount: 2
Fore
SplineSet
42 371 m 1
 42 395 l 1
 55 433 80 468 116 501 c 2
 136 520 l 2
 186 565 208 605 208 646 c 0
 208 694 184 722 141 722 c 0
 120 722 103 715 80 698 c 1
 80 654 l 1
 51 654 l 1
 51 720 l 1
 88 735 119 742 153 742 c 0
 223 742 272 702 272 645 c 0
 272 602 248 571 182 527 c 1
 181 526 l 1
 156 508 l 2
 119 481 100 453 97 422 c 1
 271 422 l 1
 271 371 l 1
 42 371 l 1
EndSplineSet
EndChar
StartChar: threesuperior
Encoding: 179 179 221
Width: 300
Flags: W
HStem: 362 18<116 154.5 111 174> 722 19<122 150.5>
VStem: 193 60<634.5 675.5> 203 62<436.5 494 435 494.5>
LayerCount: 2
Fore
SplineSet
42 374 m 1xd0
 42 440 l 1
 71 440 l 1
 71 435 l 1
 72 421 l 1
 72 419 l 2
 72 394 92 380 130 380 c 0
 179 380 203 408 203 465 c 0xd0
 203 524 170 554 103 554 c 2
 75 554 l 1
 75 573 l 1
 94 573 l 2
 160 573 193 599 193 652 c 0
 193 699 172 722 129 722 c 0
 96 722 77 711 76 691 c 2
 74 669 l 1
 74 665 l 1
 44 665 l 1
 44 726 l 1
 78 737 106 741 138 741 c 0
 215 741 253 713 253 656 c 0xe0
 253 613 229 585 175 566 c 1
 238 550 265 520 265 468 c 0
 265 402 216 362 132 362 c 0
 100 362 72 366 42 374 c 1xd0
EndSplineSet
EndChar
StartChar: acute
Encoding: 180 180 284
Width: 333
Flags: W
LayerCount: 2
Fore
SplineSet
44 626 m 1
 162 783 l 1
 288 783 l 1
 89 626 l 1
 44 626 l 1
EndSplineSet
EndChar
StartChar: paragraph
Encoding: 182 182 265
Width: 453
Flags: W
HStem: 675 48<319 357> 706 20<175 210 210 210>
VStem: 236 36<-144 362 362 362> 357 36<-144 675 675 675>
LayerCount: 2
Fore
SplineSet
236 -144 m 1xb0
 236 362 l 1
 94 364 7 442 7 566 c 0
 7 631 29 677 73 703 c 0
 95 716 95 716 147 723 c 2xb0
 175 726 l 1
 210 726 l 1x70
 261 724 l 1
 319 723 l 1
 393 723 l 1
 393 -144 l 1
 357 -144 l 1
 357 675 l 1
 272 675 l 1
 272 -144 l 1
 236 -144 l 1xb0
EndSplineSet
EndChar
StartChar: periodcentered
Encoding: 340 183 224
Width: 250
Flags: MW
HStem: 239 121<65 186 65 186>
VStem: 65 121<239 360 239 360>
LayerCount: 2
Fore
SplineSet
65 239 m 1
 65 360 l 1
 186 360 l 1
 186 239 l 1
 65 239 l 1
EndSplineSet
EndChar
StartChar: cedilla
Encoding: 184 184 291
Width: 333
Flags: MW
HStem: -211 36<141 148 124.5 180.5> 0 20
VStem: 184 67<-148 -118.5>
LayerCount: 2
Fore
SplineSet
82 -201 m 1
 82 -167 l 1
 103 -173 118 -175 131 -175 c 0
 165 -175 184 -161 184 -135 c 0
 184 -102 157 -87 92 -85 c 1
 139 0 l 1
 177 0 l 1
 145 -58 l 1
 219 -64 251 -86 251 -130 c 0
 251 -176 209 -211 152 -211 c 0xe0
 130 -211 107 -208 82 -201 c 1
EndSplineSet
EndChar
StartChar: onesuperior
Encoding: 185 185 219
Width: 300
Flags: MW
HStem: 721 20<192 192>
VStem: 132 60<444 656 656 656>
LayerCount: 2
Fore
SplineSet
66 377 m 1
 66 396 l 1
 82 396 l 1
 104 398 l 2
 128 400 132 406 132 444 c 2
 132 656 l 1
 131 681 l 2
 130 695 127 699 120 699 c 0
 116 699 102 697 87 694 c 2
 66 690 l 1
 66 710 l 1
 192 741 l 1
 192 444 l 2
 192 404 195 399 220 398 c 2
 242 396 l 1
 258 396 l 1
 258 377 l 1
 66 377 l 1
EndSplineSet
EndChar
StartChar: ordmasculine
Encoding: 186 186 272
Width: 310
Flags: MW
HStem: 405 26<134.5 178 134.5 197.5> 716 25<133.5 177>
VStem: 12 77<525.5 620 525.5 625> 221 77<525 619>
LayerCount: 2
Fore
SplineSet
155 741 m 0
 242 741 298 676 298 574 c 0
 298 470 242 405 153 405 c 0
 67 405 12 471 12 574 c 0
 12 676 68 741 155 741 c 0
155 716 m 0
 112 716 89 667 89 573 c 0
 89 478 112 431 157 431 c 0
 199 431 221 479 221 571 c 0
 221 667 199 716 155 716 c 0
EndSplineSet
EndChar
StartChar: guillemotright
Encoding: 187 187 236
Width: 500
Flags: W
LayerCount: 2
Fore
SplineSet
233 73 m 1
 366 265 l 1
 233 456 l 1
 257 476 l 1
 464 265 l 1
 257 54 l 1
 233 73 l 1
42 73 m 1
 175 265 l 1
 42 456 l 1
 66 476 l 1
 273 265 l 1
 66 54 l 1
 42 73 l 1
EndSplineSet
EndChar
StartChar: onequarter
Encoding: 188 188 275
Width: 750
Flags: W
HStem: -18 20 0 20 100 43<428 565 428 565 397 565 620 665> 721 20<210 210 615 657 657 657>
VStem: 150 60<444 657 657 657> 565 55<67 100 67 100 143 321 321 321>
LayerCount: 2
Fore
SplineSet
84 -18 m 1x9c
 615 741 l 1
 657 741 l 1
 126 -18 l 1
 84 -18 l 1x9c
520 0 m 1x7c
 520 19 l 1
 524 19 l 2
 556 19 562 23 564 43 c 2
 565 67 l 1
 565 100 l 1
 397 100 l 1
 397 132 l 1
 576 366 l 1
 620 366 l 1
 620 143 l 1
 665 143 l 1
 665 100 l 1
 620 100 l 1
 620 67 l 1
 621 43 l 2
 623 24 630 19 658 19 c 2
 662 19 l 1
 662 0 l 1
 520 0 l 1x7c
428 143 m 1
 565 143 l 1
 565 321 l 1
 428 143 l 1
84 377 m 1
 84 396 l 1
 100 396 l 1
 122 398 l 2
 146 400 150 406 150 444 c 2
 150 657 l 1
 149 681 l 2
 148 695 145 699 138 699 c 0
 134 699 119 697 105 694 c 2
 84 690 l 1
 84 710 l 1
 210 741 l 1
 210 444 l 2
 210 404 213 399 238 398 c 2
 260 396 l 1
 276 396 l 1
 276 377 l 1
 84 377 l 1
EndSplineSet
EndChar
StartChar: onehalf
Encoding: 189 189 274
Width: 750
Flags: W
HStem: -18 20 0 51<502 676 502 676> 350 20<542 568> 721 20<210 210 615 657 657 657>
VStem: 150 60<444 657 657 657> 613 64<254.5 298>
LayerCount: 2
Fore
SplineSet
84 -18 m 1x9c
 615 741 l 1
 657 741 l 1
 126 -18 l 1
 84 -18 l 1x9c
84 377 m 1
 84 396 l 1
 100 396 l 1
 122 398 l 2
 146 400 150 406 150 444 c 2
 150 657 l 1
 149 681 l 2
 148 695 145 699 138 699 c 0
 134 699 119 697 105 694 c 2
 84 690 l 1
 84 710 l 1
 210 741 l 1
 210 444 l 2
 210 404 213 399 238 398 c 2
 260 396 l 1
 276 396 l 1
 276 377 l 1
 84 377 l 1
448 0 m 1x6c
 448 24 l 1
 461 62 486 97 522 130 c 2
 542 149 l 2
 591 194 613 233 613 274 c 0
 613 322 589 350 547 350 c 0
 526 350 508 343 485 326 c 1
 485 282 l 1
 457 282 l 1
 457 349 l 1
 493 363 525 370 559 370 c 0
 628 370 677 330 677 273 c 0
 677 236 658 206 613 174 c 0
 602 165 591 158 588 156 c 2
 586 155 l 1
 562 137 l 2
 525 110 506 82 502 51 c 1
 676 51 l 1
 676 0 l 1
 448 0 l 1x6c
EndSplineSet
EndChar
StartChar: threequarters
Encoding: 190 190 276
Width: 750
Flags: W
HStem: -18 20 0 20 100 43<428 565 428 565 397 565 620 665> 362 19<158 196.5 153 216> 722 19<164 192.5>
VStem: 235 60<634.5 675.5> 245 62<437 494 435 494.5> 565 55<67 100 67 100 143 321 321 321>
LayerCount: 2
Fore
SplineSet
84 -18 m 1x83
 615 741 l 1
 657 741 l 1
 126 -18 l 1
 84 -18 l 1x83
520 0 m 1x7b
 520 19 l 1
 524 19 l 2
 557 19 562 22 564 43 c 2
 565 67 l 1
 565 100 l 1
 397 100 l 1
 397 132 l 1
 576 366 l 1
 620 366 l 1
 620 143 l 1
 665 143 l 1
 665 100 l 1
 620 100 l 1
 620 67 l 1
 621 43 l 2
 623 24 630 19 658 19 c 2
 662 19 l 1
 662 0 l 1
 520 0 l 1x7b
428 143 m 1
 565 143 l 1
 565 321 l 1
 428 143 l 1
84 374 m 1
 84 440 l 1
 113 440 l 1
 113 435 l 1
 114 421 l 1
 114 419 l 2
 114 394 134 381 172 381 c 0
 221 381 245 409 245 465 c 0x7a
 245 524 212 554 145 554 c 2
 117 554 l 1
 117 573 l 1
 136 573 l 2
 202 573 235 599 235 652 c 0
 235 699 214 722 171 722 c 0
 138 722 119 711 118 691 c 2
 116 669 l 1
 116 665 l 1
 86 665 l 1
 86 726 l 1
 118 736 148 741 180 741 c 0
 257 741 295 713 295 656 c 0x7c
 295 613 271 585 217 566 c 1
 280 550 307 520 307 468 c 0
 307 402 258 362 174 362 c 0
 142 362 114 366 84 374 c 1
EndSplineSet
EndChar
StartChar: questiondown
Encoding: 191 191 235
Width: 444
Flags: MW
HStem: -18 30<219 267> 510 20<212 309 309 309> 627 96<212 309 212 309>
VStem: 25 103<103.5 168> 212 97<488 521 521 530 488 530 627 723>
LayerCount: 2
Fore
SplineSet
309 723 m 1
 309 627 l 1
 212 627 l 1
 212 723 l 1
 309 723 l 1
309 530 m 1
 309 521 l 2
 309 455 285 397 239 352 c 2
 219 333 l 2
 160 275 128 209 128 145 c 0
 128 62 178 12 260 12 c 0
 326 12 362 38 365 86 c 2
 367 138 l 1
 368 148 l 1
 416 148 l 1
 416 15 l 1
 350 -8 295 -18 239 -18 c 0
 111 -18 25 45 25 140 c 0
 25 196 55 242 128 299 c 0
 140 308 155 321 159 325 c 2
 177 342 l 2
 200 364 212 404 212 463 c 2
 212 530 l 1
 309 530 l 1
EndSplineSet
EndChar
StartChar: Atilde
Encoding: 195 195 5
Width: 722
Flags: W
HStem: 0 20 222 40<188 464 188 481 172 464> 783 66<428 444.5> 832 66<279.5 295.5>
LayerCount: 2
Fore
SplineSet
0 0 m 1xd0
 0 30 l 1
 11 31 l 2
 47 33 51 36 68 75 c 2
 90 126 l 1
 345 732 l 1
 379 732 l 1
 632 123 l 1
 657 73 l 2
 670 46 688 32 711 31 c 2
 722 30 l 1
 722 0 l 1
 483 0 l 1
 483 30 l 1
 492 30 l 2
 528 30 543 37 543 51 c 0
 543 68 536 93 522 126 c 2
 481 222 l 1
 172 222 l 1
 130 126 l 2
 124 111 122 107 120 100 c 2
 109 66 l 2
 107 61 106 53 106 50 c 0
 106 37 121 30 151 30 c 2
 159 30 l 1
 159 0 l 1
 0 0 l 1xd0
188 262 m 1
 464 262 l 1
 327 592 l 1
 188 262 l 1
229 783 m 1
 199 783 l 1
 215 863 249 898 310 898 c 0x10
 331 898 351 891 368 879 c 2
 385 867 l 2
 401 856 420 849 436 849 c 0
 468 849 487 864 494 897 c 1
 524 897 l 1
 509 818 475 783 414 783 c 0x20
 393 783 374 789 356 802 c 2
 339 813 l 2
 321 826 304 832 287 832 c 0
 257 832 239 817 229 783 c 1
EndSplineSet
EndChar
StartChar: Aring
Encoding: 197 197 6
Width: 722
Flags: MW
HStem: 0 20 222 40<188 464 188 481 172 464> 723 33<339.5 383.5 339.5 392.5> 912 33<340.5 384>
VStem: 251 33<812.5 855.5 812.5 865> 440 33<812 856>
LayerCount: 2
Fore
SplineSet
0 0 m 1
 0 30 l 1
 11 31 l 2
 47 33 51 36 68 75 c 2
 90 126 l 1
 345 732 l 1
 379 732 l 1
 632 123 l 1
 657 73 l 2
 670 46 688 32 711 31 c 2
 722 30 l 1
 722 0 l 1
 483 0 l 1
 483 30 l 1
 492 30 l 2
 528 30 543 37 543 51 c 0
 543 68 536 93 522 126 c 2
 481 222 l 1
 172 222 l 1
 130 126 l 2
 124 111 122 107 120 100 c 2
 109 66 l 2
 107 61 106 53 106 50 c 0
 106 37 121 30 151 30 c 2
 159 30 l 1
 159 0 l 1
 0 0 l 1
188 262 m 1
 464 262 l 1
 327 592 l 1
 188 262 l 1
362 945 m 0
 424 945 473 896 473 834 c 0
 473 772 424 723 361 723 c 0
 300 723 251 772 251 834 c 0
 251 896 300 945 362 945 c 0
362 912 m 0
 319 912 284 877 284 834 c 0
 284 791 318 756 361 756 c 0
 406 756 440 790 440 834 c 0
 440 878 406 912 362 912 c 0
EndSplineSet
EndChar
StartChar: AE
Encoding: 198 198 159
Width: 889
Flags: MW
HStem: 0 20 222 40<222 459 222 459 196 459> 356 39<562 674 562 674> 684 39<562 695 562 562 695 745>
VStem: 459 103<126 222 222 222 262 356 395 654 654 654>
LayerCount: 2
Fore
SplineSet
0 0 m 1
 0 30 l 1
 8 31 l 2
 29 32 45 45 62 74 c 2
 94 126 l 1
 458 723 l 1
 838 723 l 1
 838 597 l 1
 784 597 l 1
 784 606 l 1
 781 647 l 2
 780 679 776 683 745 684 c 2
 695 684 l 1
 562 684 l 1
 562 395 l 1
 674 395 l 1
 704 396 l 2
 734 398 734 398 738 423 c 1
 737 427 l 2
 739 429 739 429 739 431 c 2
 739 438 l 1
 739 446 l 1
 740 455 l 1
 785 455 l 1
 785 295 l 1
 740 295 l 1
 739 304 l 2
 734 355 733 356 674 356 c 2
 562 356 l 1
 562 126 l 2
 562 52 572 42 645 42 c 2
 697 42 l 1
 766 45 l 2
 793 45 807 56 809 79 c 2
 810 123 l 1
 811 132 l 1
 865 132 l 1
 865 0 l 1
 369 0 l 1
 369 30 l 1
 377 31 l 1
 411 33 l 2
 449 36 453 41 456 78 c 2
 459 126 l 1
 459 222 l 1
 196 222 l 1
 137 126 l 2
 124 104 121 99 107 73 c 0
 103 67 100 62 98 58 c 0
 95 55 93 48 93 44 c 0
 93 36 105 32 129 32 c 2
 131 32 l 1
 160 31 l 1
 171 30 l 1
 171 0 l 1
 0 0 l 1
222 262 m 1
 459 262 l 1
 459 654 l 1
 222 262 l 1
EndSplineSet
EndChar
StartChar: Ccedilla
Encoding: 199 199 8
Width: 667
Flags: W
HStem: -211 36<361.5 368.5 345 400.5> -18 48<342.5 437.5> 0 20 708 33<317.5 420 276.5 439.5>
VStem: 39 111<261 472.5 261 482> 404 67<-148 -118.5>
LayerCount: 2
Fore
SplineSet
619 86 m 1xdc
 619 39 l 1
 548 -1 480 -18 395 -18 c 0
 175 -18 39 128 39 364 c 0
 39 600 168 741 385 741 c 0
 455 741 521 730 607 705 c 1
 607 567 l 1
 546 567 l 1
 546 576 l 1
 546 602 l 1
 546 605 l 2
 546 668 486 708 393 708 c 0
 242 708 150 579 150 366 c 0
 150 156 255 30 430 30 c 0
 490 30 546 46 619 86 c 1xdc
302 -201 m 1
 302 -167 l 1
 323 -173 338 -175 352 -175 c 0
 385 -175 404 -161 404 -135 c 0
 404 -102 377 -87 312 -85 c 1
 359 0 l 1
 397 0 l 1xac
 365 -58 l 1
 439 -64 471 -86 471 -130 c 0
 471 -176 429 -211 372 -211 c 0
 351 -211 327 -208 302 -201 c 1
EndSplineSet
EndChar
StartChar: Igrave
Encoding: 204 204 22
Width: 333
Flags: MW
HStem: 0 30<25 308 25 25> 693 30<25 308 25 308>
VStem: 115 103<126 597>
LayerCount: 2
Fore
SplineSet
115 126 m 2
 115 597 l 2
 115 628 111 664 107 673 c 0
 102 683 88 689 67 690 c 2
 34 692 l 1
 25 693 l 1
 25 723 l 1
 308 723 l 1
 308 693 l 1
 299 692 l 1
 266 690 l 2
 241 689 228 681 224 667 c 0
 221 652 218 622 218 597 c 2
 218 126 l 2
 218 95 222 60 226 51 c 0
 231 40 244 35 266 33 c 2
 299 31 l 1
 308 30 l 1
 308 0 l 1
 25 0 l 1
 25 30 l 1
 34 31 l 1
 67 33 l 2
 93 35 105 42 109 56 c 0
 112 72 115 100 115 126 c 2
263 783 m 1
 218 783 l 1
 19 940 l 1
 145 940 l 1
 263 783 l 1
EndSplineSet
EndChar
StartChar: Icircumflex
Encoding: 206 206 23
Width: 333
Flags: MW
HStem: 0 30<26 309 26 26> 693 30<26 309 26 309>
VStem: 116 103<126 597>
LayerCount: 2
Fore
SplineSet
116 126 m 2
 116 597 l 2
 116 628 112 664 108 673 c 0
 103 683 89 689 68 690 c 2
 35 692 l 1
 26 693 l 1
 26 723 l 1
 309 723 l 1
 309 693 l 1
 300 692 l 1
 267 690 l 2
 242 689 229 681 225 667 c 0
 222 652 219 622 219 597 c 2
 219 126 l 2
 219 95 223 60 227 51 c 0
 232 40 245 35 267 33 c 2
 300 31 l 1
 309 30 l 1
 309 0 l 1
 26 0 l 1
 26 30 l 1
 35 31 l 1
 68 33 l 2
 94 35 106 42 110 56 c 0
 113 72 116 100 116 126 c 2
-5 783 m 1
 113 940 l 1
 221 940 l 1
 338 783 l 1
 296 783 l 1
 167 892 l 1
 37 783 l 1
 -5 783 l 1
EndSplineSet
EndChar
StartChar: Ntilde
Encoding: 209 209 29
Width: 722
Flags: W
HStem: -10 20 0 30<21 248 21 21> 693 30<21 183> 783 66<436.5 452.5> 832 66<287.5 303.5>
VStem: 112 45<126 596> 566 44<162 596 -10 596>
LayerCount: 2
Fore
SplineSet
183 723 m 1x66
 566 162 l 1
 566 596 l 1
 563 645 l 2
 561 682 556 687 518 690 c 2
 485 692 l 1
 476 693 l 1
 476 723 l 1
 700 723 l 1
 700 693 l 1
 692 692 l 1
 658 690 l 2
 621 687 616 683 613 645 c 2
 610 596 l 1
 610 -10 l 1
 576 -10 l 1xae
 157 596 l 1
 157 126 l 2
 157 96 161 61 166 51 c 0
 171 40 183 35 205 33 c 2
 239 31 l 1
 248 30 l 1
 248 0 l 1
 21 0 l 1
 21 30 l 1
 30 31 l 1
 64 33 l 2
 89 35 102 42 105 56 c 0
 109 73 112 100 112 126 c 2
 112 597 l 2
 112 628 108 663 103 673 c 0
 98 683 84 689 64 690 c 2
 30 692 l 1
 21 693 l 1
 21 723 l 1
 183 723 l 1x66
238 783 m 1
 208 783 l 1
 223 862 257 898 318 898 c 0x0e
 339 898 359 892 376 879 c 2
 393 867 l 2
 409 856 428 849 445 849 c 0
 477 849 495 864 502 897 c 1
 533 897 l 1
 517 818 483 783 422 783 c 0x16
 401 783 383 789 364 802 c 2
 347 814 l 2
 329 826 312 832 295 832 c 0
 265 832 248 817 238 783 c 1
EndSplineSet
EndChar
StartChar: Ocircumflex
Encoding: 212 212 33
Width: 722
Flags: MW
HStem: -18 33<294 426 294 458.5> 708 33<295 427>
VStem: 39 111<254 470 254 479.5> 572 111<253.5 470.5>
LayerCount: 2
Fore
SplineSet
361 741 m 0
 561 741 683 597 683 362 c 0
 683 124 561 -18 356 -18 c 0
 161 -18 39 129 39 362 c 0
 39 597 162 741 361 741 c 0
361 708 m 0
 229 708 150 578 150 362 c 0
 150 146 229 15 359 15 c 0
 493 15 572 144 572 363 c 0
 572 578 493 708 361 708 c 0
189 783 m 1
 307 940 l 1
 415 940 l 1
 533 783 l 1
 491 783 l 1
 361 892 l 1
 231 783 l 1
 189 783 l 1
EndSplineSet
EndChar
StartChar: Otilde
Encoding: 213 213 34
Width: 722
Flags: W
HStem: -18 33<294 426 294 458.5> 708 33<295 427> 783 66<427 443> 832 66<278.5 294.5>
VStem: 39 111<254 470 254 479.5> 572 111<253.5 470.5>
LayerCount: 2
Fore
SplineSet
361 741 m 0xdc
 561 741 683 597 683 362 c 0
 683 124 561 -18 356 -18 c 0
 161 -18 39 129 39 362 c 0
 39 597 162 741 361 741 c 0xdc
361 708 m 0
 229 708 150 578 150 362 c 0
 150 146 229 15 359 15 c 0
 493 15 572 144 572 363 c 0
 572 578 493 708 361 708 c 0
228 783 m 1
 198 783 l 1
 213 862 248 898 309 898 c 0x1c
 330 898 350 891 367 879 c 2
 384 867 l 2
 400 856 419 849 435 849 c 0
 467 849 486 864 493 897 c 1
 523 897 l 1
 508 818 473 783 413 783 c 0x2c
 392 783 374 789 355 802 c 2
 338 813 l 2
 320 826 303 832 286 832 c 0
 256 832 238 817 228 783 c 1
EndSplineSet
EndChar
StartChar: Odieresis
Encoding: 214 214 30
Width: 722
Flags: MW
HStem: -18 33<294 426 294 458.5> 708 33<295 427> 784 84<222 306 222 306 415 499>
VStem: 39 111<254 470 254 479.5> 222 84<784 868 784 868> 415 84<784 868 784 868> 572 111<253.5 470.5>
LayerCount: 2
Fore
SplineSet
361 741 m 0
 561 741 683 597 683 362 c 0
 683 124 561 -18 356 -18 c 0
 161 -18 39 129 39 362 c 0
 39 597 162 741 361 741 c 0
361 708 m 0
 229 708 150 578 150 362 c 0
 150 146 229 15 359 15 c 0
 493 15 572 144 572 363 c 0
 572 578 493 708 361 708 c 0
222 784 m 1
 222 868 l 1
 306 868 l 1
 306 784 l 1
 222 784 l 1
415 784 m 1
 415 868 l 1
 499 868 l 1
 499 784 l 1
 415 784 l 1
EndSplineSet
EndChar
StartChar: multiply
Encoding: 215 215 261
Width: 564
Flags: MW
HStem: 510 20<75 75 489 489>
LayerCount: 2
Fore
SplineSet
41 82 m 1
 248 289 l 1
 41 496 l 1
 75 530 l 1
 282 323 l 1
 489 530 l 1
 523 496 l 1
 316 289 l 1
 523 82 l 1
 489 48 l 1
 282 255 l 1
 75 48 l 1
 41 82 l 1
EndSplineSet
EndChar
StartChar: Oslash
Encoding: 216 216 161
Width: 722
Flags: MW
HStem: -18 33<326 427 326 460.5> 708 33<294.5 395.5>
VStem: 39 111<322.5 470.5 322.5 479.5> 572 111<253 401>
LayerCount: 2
Fore
SplineSet
39 -18 m 1
 123 88 l 1
 64 166 39 248 39 362 c 0
 39 597 161 741 361 741 c 0
 448 741 512 717 575 660 c 1
 639 741 l 1
 683 741 l 1
 599 634 l 1
 658 557 683 475 683 361 c 0
 683 126 560 -18 361 -18 c 0
 274 -18 211 5 149 61 c 1
 87 -18 l 1
 39 -18 l 1
540 560 m 1
 199 124 l 1
 242 48 291 15 361 15 c 0
 493 15 572 145 572 361 c 0
 572 441 563 500 540 560 c 1
181 162 m 1
 524 596 l 1
 481 674 431 708 360 708 c 0
 229 708 150 578 150 363 c 0
 150 282 159 221 181 162 c 1
EndSplineSet
EndChar
StartChar: Uacute
Encoding: 218 218 43
Width: 722
Flags: MW
HStem: -18 33<341.5 421 341.5 421> 693 30<9 293 9 293>
VStem: 99 104<271 287 287 596> 569 51<266 294 294 597>
LayerCount: 2
Fore
SplineSet
293 723 m 1
 293 693 l 1
 284 692 l 1
 251 690 l 2
 214 687 209 682 206 645 c 2
 203 596 l 1
 203 287 l 2
 203 170 206 137 219 108 c 0
 247 47 303 15 380 15 c 0
 462 15 528 54 554 117 c 0
 565 144 569 185 569 266 c 2
 569 597 l 2
 569 628 565 663 560 673 c 0
 555 683 542 689 521 690 c 2
 488 692 l 1
 479 693 l 1
 479 723 l 1
 710 723 l 1
 710 693 l 1
 701 692 l 1
 668 690 l 2
 643 689 630 681 626 667 c 0
 623 652 620 622 620 597 c 2
 620 294 l 2
 620 190 613 142 592 101 c 0
 551 21 476 -18 366 -18 c 0
 188 -18 99 79 99 271 c 2
 99 597 l 2
 99 628 95 664 91 673 c 0
 86 683 72 689 51 690 c 2
 18 692 l 1
 9 693 l 1
 9 723 l 1
 293 723 l 1
317 783 m 1
 435 940 l 1
 561 940 l 1
 363 783 l 1
 317 783 l 1
EndSplineSet
EndChar
StartChar: Thorn
Encoding: 222 222 165
Width: 556
Flags: MW
HStem: 0 30<21 304 21 21> 693 30<21 304 21 304>
VStem: 111 103<126 154 187 542 575 597> 418 108<322.5 440.5>
LayerCount: 2
Fore
SplineSet
214 575 m 1
 265 576 l 1
 276 576 l 2
 450 576 526 518 526 386 c 0
 526 232 422 154 216 154 c 2
 214 154 l 1
 214 126 l 2
 214 95 218 60 222 51 c 0
 227 40 240 35 262 33 c 2
 295 31 l 1
 304 30 l 1
 304 0 l 1
 21 0 l 1
 21 30 l 1
 30 31 l 1
 63 33 l 2
 89 35 101 42 105 56 c 0
 108 72 111 100 111 126 c 2
 111 597 l 2
 111 628 107 664 103 673 c 0
 98 683 84 689 63 690 c 2
 30 692 l 1
 21 693 l 1
 21 723 l 1
 304 723 l 1
 304 693 l 1
 295 692 l 1
 262 690 l 2
 237 689 224 681 220 667 c 0
 217 652 214 622 214 597 c 2
 214 575 l 1
214 187 m 1
 222 187 l 2
 347 187 418 259 418 386 c 0
 418 495 365 542 241 542 c 2
 214 542 l 1
 214 187 l 1
EndSplineSet
EndChar
StartChar: germandbls
Encoding: 223 223 195
Width: 500
Flags: W
HStem: -12 30<334.5 365 334.5 383> 0 20 753 30<212.5 264.5>
VStem: 72 96<126 543 543 594 126 630.5> 314 90<645 675.5> 407 78<96 117.5>
LayerCount: 2
Fore
SplineSet
259 2 m 1xbc
 259 111 l 1
 301 111 l 1
 302 103 l 1
 304 68 l 2
 306 35 321 18 348 18 c 0x9c
 382 18 407 53 407 100 c 0
 407 135 388 175 348 220 c 2
 292 284 l 2
 244 339 220 380 220 408 c 0
 220 432 234 462 261 497 c 2
 275 513 l 2
 301 547 314 587 314 637 c 0
 314 714 289 753 240 753 c 0
 185 753 168 716 168 594 c 2
 168 126 l 1
 170 78 l 2
 171 40 177 34 214 31 c 2
 223 30 l 1
 223 0 l 1
 13 0 l 1x7c
 13 30 l 1
 22 31 l 2
 65 34 70 39 71 78 c 2
 72 126 l 1
 72 543 l 2
 72 718 118 783 243 783 c 0
 341 783 404 736 404 663 c 0
 404 627 385 591 339 541 c 2
 321 521 l 1
 304 505 l 2
 291 491 283 474 283 458 c 0
 283 440 293 419 314 396 c 2
 343 364 l 1
 392 308 l 2
 471 218 485 192 485 138 c 0
 485 54 423 -12 343 -12 c 0
 324 -12 298 -8 259 2 c 1xbc
EndSplineSet
EndChar
StartChar: acircumflex
Encoding: 226 226 69
Width: 444
Flags: W
HStem: -12 58<188 197> 0 36<439 442> 505 37<202.5 246>
VStem: 37 104<118 193.5> 286 96<100.5 147 147 283 283 283 313 379 379 383>
LayerCount: 2
Fore
SplineSet
439 36 m 1
 442 0 l 1x58
 415 -9 400 -12 387 -12 c 0
 345 -12 321 14 308 73 c 1
 269 14 226 -12 168 -12 c 0x98
 88 -12 37 44 37 134 c 0
 37 253 114 313 266 313 c 2
 286 313 l 1
 286 379 l 2
 286 483 274 505 218 505 c 0
 164 505 144 483 144 421 c 2
 144 412 l 1
 77 412 l 1
 77 497 l 1
 128 529 174 542 231 542 c 0
 340 542 382 497 382 383 c 2
 382 147 l 2
 382 54 388 32 414 32 c 0x78
 419 32 429 33 439 36 c 1
286 83 m 1x98
 286 283 l 1
 263 283 l 2
 182 283 141 240 141 153 c 0
 141 83 165 46 211 46 c 0
 236 46 258 57 286 83 c 1x98
60 626 m 1
 178 783 l 1
 286 783 l 1
 403 626 l 1
 361 626 l 1
 232 735 l 1
 102 626 l 1
 60 626 l 1
EndSplineSet
EndChar
StartChar: aring
Encoding: 229 229 72
Width: 444
Flags: W
HStem: -12 58<188 197> 0 36<439 442> 505 37<202.5 246> 626 33<210 253.5 210 262.5> 815 33<210.5 254>
VStem: 37 33 37 104<118 193.5> 226 33 286 96<100.5 147 147 283 283 283 313 379 379 383>
LayerCount: 2
Fore
SplineSet
439 36 m 1
 442 0 l 1x4280
 415 -9 400 -12 387 -12 c 0
 345 -12 321 14 308 73 c 1
 269 14 226 -12 168 -12 c 0x8280
 88 -12 37 44 37 134 c 0
 37 253 114 313 266 313 c 2
 286 313 l 1
 286 379 l 2
 286 483 274 505 218 505 c 0
 164 505 144 483 144 421 c 2
 144 412 l 1
 77 412 l 1
 77 497 l 1
 128 529 174 542 231 542 c 0
 340 542 382 497 382 383 c 2
 382 147 l 2
 382 54 388 32 414 32 c 0x6280
 419 32 429 33 439 36 c 1
286 83 m 1x8280
 286 283 l 1
 263 283 l 2
 182 283 141 240 141 153 c 0
 141 83 165 46 211 46 c 0
 236 46 258 57 286 83 c 1x8280
232 848 m 0
 294 848 343 799 343 737 c 0
 343 675 294 626 231 626 c 0
 170 626 121 675 121 737 c 0x1d
 121 799 170 848 232 848 c 0
232 815 m 0
 189 815 154 780 154 737 c 0
 154 694 189 659 231 659 c 0
 276 659 310 693 310 737 c 0
 310 781 276 815 232 815 c 0
EndSplineSet
EndChar
StartChar: ae
Encoding: 230 230 192
Width: 667
Flags: W
HStem: -12 49<496 525> -12 58<188 203> 286 30<382 535 382 637 382 535> 505 37<202 246> 509 33<455 494.5>
VStem: 37 104<118 193.5>
LayerCount: 2
Fore
SplineSet
637 73 m 1xac
 637 24 l 1
 587 -1 547 -12 503 -12 c 0x84
 428 -12 372 18 317 88 c 1
 270 11 236 -12 170 -12 c 0
 88 -12 37 43 37 134 c 0
 37 253 113 313 265 313 c 2
 285 313 l 1
 285 379 l 2
 285 484 274 505 218 505 c 0
 163 505 143 482 143 421 c 2
 143 412 l 1
 77 412 l 1
 77 497 l 1
 128 528 174 542 230 542 c 0x54
 288 542 327 527 358 492 c 1
 397 527 433 542 477 542 c 0
 583 542 637 459 637 295 c 2
 637 286 l 1
 382 286 l 1
 383 201 391 155 410 114 c 0
 433 63 470 37 522 37 c 0
 553 37 587 48 637 73 c 1xac
285 83 m 1x6c
 285 283 l 1
 263 283 l 2
 181 283 141 240 141 153 c 0
 141 83 165 46 211 46 c 0
 235 46 257 57 285 83 c 1x6c
382 316 m 1
 535 316 l 1
 535 337 l 2
 535 466 519 509 470 509 c 0
 411 509 384 450 382 316 c 1
EndSplineSet
EndChar
StartChar: ccedilla
Encoding: 231 231 76
Width: 444
Flags: MW
HStem: -211 36<238 245 221.5 277.5> -12 48<255 298.5> 0 20 509 33<231.5 294 200 299>
VStem: 33 105<205 350.5 205 351.5> 135 67
LayerCount: 2
Fore
SplineSet
414 60 m 1
 414 18 l 1
 362 -3 320 -12 277 -12 c 0
 134 -12 33 104 33 269 c 0
 33 434 128 542 272 542 c 0
 316 542 361 534 414 518 c 1
 414 391 l 1
 353 391 l 1
 353 400 l 2
 353 472 326 509 272 509 c 0
 191 509 138 419 138 282 c 0
 138 128 202 36 308 36 c 0x58
 335 36 367 43 414 60 c 1
179 -201 m 1
 179 -167 l 1
 200 -173 215 -175 228 -175 c 0
 262 -175 281 -161 281 -135 c 0
 281 -102 254 -87 189 -85 c 1
 236 0 l 1
 274 0 l 1
 242 -58 l 1
 316 -64 348 -86 348 -130 c 0
 348 -176 306 -211 249 -211 c 0xa4
 227 -211 204 -208 179 -201 c 1
EndSplineSet
EndChar
StartChar: ecircumflex
Encoding: 234 234 81
Width: 444
Flags: MW
HStem: -12 49<262.5 288> 286 30<138 311 138 414 138 311> 509 33<207 264.5>
LayerCount: 2
Fore
SplineSet
414 73 m 1
 414 24 l 1
 356 -1 312 -12 264 -12 c 0
 120 -12 33 91 33 262 c 0
 33 432 115 542 242 542 c 0
 360 542 414 464 414 295 c 2
 414 286 l 1
 138 286 l 1
 140 203 147 162 166 120 c 0
 191 64 232 37 293 37 c 0xe0
 333 37 371 48 414 73 c 1
138 316 m 1
 311 316 l 1
 312 337 l 1
 312 348 l 2
 312 466 292 509 237 509 c 0
 177 509 140 436 138 316 c 1
69 626 m 1
 187 783 l 1
 295 783 l 1
 412 626 l 1
 370 626 l 1
 241 735 l 1
 111 626 l 1
 69 626 l 1
EndSplineSet
EndChar
StartChar: edieresis
Encoding: 235 235 78
Width: 444
Flags: MW
HStem: -12 49<262.5 288> 286 30<138 311 138 414 138 311> 509 33<207 264.5> 627 84<102 186 102 186 295 379>
VStem: 33 84 226 84
LayerCount: 2
Fore
SplineSet
414 73 m 1
 414 24 l 1
 356 -1 312 -12 264 -12 c 0
 120 -12 33 91 33 262 c 0
 33 432 115 542 242 542 c 0
 360 542 414 464 414 295 c 2
 414 286 l 1
 138 286 l 1
 140 203 147 162 166 120 c 0
 191 64 232 37 293 37 c 0xe0
 333 37 371 48 414 73 c 1
138 316 m 1
 311 316 l 1
 312 337 l 1
 312 348 l 2
 312 466 292 509 237 509 c 0
 177 509 140 436 138 316 c 1
102 627 m 1
 102 711 l 1
 186 711 l 1
 186 627 l 1x1c
 102 627 l 1
295 627 m 1
 295 711 l 1
 379 711 l 1
 379 627 l 1
 295 627 l 1
EndSplineSet
EndChar
StartChar: idieresis
Encoding: 239 239 86
Width: 278
Flags: MW
HStem: 0 20 510 20<22 189 189 189> 627 84<3 87 3 87 196 280>
VStem: 3 84<627 711 627 711> 93 96<126 404 404 404> 196 84<627 711 627 711>
LayerCount: 2
Fore
SplineSet
260 30 m 1
 260 0 l 1
 22 0 l 1
 22 30 l 1
 31 31 l 2
 68 33 85 37 87 43 c 0
 90 49 92 59 92 78 c 2
 93 126 l 1
 93 404 l 1
 92 451 l 2
 92 477 89 489 81 492 c 0
 76 495 56 498 31 499 c 2
 22 500 l 1
 22 530 l 1
 189 530 l 1
 189 126 l 1
 190 78 l 2
 190 52 193 41 201 38 c 0
 208 35 226 32 251 31 c 2
 260 30 l 1
3 627 m 1
 3 711 l 1
 87 711 l 1
 87 627 l 1
 3 627 l 1
196 627 m 1
 196 711 l 1
 280 711 l 1
 280 627 l 1
 196 627 l 1
EndSplineSet
EndChar
StartChar: eth
Encoding: 240 240 201
Width: 500
Flags: MW
HStem: -12 33<215 284 215 318.5> 497 33<214.5 252 180.5 284>
VStem: 30 105<187 330.5 187 340.5> 364 105<192 329.5>
LayerCount: 2
Fore
SplineSet
353 749 m 1
 257 685 l 1
 329 633 364 597 400 541 c 0
 446 468 469 383 469 286 c 0
 469 98 388 -12 249 -12 c 0
 116 -12 30 94 30 259 c 0
 30 422 116 530 245 530 c 0
 259 530 273 529 291 526 c 1
 270 560 237 600 195 643 c 1
 52 546 l 1
 34 572 l 1
 171 662 l 1
 119 707 66 731 8 736 c 1
 8 771 l 1
 89 771 164 749 234 705 c 1
 336 774 l 1
 353 749 l 1
249 497 m 0
 180 497 135 402 135 259 c 0
 135 115 180 21 250 21 c 0
 318 21 364 115 364 256 c 0
 364 403 319 497 249 497 c 0
EndSplineSet
EndChar
StartChar: ntilde
Encoding: 241 241 94
Width: 500
Flags: W
HStem: 0 30<18 18 18 234> 479 63<296.5 306.5> 510 20<18 174 174 174> 627 66<317.5 333.5> 676 66<169.5 184.5>
VStem: 77 97<126 404 404 404> 342 96<126 358 358 358>
LayerCount: 2
Fore
SplineSet
18 0 m 1
 18 30 l 1
 27 31 l 2
 70 34 75 39 76 78 c 2
 77 126 l 1
 77 404 l 1
 76 451 l 2
 75 490 70 495 27 499 c 2
 18 500 l 1
 18 530 l 1
 174 530 l 1xa6
 174 443 l 1
 224 513 267 542 326 542 c 0
 406 542 438 495 438 373 c 2
 438 126 l 1
 439 78 l 2
 440 39 445 34 488 31 c 2
 497 30 l 1
 497 0 l 1
 283 0 l 1
 283 30 l 1
 292 31 l 2
 335 34 340 39 341 78 c 2
 342 126 l 1
 342 358 l 1
 341 396 l 2
 338 456 324 479 289 479 c 0
 250 479 215 458 174 410 c 1
 174 126 l 1
 175 78 l 2
 175 39 181 34 224 31 c 2
 234 30 l 1
 234 0 l 1xc6
 18 0 l 1
119 627 m 1
 89 627 l 1
 104 706 139 742 200 742 c 0x08
 220 742 240 736 257 723 c 2
 275 711 l 2
 290 700 309 693 326 693 c 0
 358 693 376 708 384 741 c 1
 414 741 l 1
 398 662 364 627 303 627 c 0x10
 283 627 263 633 246 645 c 2
 229 657 l 2
 210 670 193 676 176 676 c 0x08
 147 676 129 661 119 627 c 1
EndSplineSet
EndChar
StartChar: oacute
Encoding: 243 243 96
Width: 500
Flags: MW
HStem: -12 33<213.5 286.5 213.5 316.5> 509 33<214.5 285>
VStem: 30 105<183.5 339 183.5 350.5> 365 105<191.5 340.5>
LayerCount: 2
Fore
SplineSet
250 542 m 0
 386 542 470 436 470 266 c 0
 470 93 386 -12 247 -12 c 0
 114 -12 30 96 30 265 c 0xf0
 30 436 114 542 250 542 c 0
250 509 m 0
 179 509 135 415 135 263 c 0
 135 104 175 21 252 21 c 0
 321 21 365 117 365 266 c 0
 365 415 320 509 250 509 c 0
169 626 m 1
 287 783 l 1
 413 783 l 1
 214 626 l 1
 169 626 l 1
EndSplineSet
EndChar
StartChar: otilde
Encoding: 245 245 99
Width: 500
Flags: W
HStem: -12 33<213.5 286.5 213.5 316.5> 509 33<214.5 285> 627 66<315.5 331.5> 676 66<167.5 182.5>
VStem: 30 105<183.5 339 183.5 350.5> 365 105<191.5 340.5>
LayerCount: 2
Fore
SplineSet
250 542 m 0
 386 542 470 436 470 266 c 0
 470 93 386 -12 247 -12 c 0
 114 -12 30 96 30 265 c 0xcc
 30 436 114 542 250 542 c 0
250 509 m 0
 179 509 135 415 135 263 c 0
 135 104 175 21 252 21 c 0
 321 21 365 117 365 266 c 0
 365 415 320 509 250 509 c 0
117 627 m 1
 87 627 l 1
 102 706 137 742 198 742 c 0x10
 218 742 238 736 255 723 c 2
 273 711 l 2
 288 700 307 693 324 693 c 0
 356 693 374 708 382 741 c 1
 412 741 l 1
 396 662 362 627 301 627 c 0x20
 281 627 261 633 244 645 c 2
 227 657 l 2
 208 670 191 676 174 676 c 0x10
 145 676 127 661 117 627 c 1
EndSplineSet
EndChar
StartChar: odieresis
Encoding: 246 246 95
Width: 500
Flags: MW
HStem: -12 33<213.5 286.5 213.5 316.5> 509 33<214.5 285> 627 84<112 196 112 196 305 389>
VStem: 30 84 30 105<183.5 339 183.5 350.5> 223 84 365 105<191.5 340.5>
LayerCount: 2
Fore
SplineSet
250 542 m 0
 386 542 470 436 470 266 c 0
 470 93 386 -12 247 -12 c 0
 114 -12 30 96 30 265 c 0xca
 30 436 114 542 250 542 c 0
250 509 m 0
 179 509 135 415 135 263 c 0
 135 104 175 21 252 21 c 0
 321 21 365 117 365 266 c 0
 365 415 320 509 250 509 c 0
112 627 m 1
 112 711 l 1
 196 711 l 1
 196 627 l 1x34
 112 627 l 1
305 627 m 1
 305 711 l 1
 389 711 l 1
 389 627 l 1
 305 627 l 1
EndSplineSet
EndChar
StartChar: divide
Encoding: 247 247 262
Width: 564
Flags: MW
HStem: 48 96<234 330 234 330> 265 48<41 523 41 523> 433 97<234 330 234 330>
VStem: 234 96<48 144 48 144 433 530>
LayerCount: 2
Fore
SplineSet
234 48 m 1
 234 144 l 1
 330 144 l 1
 330 48 l 1
 234 48 l 1
41 265 m 1
 41 313 l 1
 523 313 l 1
 523 265 l 1
 41 265 l 1
234 433 m 1
 234 530 l 1
 330 530 l 1
 330 433 l 1
 234 433 l 1
EndSplineSet
EndChar
StartChar: oslash
Encoding: 248 248 194
Width: 500
Flags: MW
HStem: -12 33<228.5 285.5 228.5 317.5> 509 33<215 271.5>
VStem: 30 105<248.5 341 248.5 351> 365 105<189.5 281.5>
LayerCount: 2
Fore
SplineSet
30 -12 m 1
 86 67 l 1
 47 126 30 186 30 266 c 0
 30 436 114 542 249 542 c 0
 306 542 348 527 388 492 c 1
 423 542 l 1
 470 542 l 1
 413 463 l 1
 453 404 470 345 470 263 c 0
 470 94 385 -12 250 -12 c 0
 194 -12 152 3 112 38 c 1
 77 -12 l 1
 30 -12 l 1
147 152 m 1
 341 426 l 1
 320 484 293 509 250 509 c 0
 180 509 135 415 135 267 c 0
 135 230 138 198 147 152 c 1
353 377 m 1
 159 104 l 1
 179 46 207 21 250 21 c 0
 321 21 365 115 365 264 c 0
 365 299 362 333 353 377 c 1
EndSplineSet
EndChar
StartChar: ugrave
Encoding: 249 249 108
Width: 500
Flags: W
HStem: -12 63<197.5 207.5> 0 20 510 20<6 162 162 162 271 426 426 426>
VStem: 65 97<172 404 404 404> 330 96<0 530 87 530 126 404 404 404>
LayerCount: 2
Fore
SplineSet
330 0 m 1
 330 87 l 1
 281 17 237 -12 178 -12 c 0
 97 -12 65 36 65 157 c 2
 65 404 l 1
 64 451 l 2
 63 490 58 495 15 499 c 2
 6 500 l 1
 6 530 l 1
 162 530 l 1
 162 172 l 1
 163 134 l 2
 165 75 180 51 215 51 c 0xb8
 254 51 289 72 330 120 c 1
 330 404 l 1
 329 451 l 2
 328 490 323 495 280 499 c 2
 271 500 l 1
 271 530 l 1
 426 530 l 1
 426 126 l 1
 427 78 l 2
 428 39 433 34 476 31 c 2
 485 30 l 1
 485 0 l 1x78
 330 0 l 1
327 626 m 1
 282 626 l 1
 83 783 l 1
 209 783 l 1
 327 626 l 1
EndSplineSet
EndChar
StartChar: yacute
Encoding: 253 253 112
Width: 500
Flags: MW
HStem: 0 20 510 20<0 213 213 213 359 500 500 500>
LayerCount: 2
Fore
SplineSet
238 0 m 1
 76 400 l 2
 51 464 27 498 8 499 c 2
 0 500 l 1
 0 530 l 1
 213 530 l 1
 213 500 l 1
 204 500 l 1
 190 499 l 2
 163 498 151 492 151 479 c 0
 151 474 157 457 166 435 c 2
 181 399 l 1
 289 133 l 1
 388 399 l 1
 400 431 l 2
 413 464 416 473 416 479 c 0
 416 493 400 500 370 500 c 2
 359 500 l 1
 359 530 l 1
 500 530 l 1
 500 500 l 1
 492 499 l 2
 472 498 456 482 445 454 c 2
 423 399 l 1
 201 -193 l 1
 79 -193 l 1xc0
 238 0 l 1
195 626 m 1
 313 783 l 1
 439 783 l 1
 240 626 l 1
 195 626 l 1
EndSplineSet
EndChar
StartChar: thorn
Encoding: 254 254 202
Width: 500
Flags: W
HStem: -12 39<232.5 264 210.5 314.5> 0 20 480 62<269.5 297>
VStem: 363 104<189.5 333>
LayerCount: 2
Fore
SplineSet
0 -193 m 1x50
 0 -163 l 1
 9 -162 l 2
 52 -159 57 -154 58 -114 c 2
 59 -66 l 1
 58 696 l 2
 57 731 51 737 9 740 c 2
 0 741 l 1
 0 771 l 1
 155 771 l 1
 155 443 l 1
 200 513 241 542 298 542 c 0
 403 542 467 443 467 281 c 0
 467 98 384 -12 245 -12 c 0xb0
 220 -12 194 -9 155 0 c 1
 155 -66 l 1
 156 -115 l 2
 157 -154 162 -159 205 -162 c 2
 214 -163 l 1
 214 -193 l 1
 0 -193 l 1x50
155 408 m 1
 155 38 l 1
 182 30 202 27 219 27 c 0
 309 27 363 115 363 262 c 0
 363 404 329 480 265 480 c 0
 233 480 201 459 155 408 c 1
EndSplineSet
EndChar
StartChar: ydieresis
Encoding: 255 255 116
Width: 500
Flags: MW
HStem: 0 20 510 20<0 213 213 213 359 500 500 500> 627 84<150 234 150 234 343 427>
VStem: 0 84 193 84
LayerCount: 2
Fore
SplineSet
238 0 m 1
 76 400 l 2
 51 464 27 498 8 499 c 2
 0 500 l 1
 0 530 l 1
 213 530 l 1
 213 500 l 1
 204 500 l 1
 190 499 l 2
 163 498 151 492 151 479 c 0
 151 474 157 457 166 435 c 2
 181 399 l 1
 289 133 l 1
 388 399 l 1
 400 431 l 2
 413 464 416 473 416 479 c 0
 416 493 400 500 370 500 c 2
 359 500 l 1
 359 530 l 1
 500 530 l 1
 500 500 l 1
 492 499 l 2
 472 498 456 482 445 454 c 2
 423 399 l 1
 201 -193 l 1
 79 -193 l 1xc0
 238 0 l 1
150 627 m 1
 150 711 l 1
 234 711 l 1
 234 627 l 1x38
 150 627 l 1
343 627 m 1
 343 711 l 1
 427 711 l 1
 427 627 l 1
 343 627 l 1
EndSplineSet
EndChar
StartChar: amacron
Encoding: 318 257 118
Width: 444
Flags: W
HStem: -12 58<188 197> 0 36<439 442> 505 37<202.5 246> 627 60<69 382 69 382>
VStem: 37 104<118 193.5> 286 96<100.5 147 147 283 283 283 313 379 379 383>
LayerCount: 2
Fore
SplineSet
439 36 m 1
 442 0 l 1x4c
 415 -9 400 -12 387 -12 c 0
 345 -12 321 14 308 73 c 1
 269 14 226 -12 168 -12 c 0x8c
 88 -12 37 44 37 134 c 0
 37 253 114 313 266 313 c 2
 286 313 l 1
 286 379 l 2
 286 483 274 505 218 505 c 0
 164 505 144 483 144 421 c 2
 144 412 l 1
 77 412 l 1
 77 497 l 1
 128 529 174 542 231 542 c 0
 340 542 382 497 382 383 c 2
 382 147 l 2
 382 54 388 32 414 32 c 0x6c
 419 32 429 33 439 36 c 1
286 83 m 1x8c
 286 283 l 1
 263 283 l 2
 182 283 141 240 141 153 c 0
 141 83 165 46 211 46 c 0
 236 46 258 57 286 83 c 1x8c
69 627 m 1
 69 687 l 1
 382 687 l 1
 382 627 l 1x10
 69 627 l 1
EndSplineSet
EndChar
StartChar: Abreve
Encoding: 256 258 4
Width: 722
Flags: MW
HStem: 0 20 222 40<188 464 188 481 172 464> 783 69<325.5 398.5 325.5 406>
LayerCount: 2
Fore
SplineSet
0 0 m 1
 0 30 l 1
 11 31 l 2
 47 33 51 36 68 75 c 2
 90 126 l 1
 345 732 l 1
 379 732 l 1
 632 123 l 1
 657 73 l 2
 670 46 688 32 711 31 c 2
 722 30 l 1
 722 0 l 1
 483 0 l 1
 483 30 l 1
 492 30 l 2
 528 30 543 37 543 51 c 0
 543 68 536 93 522 126 c 2
 481 222 l 1
 172 222 l 1
 130 126 l 2
 124 111 122 107 120 100 c 2
 109 66 l 2
 107 61 106 53 106 50 c 0
 106 37 121 30 151 30 c 2
 159 30 l 1
 159 0 l 1
 0 0 l 1
188 262 m 1
 464 262 l 1
 327 592 l 1
 188 262 l 1
199 940 m 1
 231 940 l 1
 249 879 289 852 362 852 c 0
 435 852 475 879 493 940 c 1
 524 940 l 1
 511 841 450 783 362 783 c 0
 274 783 214 841 199 940 c 1
EndSplineSet
EndChar
StartChar: Aogonek
Encoding: 257 260 7
Width: 722
Flags: MW
HStem: -181 40<639.5 650.5> 0 20 222 40<188 464 188 481 172 464> 712 20<345 379 379 379>
VStem: 530 66<-106.5 -82.5>
LayerCount: 2
Fore
SplineSet
0 0 m 1
 0 30 l 1
 11 31 l 2
 47 33 51 36 68 75 c 2
 90 126 l 1
 345 732 l 1
 379 732 l 1
 632 123 l 1
 657 73 l 2
 670 46 688 32 711 31 c 2
 722 30 l 1
 722 0 l 1
 483 0 l 1
 483 30 l 1
 492 30 l 2
 528 30 543 37 543 51 c 0
 543 68 536 93 522 126 c 2
 481 222 l 1
 172 222 l 1
 130 126 l 2
 124 111 122 107 120 100 c 2
 109 66 l 2
 107 61 106 53 106 50 c 0
 106 37 121 30 151 30 c 2
 159 30 l 1
 159 0 l 1
 0 0 l 1
188 262 m 1
 464 262 l 1
 327 592 l 1
 188 262 l 1
710 -133 m 1
 710 -167 l 1
 685 -177 664 -181 637 -181 c 0
 567 -181 530 -154 530 -103 c 0
 530 -62 553 -31 607 0 c 1
 659 0 l 1
 615 -28 596 -54 596 -89 c 0
 596 -124 618 -141 661 -141 c 0
 678 -141 693 -139 710 -133 c 1
EndSplineSet
EndChar
StartChar: aogonek
Encoding: 295 261 73
Width: 444
Flags: W
HStem: -181 40<377.5 388.5> -12 58<188 197> 0 20 0 36<439 442> 505 37<202.5 246>
VStem: 37 66 37 104<118 193.5> 286 96<100.5 147 147 283 283 283 313 379 379 383>
LayerCount: 2
Fore
SplineSet
439 36 m 1
 442 0 l 1x13
 415 -9 400 -12 387 -12 c 0
 345 -12 321 14 308 73 c 1
 269 14 226 -12 168 -12 c 0x43
 88 -12 37 44 37 134 c 0
 37 253 114 313 266 313 c 2
 286 313 l 1
 286 379 l 2
 286 483 274 505 218 505 c 0
 164 505 144 483 144 421 c 2
 144 412 l 1
 77 412 l 1
 77 497 l 1
 128 529 174 542 231 542 c 0
 340 542 382 497 382 383 c 2
 382 147 l 2
 382 54 388 32 414 32 c 0x1b
 419 32 429 33 439 36 c 1
286 83 m 1x43
 286 283 l 1
 263 283 l 2
 182 283 141 240 141 153 c 0
 141 83 165 46 211 46 c 0
 236 46 258 57 286 83 c 1x43
448 -133 m 1
 448 -167 l 1
 424 -177 402 -181 375 -181 c 0
 305 -181 268 -154 268 -103 c 0
 268 -62 291 -30 345 0 c 1
 397 0 l 1
 353 -28 334 -54 334 -89 c 0
 334 -124 356 -141 399 -141 c 0xa4
 416 -141 431 -139 448 -133 c 1
EndSplineSet
EndChar
StartChar: Cacute
Encoding: 258 262 9
Width: 667
Flags: MW
HStem: -18 48<342.5 437.5> 708 33<317.5 420 276.5 439.5>
VStem: 39 111<261 472.5 261 482>
LayerCount: 2
Fore
SplineSet
619 86 m 1
 619 39 l 1
 548 -1 480 -18 395 -18 c 0
 175 -18 39 128 39 364 c 0
 39 600 168 741 385 741 c 0
 455 741 521 730 607 705 c 1
 607 567 l 1
 546 567 l 1
 546 576 l 1
 546 602 l 1
 546 605 l 2
 546 668 486 708 393 708 c 0
 242 708 150 579 150 366 c 0
 150 156 255 30 430 30 c 0
 490 30 546 46 619 86 c 1
343 783 m 1
 461 940 l 1
 587 940 l 1
 389 783 l 1
 343 783 l 1
EndSplineSet
EndChar
StartChar: Ccaron
Encoding: 259 268 10
Width: 667
Flags: MW
HStem: -18 48<342.5 437.5> 708 33<317.5 420 276.5 439.5>
VStem: 39 111<261 472.5 261 482>
LayerCount: 2
Fore
SplineSet
619 86 m 1
 619 39 l 1
 548 -1 480 -18 395 -18 c 0
 175 -18 39 128 39 364 c 0
 39 600 168 741 385 741 c 0
 455 741 521 730 607 705 c 1
 607 567 l 1
 546 567 l 1
 546 576 l 1
 546 602 l 1
 546 605 l 2
 546 668 486 708 393 708 c 0
 242 708 150 579 150 366 c 0
 150 156 255 30 430 30 c 0
 490 30 546 46 619 86 c 1
560 940 m 1
 442 783 l 1
 334 783 l 1
 216 940 l 1
 258 940 l 1
 388 831 l 1
 518 940 l 1
 560 940 l 1
EndSplineSet
EndChar
StartChar: ccaron
Encoding: 297 269 75
Width: 444
Flags: MW
HStem: -12 48<255 298.5> 509 33<231.5 294 200 299>
VStem: 33 105<205 350.5 205 351.5>
LayerCount: 2
Fore
SplineSet
414 60 m 1
 414 18 l 1
 362 -3 320 -12 277 -12 c 0
 134 -12 33 104 33 269 c 0
 33 434 128 542 272 542 c 0
 316 542 361 534 414 518 c 1
 414 391 l 1
 353 391 l 1
 353 400 l 2
 353 472 326 509 272 509 c 0
 191 509 138 419 138 282 c 0
 138 128 202 36 308 36 c 0xe0
 335 36 367 43 414 60 c 1
443 783 m 1
 326 626 l 1
 218 626 l 1
 100 783 l 1
 142 783 l 1
 272 674 l 1
 401 783 l 1
 443 783 l 1
EndSplineSet
EndChar
StartChar: Dcaron
Encoding: 260 270 11
Width: 722
Flags: MW
HStem: 0 30<20 336 20 20> 693 30<20 227>
VStem: 110 103<127 597 597 612.5> 572 111<260 453 260 478>
LayerCount: 2
Fore
SplineSet
227 723 m 1
 262 723 l 1
 297 725 l 1
 332 725 l 1
 339 726 l 2
 381 731 472 712 520 688 c 0
 628 634 683 529 683 377 c 0
 683 143 551 0 336 0 c 2
 20 0 l 1
 20 30 l 1
 29 31 l 1
 62 33 l 2
 88 35 100 42 104 56 c 0
 107 72 110 100 110 126 c 2
 110 597 l 2
 110 628 106 664 102 673 c 0
 97 683 83 689 62 690 c 2
 29 692 l 1
 20 693 l 1
 20 723 l 1
 227 723 l 1
213 690 m 1
 213 127 l 1
 215 88 l 2
 217 47 242 33 312 33 c 0
 479 33 572 151 572 363 c 0
 572 593 480 690 260 690 c 2
 213 690 l 1
511 940 m 1
 394 783 l 1
 285 783 l 1
 167 940 l 1
 209 940 l 1
 339 831 l 1
 469 940 l 1
 511 940 l 1
EndSplineSet
EndChar
StartChar: dcaron
Encoding: 298 271 77
Width: 646
Flags: W
HStem: -12 63<203 230> 0 20 504 38<236 268 186 289.5>
VStem: 33 104<198 341> 345 96<0 771 87 771 126 492 492 492 530 644 644 644> 538 96<549 687 574 687 675 687 687 771 641 771>
LayerCount: 2
Fore
SplineSet
345 0 m 1x7c
 345 87 l 1
 301 17 258 -12 202 -12 c 0x9c
 97 -12 33 87 33 249 c 0
 33 433 116 542 256 542 c 0
 280 542 309 538 345 530 c 1
 345 644 l 1
 344 693 l 2
 343 732 338 737 295 740 c 2
 286 741 l 1
 286 771 l 1
 441 771 l 1
 441 126 l 1
 442 78 l 2
 443 39 448 34 491 31 c 2
 500 30 l 1
 500 0 l 1
 345 0 l 1x7c
345 121 m 1xbc
 345 492 l 1
 319 500 298 504 281 504 c 0
 191 504 137 416 137 269 c 0
 137 127 171 51 235 51 c 0
 268 51 300 72 345 121 c 1xbc
577 675 m 1
 538 675 l 1
 538 771 l 1
 634 771 l 1
 634 687 l 2
 634 595 607 555 538 549 c 1
 538 574 l 1
 565 577 577 600 577 649 c 2
 577 675 l 1
EndSplineSet
EndChar
StartChar: Dcroat
Encoding: 333 272 163
Width: 722
Flags: W
HStem: 0 30<20 336 20 20> 349 33<20 110 20 110 213 381> 693 30<20 227> 705 20<297 332 332 335>
VStem: 110 103<126 349 126 349 382 597 597 612.5> 572 111<259.5 424 259.5 477.5>
LayerCount: 2
Fore
SplineSet
110 349 m 1xdc
 20 349 l 1
 20 382 l 1
 110 382 l 1
 110 597 l 2
 110 628 106 664 102 673 c 0
 97 683 83 689 62 690 c 2
 29 692 l 1
 20 693 l 1
 20 723 l 1
 227 723 l 1
 262 723 l 1x6c
 297 725 l 1
 332 725 l 2
 338 725 427 717 434 716 c 0
 506 703 575 662 617 607 c 0
 661 550 683 472 683 376 c 0
 683 143 551 0 336 0 c 2
 20 0 l 1
 20 30 l 1
 29 31 l 1
 62 33 l 2
 88 35 100 42 104 56 c 0
 107 72 110 100 110 126 c 2
 110 349 l 1xdc
213 349 m 1
 213 126 l 1
 215 88 l 2
 217 47 242 33 312 33 c 0
 479 33 572 151 572 362 c 0
 572 593 480 690 260 690 c 2
 213 690 l 1
 213 382 l 1
 381 382 l 1
 381 349 l 1
 213 349 l 1
EndSplineSet
EndChar
StartChar: dcroat
Encoding: 338 273 199
Width: 500
Flags: W
HStem: -12 63<203 230> 0 20 504 38<236 268 186 289.5> 609 30<200 345 200 345 441 500>
VStem: 33 104<198 341> 345 96<0 609 87 609 126 492 492 492 530 609 126 609 639 645 645 645>
LayerCount: 2
Fore
SplineSet
345 0 m 1x7c
 345 87 l 1
 301 17 258 -12 202 -12 c 0x8c
 97 -12 33 87 33 249 c 0
 33 433 116 542 256 542 c 0
 280 542 309 538 345 530 c 1
 345 609 l 1
 200 609 l 1
 200 639 l 1
 345 639 l 1
 345 645 l 1
 344 693 l 2
 343 732 338 737 295 740 c 2
 286 741 l 1
 286 771 l 1
 441 771 l 1
 441 639 l 1
 500 639 l 1
 500 609 l 1
 441 609 l 1
 441 126 l 1
 442 78 l 2
 443 39 448 34 491 31 c 2
 500 30 l 1
 500 0 l 1
 345 0 l 1x7c
345 121 m 1xac
 345 492 l 1
 319 500 298 504 281 504 c 0
 191 504 137 416 137 269 c 0
 137 127 171 51 235 51 c 0
 268 51 300 72 345 121 c 1xac
EndSplineSet
EndChar
StartChar: emacron
Encoding: 319 275 119
Width: 444
Flags: MW
HStem: -12 49<262.5 288> 286 30<138 311 138 414 138 311> 509 33<207 264.5> 627 60<84 397 84 397>
LayerCount: 2
Fore
SplineSet
414 73 m 1
 414 24 l 1
 356 -1 312 -12 264 -12 c 0
 120 -12 33 91 33 262 c 0
 33 432 115 542 242 542 c 0
 360 542 414 464 414 295 c 2
 414 286 l 1
 138 286 l 1
 140 203 147 162 166 120 c 0
 191 64 232 37 293 37 c 0xe0
 333 37 371 48 414 73 c 1
138 316 m 1
 311 316 l 1
 312 337 l 1
 312 348 l 2
 312 466 292 509 237 509 c 0
 177 509 140 436 138 316 c 1
84 627 m 1
 84 687 l 1
 397 687 l 1
 397 627 l 1x10
 84 627 l 1
EndSplineSet
EndChar
StartChar: Eogonek
Encoding: 263 280 18
Width: 611
Flags: W
HStem: -181 40<485.5 497> 0 30<21 587 21 21> 0 42<297 419 419 465 454 465> 684 39<214 417 214 214 417 467> 693 30<21 560>
VStem: 111 103<126 355 394 597 597 612.5> 376 66<-106.5 -82.5>
LayerCount: 2
Fore
SplineSet
560 723 m 1x16
 560 596 l 1
 506 596 l 1
 505 606 l 1
 503 647 l 2
 502 679 498 683 467 684 c 2
 417 684 l 1
 214 684 l 1
 214 394 l 1
 391 395 l 1
 422 396 l 2
 453 396 455 399 456 433 c 1
 457 439 l 1
 457 446 l 1
 457 454 l 1
 497 454 l 1
 497 295 l 1
 457 295 l 1
 457 304 l 2
 454 352 450 355 391 355 c 2
 214 355 l 1
 214 126 l 2
 214 52 224 42 297 42 c 2
 419 42 l 2
 511 42 529 48 531 79 c 2
 533 123 l 1
 533 132 l 1
 587 132 l 1
 587 0 l 1
 21 0 l 1xb6
 21 30 l 1
 30 31 l 1
 63 33 l 2
 89 35 101 42 105 56 c 0
 108 72 111 100 111 126 c 2
 111 597 l 2
 111 628 107 664 103 673 c 0
 98 683 84 689 63 690 c 2
 30 692 l 1
 21 693 l 1x4e
 21 723 l 1
 560 723 l 1x16
557 -133 m 1
 557 -167 l 1
 532 -177 510 -181 484 -181 c 0
 413 -181 376 -154 376 -103 c 0
 376 -62 399 -31 454 0 c 1
 506 0 l 1
 461 -28 442 -54 442 -89 c 0
 442 -124 464 -141 507 -141 c 0
 524 -141 539 -139 557 -133 c 1
EndSplineSet
EndChar
StartChar: eogonek
Encoding: 301 281 84
Width: 444
Flags: MW
HStem: -181 40<322.5 333.5> -12 49<262.5 288> 0 20 286 30<138 311 138 414 138 311> 509 33<207 264.5>
VStem: 33 66
LayerCount: 2
Fore
SplineSet
414 73 m 1
 414 24 l 1
 356 -1 312 -12 264 -12 c 0
 120 -12 33 91 33 262 c 0
 33 432 115 542 242 542 c 0
 360 542 414 464 414 295 c 2
 414 286 l 1
 138 286 l 1
 140 203 147 162 166 120 c 0
 191 64 232 37 293 37 c 0x58
 333 37 371 48 414 73 c 1
138 316 m 1
 311 316 l 1
 312 337 l 1
 312 348 l 2
 312 466 292 509 237 509 c 0
 177 509 140 436 138 316 c 1
393 -133 m 1
 393 -167 l 1
 369 -177 347 -181 320 -181 c 0
 250 -181 213 -154 213 -103 c 0
 213 -62 236 -30 290 0 c 1
 342 0 l 1
 298 -28 279 -54 279 -89 c 0
 279 -124 301 -141 344 -141 c 0xa4
 361 -141 376 -139 393 -133 c 1
EndSplineSet
EndChar
StartChar: Ecaron
Encoding: 261 282 16
Width: 611
Flags: W
HStem: 0 30<21 587 21 21> 0 42<297 419 419 465> 684 39<214 417 214 214 417 467> 693 30<21 560>
VStem: 111 103<126 355 394 597 597 612.5>
LayerCount: 2
Fore
SplineSet
560 723 m 1x28
 560 596 l 1
 506 596 l 1
 505 606 l 1
 503 647 l 2
 502 679 498 683 467 684 c 2
 417 684 l 1
 214 684 l 1
 214 394 l 1
 391 395 l 1
 422 396 l 2
 453 396 455 399 456 433 c 2
 456 433 457 444 457 446 c 2
 457 454 l 1
 497 454 l 1
 497 295 l 1
 457 295 l 1
 457 304 l 2
 454 352 450 355 391 355 c 2
 214 355 l 1
 214 126 l 2
 214 52 224 42 297 42 c 2
 419 42 l 2
 511 42 529 48 531 79 c 2
 533 123 l 1
 533 132 l 1
 587 132 l 1
 587 0 l 1
 21 0 l 1x68
 21 30 l 1
 30 31 l 1
 63 33 l 2
 89 35 101 42 105 56 c 0
 108 72 111 100 111 126 c 2
 111 597 l 2
 111 628 107 664 103 673 c 0
 98 683 84 689 63 690 c 2
 30 692 l 1
 21 693 l 1x98
 21 723 l 1
 560 723 l 1x28
500 940 m 1
 383 783 l 1
 274 783 l 1
 157 940 l 1
 199 940 l 1
 329 831 l 1
 458 940 l 1
 500 940 l 1
EndSplineSet
EndChar
StartChar: Gbreve
Encoding: 264 286 19
Width: 722
Flags: MW
HStem: -18 41<384.5 424> 709 33<321.5 437 284 454> 783 69<364 436.5 364 444.5>
VStem: 41 111<301 472 301 485.5> 525 102<39 181 18 197>
LayerCount: 2
Fore
SplineSet
627 181 m 1
 627 18 l 1
 523 -8 456 -18 392 -18 c 0
 176 -18 41 129 41 365 c 0
 41 606 170 742 398 742 c 0
 476 742 545 730 625 704 c 1
 625 573 l 1
 571 573 l 1
 571 582 l 2
 570 592 570 600 570 607 c 2
 570 610 l 2
 570 672 506 709 402 709 c 0
 241 709 152 585 152 359 c 0
 152 243 177 162 231 105 c 0
 281 52 348 23 421 23 c 0
 450 23 481 28 525 39 c 1
 525 181 l 2
 525 213 521 248 516 257 c 0
 511 268 500 273 477 275 c 2
 443 278 l 1
 435 278 l 1
 435 308 l 1
 711 308 l 1
 711 278 l 1
 703 278 l 1
 675 275 l 2
 637 271 633 267 630 230 c 2
 627 181 l 1
238 940 m 1
 270 940 l 1
 288 879 328 852 400 852 c 0
 473 852 513 879 532 940 c 1
 563 940 l 1
 549 841 489 783 400 783 c 0
 313 783 253 841 238 940 c 1
EndSplineSet
EndChar
StartChar: Gcommaaccent
Encoding: 291 290 63
Width: 722
Flags: MW
HStem: -211 36<350.5 366 342 395> -18 41<384.5 424> 709 33<321.5 437 284 454>
VStem: 41 111<301 472 301 485.5> 400 66<-148.5 -121> 525 102<39 181 18 197>
LayerCount: 2
Fore
SplineSet
627 181 m 1
 627 18 l 1
 523 -8 456 -18 392 -18 c 0
 176 -18 41 129 41 365 c 0
 41 606 170 742 398 742 c 0
 476 742 545 730 625 704 c 1
 625 573 l 1
 571 573 l 1
 571 582 l 2
 570 592 570 600 570 607 c 2
 570 610 l 2
 570 672 506 709 402 709 c 0
 241 709 152 585 152 359 c 0
 152 243 177 162 231 105 c 0
 281 52 348 23 421 23 c 0
 450 23 481 28 525 39 c 1
 525 181 l 2
 525 213 521 248 516 258 c 0
 511 268 500 273 477 275 c 2
 443 278 l 1
 435 278 l 1
 435 308 l 1
 711 308 l 1
 711 278 l 1
 703 278 l 1
 675 275 l 2
 637 271 633 267 630 230 c 2
 627 181 l 1
299 -206 m 1
 299 -170 l 1
 314 -173 334 -175 350 -175 c 0
 382 -175 400 -161 400 -136 c 0
 400 -106 377 -91 323 -85 c 1
 323 -54 l 1
 423 -56 466 -81 466 -137 c 0
 466 -186 430 -211 360 -211 c 0
 341 -211 322 -209 299 -206 c 1
EndSplineSet
EndChar
StartChar: gcommaaccent
Encoding: 330 291 130
Width: 500
Flags: W
HStem: -205 33<201 270 201 288> 0 20 167 33<227.5 256.5 205 282.5> 509 33<205 239.5 173.5 257>
VStem: 26 95<-100.5 -67.5> 56 97<316 407 304.5 414> 180 96<626 710 710 722 626 756> 309 96<304 384 304 405.5> 362 94<-85.5 -36>
LayerCount: 2
Fore
SplineSet
244 84 m 2xf5
 274 84 l 2
 401 84 456 48 456 -36 c 0
 456 -135 358 -205 218 -205 c 0
 103 -205 26 -159 26 -90 c 0xf880
 26 -45 56 -12 126 20 c 1
 88 39 71 60 71 89 c 0
 71 117 95 145 147 179 c 2
 159 187 l 1
 87 224 56 275 56 357 c 0
 56 471 121 542 226 542 c 0
 253 542 277 536 313 522 c 1
 484 536 l 1
 459 477 l 1
 343 498 l 1
 387 452 405 411 405 357 c 0
 405 251 330 167 235 167 c 0
 220 167 208 169 193 176 c 1
 166 154 155 137 155 119 c 0
 155 92 175 84 244 84 c 2xf5
231 509 m 0xf5
 179 509 153 458 153 356 c 0
 153 253 179 200 231 200 c 0
 282 200 309 252 309 354 c 0
 309 457 283 509 231 509 c 0xf5
264 12 m 2xfa80
 151 12 l 1
 131 -9 121 -35 121 -70 c 0
 121 -131 167 -172 235 -172 c 0
 305 -172 362 -122 362 -60 c 0
 362 -12 329 12 264 12 c 2xfa80
238 722 m 1
 276 722 l 1
 276 626 l 1
 180 626 l 1
 180 710 l 2
 180 802 208 842 276 848 c 1
 276 824 l 1
 249 820 238 797 238 748 c 2
 238 722 l 1
EndSplineSet
EndChar
StartChar: imacron
Encoding: 320 299 120
Width: 278
Flags: MW
HStem: 0 20 510 20<23 190 190 190> 627 60<-19 294 -19 294>
VStem: 94 96<126 404 404 404>
LayerCount: 2
Fore
SplineSet
261 30 m 1
 261 0 l 1
 23 0 l 1
 23 30 l 1
 32 31 l 2
 69 33 85 37 88 43 c 0
 91 49 93 59 93 78 c 2
 94 126 l 1
 94 404 l 1
 93 451 l 2
 93 477 90 489 82 492 c 0
 77 495 57 498 32 499 c 2
 23 500 l 1
 23 530 l 1
 190 530 l 1
 190 126 l 1
 191 78 l 2
 191 52 194 41 202 38 c 0
 208 35 226 32 252 31 c 2
 261 30 l 1
-19 627 m 1
 -19 687 l 1
 294 687 l 1
 294 627 l 1
 -19 627 l 1
EndSplineSet
EndChar
StartChar: Iogonek
Encoding: 285 302 57
Width: 333
Flags: W
HStem: -181 40<213.5 224.5> 0 30<25 308 25 25> 693 30<25 308 25 308>
VStem: 104 66<-106.5 -82.5> 115 103<126 597>
LayerCount: 2
Fore
SplineSet
115 126 m 2xe8
 115 597 l 2
 115 628 111 664 107 673 c 0
 102 683 88 689 67 690 c 2
 34 692 l 1
 25 693 l 1
 25 723 l 1
 308 723 l 1
 308 693 l 1
 299 692 l 1
 266 690 l 2
 241 689 228 681 224 667 c 0
 221 652 218 622 218 597 c 2
 218 126 l 2
 218 95 222 60 226 51 c 0
 231 40 244 35 266 33 c 2
 299 31 l 1
 308 30 l 1
 308 0 l 1
 25 0 l 1
 25 30 l 1
 34 31 l 1
 67 33 l 2
 93 35 105 42 109 56 c 0
 112 72 115 100 115 126 c 2xe8
284 -133 m 1xf0
 284 -167 l 1
 259 -177 238 -181 211 -181 c 0
 141 -181 104 -154 104 -103 c 0
 104 -62 127 -31 181 0 c 1
 233 0 l 1
 189 -28 170 -54 170 -89 c 0
 170 -124 192 -141 235 -141 c 0
 252 -141 267 -139 284 -133 c 1xf0
EndSplineSet
EndChar
StartChar: iogonek
Encoding: 331 303 131
Width: 278
Flags: MW
HStem: -181 40<166.5 177.5> 0 20 0 20 510 20<23 190 190 190> 627 96<94 190 94 190>
VStem: 23 66 94 96<126 404 404 404 627 723>
LayerCount: 2
Fore
SplineSet
94 627 m 1
 94 723 l 1
 190 723 l 1
 190 627 l 1x5a
 94 627 l 1
23 0 m 1
 23 30 l 1
 32 31 l 2
 69 33 86 37 88 43 c 0
 91 49 93 59 93 78 c 2
 94 126 l 1
 94 404 l 1
 93 451 l 2
 93 477 90 489 83 492 c 0
 76 495 57 498 32 499 c 2
 23 500 l 1
 23 530 l 1
 190 530 l 1
 190 126 l 1
 191 78 l 2
 191 52 194 41 202 38 c 0
 208 35 226 32 252 31 c 2
 261 30 l 1
 261 0 l 1
 23 0 l 1
237 -133 m 1
 237 -167 l 1
 213 -177 191 -181 164 -181 c 0
 94 -181 57 -154 57 -103 c 0
 57 -62 80 -30 134 0 c 1
 186 0 l 1
 142 -28 123 -54 123 -89 c 0
 123 -124 145 -141 188 -141 c 0xa4
 205 -141 220 -139 237 -133 c 1
EndSplineSet
EndChar
StartChar: dotlessi
Encoding: 335 305 196
Width: 278
Flags: MW
HStem: 0 20 510 20<23 190 190 190>
VStem: 94 96<126 404 404 404>
LayerCount: 2
Fore
SplineSet
261 30 m 1
 261 0 l 1
 23 0 l 1
 23 30 l 1
 32 31 l 2
 69 33 86 37 88 43 c 0
 91 49 93 59 93 78 c 2
 94 126 l 1
 94 404 l 1
 93 451 l 2
 93 477 90 489 83 492 c 0
 76 495 57 498 32 499 c 2
 23 500 l 1
 23 530 l 1
 190 530 l 1
 190 126 l 1
 191 78 l 2
 191 52 194 41 202 38 c 0
 208 35 226 32 252 31 c 2xe0
 261 30 l 1
EndSplineSet
EndChar
StartChar: Kcommaaccent
Encoding: 286 310 58
Width: 722
Flags: MW
HStem: -211 36<325.5 341 317 370> 0 30<27 298 27 27 419 428 428 447.5> 693 30<27 310 27 310 431 440>
VStem: 117 103<127 365 368 597> 375 66<-148.5 -121>
LayerCount: 2
Fore
SplineSet
220 368 m 1
 439 596 l 2
 455 614 469 630 480 646 c 0
 491 661 501 674 506 678 c 0
 509 680 511 683 511 685 c 0
 511 690 503 692 483 692 c 2
 440 693 l 1
 431 693 l 1
 431 723 l 1
 654 723 l 1
 654 693 l 1
 645 692 l 1
 616 692 l 2
 582 690 574 684 486 596 c 2
 302 408 l 1
 554 126 l 1
 605 73 l 2
 642 35 644 35 704 31 c 2
 714 30 l 1
 714 0 l 1
 419 0 l 1
 419 30 l 1
 428 30 l 2
 467 30 488 34 488 42 c 0
 488 53 466 84 428 128 c 2
 220 365 l 1
 220 127 l 1
 222 78 l 2
 224 37 226 35 289 31 c 2
 298 30 l 1
 298 0 l 1
 27 0 l 1
 27 30 l 1
 36 31 l 1
 69 33 l 2
 94 35 107 42 111 56 c 0
 114 72 117 100 117 126 c 2
 117 597 l 2
 117 628 113 664 109 673 c 0
 104 683 90 689 69 690 c 2
 36 692 l 1
 27 693 l 1
 27 723 l 1
 310 723 l 1
 310 693 l 1
 301 692 l 1
 268 690 l 2
 243 689 230 681 226 667 c 0
 223 652 220 622 220 597 c 2
 220 368 l 1
274 -206 m 1
 274 -170 l 1
 289 -173 309 -175 325 -175 c 0
 357 -175 375 -161 375 -136 c 0
 375 -106 352 -91 298 -85 c 1
 298 -54 l 1
 398 -56 441 -81 441 -137 c 0
 441 -186 405 -211 335 -211 c 0
 316 -211 297 -209 274 -206 c 1
EndSplineSet
EndChar
StartChar: kcommaaccent
Encoding: 321 311 121
Width: 500
Flags: MW
HStem: -211 36<269.5 285 261 314> 0 20 510 20<297 462 462 462>
VStem: 74 96<126 261 285 644 644 644> 116 66
LayerCount: 2
Fore
SplineSet
15 0 m 1
 15 30 l 1
 24 31 l 2
 67 34 72 39 73 78 c 2
 74 126 l 1
 74 644 l 1
 73 693 l 2
 72 732 67 737 24 740 c 2
 15 741 l 1
 15 771 l 1
 170 771 l 1
 170 285 l 1
 193 285 l 1
 286 403 l 1
 324 451 l 1
 343 478 l 2
 349 485 350 487 350 490 c 0
 350 497 338 500 308 500 c 2
 297 500 l 1
 297 530 l 1
 462 530 l 1
 462 500 l 1
 453 499 l 2
 403 495 401 494 369 453 c 2
 335 408 l 1
 263 312 l 1
 396 123 l 2
 452 44 462 34 490 31 c 2
 500 30 l 1
 500 0 l 1
 375 0 l 1
 193 261 l 1
 170 261 l 1
 170 126 l 1
 171 78 l 2
 172 39 177 34 220 31 c 2
 229 30 l 1
 229 0 l 1x70
 15 0 l 1
218 -206 m 1
 218 -170 l 1
 233 -173 253 -175 269 -175 c 0
 301 -175 319 -161 319 -136 c 0
 319 -106 296 -90 242 -85 c 1
 242 -54 l 1
 342 -56 385 -81 385 -137 c 0
 385 -186 349 -211 279 -211 c 0x88
 260 -211 241 -209 218 -206 c 1
EndSplineSet
EndChar
StartChar: Lcommaaccent
Encoding: 287 315 59
Width: 611
Flags: W
HStem: -211 36<271 287 262.5 316> 0 30<27 587 27 27> 0 42<304 419 419 464> 693 30<27 310 27 310>
VStem: 117 103<126 127 127 597> 321 66<-148.5 -121>
LayerCount: 2
Fore
SplineSet
535 135 m 1x3c
 536 145 l 1
 587 145 l 1
 587 0 l 1
 27 0 l 1xac
 27 30 l 1x4c
 36 31 l 1
 69 33 l 2
 94 35 107 42 111 56 c 0
 114 72 117 100 117 126 c 2
 117 597 l 2
 117 628 113 664 109 673 c 0
 104 683 90 689 69 690 c 2
 36 692 l 1
 27 693 l 1
 27 723 l 1
 310 723 l 1
 310 693 l 1
 301 692 l 1
 268 690 l 2
 243 689 230 681 226 667 c 0
 223 652 220 622 220 597 c 2
 220 127 l 2
 220 76 224 54 233 49 c 0
 243 44 267 42 304 42 c 2
 419 42 l 2
 509 42 533 51 534 85 c 2
 535 135 l 1x3c
220 -206 m 1
 220 -170 l 1
 234 -173 254 -175 271 -175 c 0
 303 -175 321 -161 321 -136 c 0
 321 -106 298 -90 244 -85 c 1
 244 -54 l 1
 344 -56 387 -81 387 -137 c 0
 387 -186 351 -211 281 -211 c 0
 261 -211 243 -209 220 -206 c 1
EndSplineSet
EndChar
StartChar: lcommaaccent
Encoding: 322 316 122
Width: 278
Flags: MW
HStem: -211 36<121.5 137 113 166> 0 20
VStem: 94 96<126 645 645 645> 124 66
LayerCount: 2
Fore
SplineSet
23 0 m 1
 23 30 l 1
 32 31 l 2
 69 33 86 37 88 43 c 0
 91 49 93 59 93 78 c 2
 94 126 l 1
 94 645 l 1
 93 693 l 2
 93 719 90 730 83 733 c 0
 76 736 58 739 32 740 c 2
 23 741 l 1
 23 771 l 1
 190 771 l 1
 190 126 l 1
 191 78 l 2
 191 52 194 41 202 38 c 0
 208 35 226 32 252 31 c 2
 261 30 l 1
 261 0 l 1x60
 23 0 l 1
70 -206 m 1
 70 -170 l 1
 85 -173 105 -175 121 -175 c 0
 153 -175 171 -161 171 -136 c 0
 171 -106 148 -90 94 -85 c 1
 94 -54 l 1
 194 -56 237 -81 237 -137 c 0
 237 -186 201 -211 131 -211 c 0x90
 112 -211 93 -209 70 -206 c 1
EndSplineSet
EndChar
StartChar: lcaron
Encoding: 304 318 91
Width: 406
Flags: MW
HStem: 0 20
VStem: 94 96<126 645 645 645> 287 96<549 687 574 687 675 687 687 771 641 771>
LayerCount: 2
Fore
SplineSet
261 30 m 1
 261 0 l 1
 23 0 l 1
 23 30 l 1
 32 31 l 2
 69 33 86 37 88 43 c 0
 91 49 93 59 93 78 c 2
 94 126 l 1
 94 645 l 1
 93 693 l 2
 93 719 90 730 83 733 c 0
 76 736 58 739 32 740 c 2
 23 741 l 1
 23 771 l 1
 190 771 l 1
 190 126 l 1
 191 78 l 2
 191 52 194 41 202 38 c 0
 208 35 226 32 252 31 c 2
 261 30 l 1
326 675 m 1
 287 675 l 1
 287 771 l 1
 383 771 l 1
 383 687 l 2
 383 595 356 555 287 549 c 1
 287 574 l 1
 314 577 326 600 326 649 c 2
 326 675 l 1
EndSplineSet
EndChar
StartChar: Lslash
Encoding: 334 321 164
Width: 611
Flags: W
HStem: 0 30<27 587 27 27> 0 42<304 419 419 464> 693 30<27 310 27 310>
VStem: 117 103<126 127 127 365 365 365 407 425 466 597>
LayerCount: 2
Fore
SplineSet
117 365 m 1x90
 27 313 l 1
 27 355 l 1
 117 407 l 1
 117 597 l 2
 117 628 113 664 109 673 c 0
 104 683 90 689 69 690 c 2
 36 692 l 1
 27 693 l 1
 27 723 l 1
 310 723 l 1
 310 693 l 1
 301 692 l 1
 268 690 l 2
 243 689 230 681 226 667 c 0
 223 652 220 622 220 597 c 2
 220 466 l 1
 352 542 l 1
 352 501 l 1
 220 425 l 1
 220 127 l 2
 220 76 224 54 233 49 c 0
 243 44 267 42 304 42 c 2
 419 42 l 2
 509 42 533 51 534 85 c 2
 535 135 l 1
 536 145 l 1
 587 145 l 1
 587 0 l 1
 27 0 l 1x70
 27 30 l 1
 36 31 l 1
 69 33 l 2
 95 35 107 42 111 56 c 0
 114 72 117 100 117 126 c 2
 117 365 l 1x90
EndSplineSet
EndChar
StartChar: lslash
Encoding: 339 322 200
Width: 278
Flags: MW
HStem: 0 20
VStem: 94 96<126 382 382 382 424 438 479 645 645 645>
LayerCount: 2
Fore
SplineSet
23 0 m 1
 23 30 l 1
 32 31 l 2
 69 33 86 37 88 43 c 0
 91 49 93 59 93 78 c 2
 94 126 l 1
 94 382 l 1
 23 341 l 1
 23 383 l 1
 94 424 l 1
 94 645 l 1
 93 693 l 2
 93 719 90 730 83 733 c 0
 76 736 58 739 32 740 c 2
 23 741 l 1
 23 771 l 1
 190 771 l 1
 190 479 l 1
 261 521 l 1
 261 479 l 1
 190 438 l 1
 190 126 l 1
 191 78 l 2
 191 52 194 41 202 38 c 0
 208 35 226 32 252 31 c 2
 261 30 l 1
 261 0 l 1
 23 0 l 1
EndSplineSet
EndChar
StartChar: Nacute
Encoding: 268 323 27
Width: 722
Flags: W
HStem: -10 20 0 30<21 248 21 21> 693 30<21 183>
VStem: 112 45<126 596> 566 44<162 596 -10 596>
LayerCount: 2
Fore
SplineSet
183 723 m 1x78
 566 162 l 1
 566 596 l 1
 563 645 l 2
 561 682 556 687 518 690 c 2
 485 692 l 1
 476 693 l 1
 476 723 l 1
 700 723 l 1
 700 693 l 1
 692 692 l 1
 658 690 l 2
 621 687 616 683 613 645 c 2
 610 596 l 1
 610 -10 l 1
 576 -10 l 1xb8
 157 596 l 1
 157 126 l 2
 157 96 161 61 166 51 c 0
 171 40 183 35 205 33 c 2
 239 31 l 1
 248 30 l 1
 248 0 l 1
 21 0 l 1
 21 30 l 1
 30 31 l 1
 64 33 l 2
 89 35 102 42 105 56 c 0
 109 73 112 100 112 126 c 2
 112 597 l 2
 112 628 108 663 103 673 c 0
 98 683 84 689 64 690 c 2
 30 692 l 1
 21 693 l 1
 21 723 l 1
 183 723 l 1x78
315 783 m 1
 433 940 l 1
 560 940 l 1
 361 783 l 1
 315 783 l 1
EndSplineSet
EndChar
StartChar: Ncommaaccent
Encoding: 288 325 60
Width: 722
Flags: MW
HStem: -211 36<335.5 351 327 380> 0 30<21 248 21 21> 693 30<21 183>
VStem: 112 45<126 596> 385 66<-148.5 -121> 566 44<162 596 -10 596>
LayerCount: 2
Fore
SplineSet
183 723 m 1
 566 162 l 1
 566 596 l 1
 563 645 l 2
 561 682 556 687 518 690 c 2
 485 692 l 1
 476 693 l 1
 476 723 l 1
 700 723 l 1
 700 693 l 1
 692 692 l 1
 658 690 l 2
 621 687 616 683 613 645 c 2
 610 596 l 1
 610 -10 l 1
 576 -10 l 1
 157 596 l 1
 157 126 l 2
 157 96 161 61 166 51 c 0
 171 41 184 35 205 33 c 2
 239 31 l 1
 248 30 l 1
 248 0 l 1
 21 0 l 1
 21 30 l 1
 30 31 l 1
 64 33 l 2
 89 35 102 42 105 56 c 0
 109 73 112 100 112 126 c 2
 112 597 l 2
 112 628 108 663 103 673 c 0
 98 683 85 689 64 690 c 2
 30 692 l 1
 21 693 l 1
 21 723 l 1
 183 723 l 1
284 -206 m 1
 284 -170 l 1
 299 -173 319 -175 335 -175 c 0
 367 -175 385 -161 385 -136 c 0
 385 -106 362 -90 308 -85 c 1
 308 -54 l 1
 408 -56 451 -81 451 -137 c 0
 451 -186 415 -211 345 -211 c 0
 326 -211 306 -209 284 -206 c 1
EndSplineSet
EndChar
StartChar: ncommaaccent
Encoding: 323 326 123
Width: 500
Flags: W
HStem: -211 36<248.5 264 240 293> 0 30<18 18 18 234> 479 63<296.5 306.5> 510 20<18 174 174 174>
VStem: 77 97<126 404 404 404> 119 66 342 96<126 358 358 358>
LayerCount: 2
Fore
SplineSet
18 0 m 1
 18 30 l 1
 27 31 l 2
 70 34 75 39 76 78 c 2
 77 126 l 1
 77 404 l 1
 76 451 l 2
 75 490 70 495 27 499 c 2
 18 500 l 1
 18 530 l 1
 174 530 l 1x5a
 174 443 l 1
 224 513 267 542 326 542 c 0
 406 542 438 495 438 373 c 2
 438 126 l 1
 439 78 l 2
 440 39 445 34 488 31 c 2
 497 30 l 1
 497 0 l 1
 283 0 l 1
 283 30 l 1
 292 31 l 2
 335 34 340 39 341 78 c 2
 342 126 l 1
 342 358 l 1
 341 396 l 2
 338 456 324 479 289 479 c 0
 250 479 215 458 174 410 c 1
 174 126 l 1
 175 78 l 2
 175 39 181 34 224 31 c 2
 234 30 l 1
 234 0 l 1x6a
 18 0 l 1
197 -206 m 1
 197 -170 l 1
 212 -173 232 -175 248 -175 c 0
 280 -175 298 -161 298 -136 c 0
 298 -106 275 -90 221 -85 c 1
 221 -54 l 1
 321 -56 364 -81 364 -137 c 0
 364 -186 328 -211 258 -211 c 0x84
 239 -211 220 -209 197 -206 c 1
EndSplineSet
EndChar
StartChar: ncaron
Encoding: 306 328 93
Width: 500
Flags: W
HStem: 0 30<18 18 18 234> 479 63<296.5 306.5> 510 20<18 174 174 174>
VStem: 77 97<126 404 404 404> 342 96<126 358 358 358>
LayerCount: 2
Fore
SplineSet
18 0 m 1
 18 30 l 1
 27 31 l 2
 70 34 75 39 76 78 c 2
 77 126 l 1
 77 404 l 1
 76 451 l 2
 75 490 70 495 27 499 c 2
 18 500 l 1
 18 530 l 1
 174 530 l 1xb8
 174 443 l 1
 224 513 267 542 326 542 c 0
 406 542 438 495 438 373 c 2
 438 126 l 1
 439 78 l 2
 440 39 445 34 488 31 c 2
 497 30 l 1
 497 0 l 1
 283 0 l 1
 283 30 l 1
 292 31 l 2
 335 34 340 39 341 78 c 2
 342 126 l 1
 342 358 l 1
 341 396 l 2
 338 456 324 479 289 479 c 0
 250 479 215 458 174 410 c 1
 174 126 l 1
 175 78 l 2
 175 39 181 34 224 31 c 2
 234 30 l 1
 234 0 l 1xd8
 18 0 l 1
417 783 m 1
 300 626 l 1
 192 626 l 1
 74 783 l 1
 116 783 l 1
 246 674 l 1
 375 783 l 1
 417 783 l 1
EndSplineSet
EndChar
StartChar: omacron
Encoding: 324 333 124
Width: 500
Flags: MW
HStem: -12 33<213.5 286.5 213.5 316.5> 509 33<214.5 285> 627 60<93 406 93 406>
VStem: 30 105<183.5 339 183.5 350.5> 365 105<191.5 340.5>
LayerCount: 2
Fore
SplineSet
250 542 m 0
 386 542 470 436 470 266 c 0
 470 93 386 -12 247 -12 c 0
 114 -12 30 96 30 265 c 0xd8
 30 436 114 542 250 542 c 0
250 509 m 0
 179 509 135 415 135 263 c 0
 135 104 175 21 252 21 c 0
 321 21 365 117 365 266 c 0
 365 415 320 509 250 509 c 0
93 627 m 1
 93 687 l 1
 406 687 l 1
 406 627 l 1x20
 93 627 l 1
EndSplineSet
EndChar
StartChar: OE
Encoding: 140 338 160
Width: 889
Flags: W
HStem: -18 33<315.5 345.5> 0 20 684 39<585 694 585 585 694 745> 708 33<281 359.5 243 388.5>
VStem: 39 109<307.5 466 256 475.5> 475 110<0 126 36 126 297 355 394 425 425 528>
LayerCount: 2
Fore
SplineSet
475 688 m 1x9c
 475 723 l 1
 837 723 l 1
 837 596 l 1
 783 596 l 1
 783 606 l 2
 781 626 781 638 780 641 c 2
 780 652 l 2
 779 679 774 683 745 684 c 2
 694 684 l 1
 585 684 l 1
 585 394 l 1
 675 395 l 1
 706 396 l 2
 734 397 739 401 739 423 c 2
 739 424 l 1
 739 425 l 1
 740 430 l 1
 740 437 l 1
 741 446 l 1
 741 454 l 1
 786 454 l 1
 786 295 l 1
 741 295 l 1
 741 304 l 2
 738 351 734 355 675 355 c 2
 585 355 l 1
 585 126 l 2
 585 52 595 42 668 42 c 2
 716 42 l 1
 765 45 l 2
 792 47 806 58 808 79 c 2
 809 114 l 1
 810 123 l 1
 865 123 l 1
 865 0 l 1
 475 0 l 1x6c
 475 36 l 1
 449 14 435 4 418 -3 c 0
 400 -11 358 -18 333 -18 c 0
 298 -18 231 -2 200 14 c 0
 170 30 140 57 114 95 c 0
 64 166 39 254 39 361 c 0
 39 590 155 741 331 741 c 0
 388 741 429 726 475 688 c 1x9c
475 297 m 2x9c
 475 425 l 2
 475 631 438 708 339 708 c 0
 223 708 148 571 148 361 c 0
 148 151 223 15 339 15 c 0
 438 15 475 92 475 297 c 2x9c
EndSplineSet
EndChar
StartChar: oe
Encoding: 156 339 193
Width: 722
Flags: W
HStem: -12 31<208.5 273> -12 48<553 580> 285 31<442 589 442 692 441 589> 511 31<207.5 272.5 177.5 278.5> 512 29<494 542.5>
VStem: 30 103<183 342 179 346.5>
LayerCount: 2
Fore
SplineSet
692 71 m 1x6c
 692 22 l 1
 641 -2 601 -12 559 -12 c 0x54
 485 -12 433 19 385 92 c 1
 335 10 305 -12 241 -12 c 0
 116 -12 30 101 30 265 c 0
 30 428 116 542 239 542 c 0x94
 306 542 350 515 385 452 c 1
 426 515 466 541 522 541 c 0
 630 541 692 450 692 294 c 2
 692 285 l 1
 441 285 l 1
 443 199 450 153 469 112 c 0
 492 61 528 36 578 36 c 0
 612 36 646 47 692 71 c 1x6c
244 511 m 0
 171 511 133 425 133 259 c 0
 133 99 171 19 246 19 c 0xb4
 314 19 338 82 338 268 c 0
 338 445 313 511 244 511 c 0
442 316 m 1
 589 316 l 1
 589 337 l 2
 589 454 566 512 519 512 c 0x2c
 467 512 443 452 442 316 c 1
EndSplineSet
EndChar
StartChar: Racute
Encoding: 271 340 36
Width: 667
Flags: MW
HStem: 0 30<15 286 15 15> 693 30<15 189>
VStem: 105 103<127 318 351 597 597 612.5> 435 105<492.5 570 492.5 590>
LayerCount: 2
Fore
SplineSet
189 723 m 1
 237 724 l 1
 277 725 l 1
 316 726 l 1
 325 727 l 2
 387 731 464 705 499 667 c 0
 526 636 540 596 540 544 c 0
 540 441 495 380 391 340 c 1
 532 128 l 1
 578 64 l 2
 592 45 609 34 630 32 c 2
 651 31 l 1
 661 30 l 1
 661 0 l 1
 489 0 l 1
 292 318 l 1
 208 318 l 1
 208 127 l 1
 210 78 l 2
 212 37 214 35 277 31 c 2
 286 30 l 1
 286 0 l 1
 15 0 l 1
 15 30 l 1
 24 31 l 1
 57 33 l 2
 83 35 95 42 99 56 c 0
 102 72 105 100 105 126 c 2
 105 597 l 2
 105 628 101 664 97 673 c 0
 92 683 78 689 57 690 c 2
 24 692 l 1
 15 693 l 1
 15 723 l 1
 189 723 l 1
208 351 m 1
 244 351 l 2
 372 351 435 412 435 534 c 0
 435 646 391 690 277 690 c 2
 208 690 l 1
 208 351 l 1
226 783 m 1
 344 940 l 1
 470 940 l 1
 271 783 l 1
 226 783 l 1
EndSplineSet
EndChar
StartChar: rcommaaccent
Encoding: 325 343 125
Width: 333
Flags: W
HStem: -211 36<125.5 141 117 170> 0 20 459 83<238.5 302.5> 510 20<15 170 170 170>
VStem: 74 96<126 397 126 404 126 404> 116 66
LayerCount: 2
Fore
SplineSet
15 0 m 1
 15 30 l 1
 24 31 l 2
 67 34 72 39 73 78 c 2
 74 126 l 1
 74 404 l 1
 73 451 l 2
 72 490 67 495 24 499 c 2
 15 500 l 1
 15 530 l 1
 170 530 l 1x58
 170 443 l 1
 207 512 246 542 297 542 c 0
 308 542 317 540 327 536 c 1
 327 391 l 1
 282 391 l 1
 281 400 l 1
 281 404 l 1
 280 408 l 1
 280 413 l 1
 280 421 l 2
 278 448 270 459 252 459 c 0
 225 459 199 440 170 397 c 1
 170 126 l 1
 171 78 l 2
 172 39 177 34 220 31 c 2
 229 30 l 1
 229 0 l 1x68
 15 0 l 1
74 -206 m 1
 74 -170 l 1
 89 -173 109 -175 125 -175 c 0
 157 -175 175 -161 175 -136 c 0
 175 -106 152 -90 98 -85 c 1
 98 -54 l 1
 198 -56 241 -81 241 -137 c 0
 241 -186 205 -211 135 -211 c 0x84
 116 -211 97 -209 74 -206 c 1
EndSplineSet
EndChar
StartChar: rcaron
Encoding: 328 345 128
Width: 333
Flags: W
HStem: 0 20 459 83<238.5 302.5> 510 20<15 170 170 170>
VStem: 74 96<126 397 126 404 126 404>
LayerCount: 2
Fore
SplineSet
15 0 m 1xd0
 15 30 l 1
 24 31 l 2
 67 34 72 39 73 78 c 2
 74 126 l 1
 74 404 l 1
 73 451 l 2
 72 490 67 495 24 499 c 2
 15 500 l 1
 15 530 l 1
 170 530 l 1xb0
 170 443 l 1
 207 512 246 542 297 542 c 0
 308 542 317 540 327 536 c 1
 327 391 l 1
 282 391 l 1
 281 400 l 1
 281 404 l 2
 281 406 281 406 280 413 c 2
 280 417 l 1
 280 421 l 2
 278 448 270 459 252 459 c 0
 225 459 199 440 170 397 c 1
 170 126 l 1
 171 78 l 2
 172 39 177 34 220 31 c 2
 229 30 l 1
 229 0 l 1
 15 0 l 1xd0
337 783 m 1
 220 626 l 1
 112 626 l 1
 -6 783 l 1
 36 783 l 1
 166 674 l 1
 295 783 l 1
 337 783 l 1
EndSplineSet
EndChar
StartChar: Sacute
Encoding: 273 346 38
Width: 556
Flags: MW
HStem: -18 36<224 313 218.5 337> 708 33<247.5 311 218.5 333.5>
VStem: 63 99<551 608> 408 103<129 194>
LayerCount: 2
Fore
SplineSet
58 15 m 1
 58 154 l 1
 109 154 l 1
 110 145 l 2
 111 127 111 118 111 112 c 2
 111 108 l 2
 111 54 172 18 265 18 c 0
 361 18 408 63 408 156 c 0
 408 232 386 261 294 311 c 2
 230 345 l 2
 117 406 63 473 63 552 c 0
 63 664 153 741 284 741 c 0
 338 741 395 732 470 710 c 1
 470 582 l 1
 416 582 l 1
 415 590 l 2
 414 609 413 620 413 626 c 2
 413 629 l 2
 413 684 376 708 291 708 c 0
 204 708 162 667 162 584 c 0
 162 518 185 486 266 443 c 2
 330 408 l 2
 468 334 511 283 511 192 c 0
 511 66 412 -18 262 -18 c 0
 186 -18 120 -7 58 15 c 1
235 783 m 1
 353 940 l 1
 479 940 l 1
 281 783 l 1
 235 783 l 1
EndSplineSet
EndChar
StartChar: Scedilla
Encoding: 274 350 40
Width: 556
Flags: W
HStem: -211 36<255.5 262.5 239 294.5> -18 36<224 313 218.5 337> 0 20 708 33<247.5 311 218.5 333.5>
VStem: 63 99<551 608> 298 67<-148 -118.5> 408 103<129 194>
LayerCount: 2
Fore
SplineSet
58 15 m 1xde
 58 154 l 1
 109 154 l 1
 110 145 l 2
 111 127 111 118 111 112 c 2
 111 108 l 2
 111 54 172 18 265 18 c 0
 361 18 408 63 408 156 c 0
 408 232 387 261 294 311 c 2
 230 345 l 2
 117 406 63 473 63 552 c 0
 63 664 153 741 284 741 c 0
 338 741 395 732 470 710 c 1
 470 582 l 1
 416 582 l 1
 415 590 l 2
 414 609 413 620 413 626 c 2
 413 629 l 2
 413 684 376 708 291 708 c 0
 204 708 162 668 162 584 c 0
 162 518 185 486 266 443 c 2
 330 408 l 2
 468 334 511 283 511 192 c 0
 511 66 412 -18 262 -18 c 0
 186 -18 120 -7 58 15 c 1xde
196 -201 m 1
 196 -167 l 1
 217 -173 232 -175 246 -175 c 0
 279 -175 298 -161 298 -135 c 0
 298 -102 271 -87 206 -85 c 1
 253 0 l 1
 291 0 l 1xae
 259 -58 l 1
 333 -64 365 -86 365 -130 c 0
 365 -176 323 -211 266 -211 c 0
 245 -211 221 -208 196 -201 c 1
EndSplineSet
EndChar
StartChar: scedilla
Encoding: 329 351 129
Width: 389
Flags: MW
HStem: -211 36<175 182 158.5 214.5> -12 33<168.5 209.5 155.5 244.5> 0 20 509 33<185 221.5 150 229>
VStem: 49 90<411 447> 148 67 262 96<94 139>
LayerCount: 2
Fore
SplineSet
46 27 m 1
 46 150 l 1
 94 150 l 1
 95 141 l 1
 96 106 l 2
 99 50 128 21 183 21 c 0
 236 21 262 51 262 113 c 0
 262 165 251 181 190 223 c 2
 162 242 l 2
 71 303 49 333 49 400 c 0
 49 494 100 542 200 542 c 0
 243 542 279 533 320 512 c 1
 320 397 l 1
 272 397 l 1
 272 406 l 2
 272 476 251 509 207 509 c 0
 163 509 139 481 139 430 c 0
 139 392 155 361 184 342 c 2
 226 315 l 1
 254 296 l 2
 339 238 358 210 358 143 c 0
 358 45 297 -12 192 -12 c 0x5a
 145 -12 102 0 46 27 c 1
116 -201 m 1
 116 -167 l 1
 137 -173 152 -175 165 -175 c 0
 199 -175 218 -161 218 -135 c 0
 218 -102 191 -87 126 -85 c 1
 173 0 l 1
 211 0 l 1
 179 -58 l 1
 253 -64 285 -86 285 -130 c 0
 285 -176 243 -211 186 -211 c 0xa4
 164 -211 141 -208 116 -201 c 1
EndSplineSet
EndChar
StartChar: scaron
Encoding: 154 353 103
Width: 389
Flags: MW
HStem: -12 33<168.5 209.5 155.5 244.5> 509 33<185 221.5 150.5 229>
VStem: 49 90<411 447> 262 96<94 139>
LayerCount: 2
Fore
SplineSet
46 27 m 1
 46 150 l 1
 94 150 l 1
 95 141 l 1
 96 106 l 2
 99 50 128 21 183 21 c 0
 236 21 262 51 262 113 c 0
 262 165 251 181 190 223 c 2
 162 242 l 2
 71 303 49 333 49 400 c 0
 49 494 101 542 200 542 c 0
 243 542 279 533 320 512 c 1
 320 397 l 1
 272 397 l 1
 272 406 l 2
 272 476 251 509 207 509 c 0
 163 509 139 481 139 430 c 0
 139 392 155 361 184 342 c 2
 226 315 l 1
 254 296 l 2
 339 238 358 211 358 143 c 0
 358 45 297 -12 192 -12 c 0
 145 -12 102 0 46 27 c 1
375 783 m 1
 258 626 l 1
 150 626 l 1
 32 783 l 1
 74 783 l 1
 204 674 l 1
 333 783 l 1
 375 783 l 1
EndSplineSet
EndChar
StartChar: Tcommaaccent
Encoding: 282 354 53
Width: 611
Flags: W
HStem: -211 36<295.5 302.5 279 334.5> 0 30<152 460 152 152> 684 39<158 254 158 158 357 357 357 453>
VStem: 254 103<126 684> 338 67<-148 -118.5>
LayerCount: 2
Fore
SplineSet
254 684 m 1xf0
 158 684 l 1
 108 682 l 2
 80 681 73 678 70 663 c 0
 69 657 68 639 68 610 c 0
 67 606 67 602 67 601 c 2
 66 591 l 1
 15 591 l 1
 15 723 l 1
 596 723 l 1
 596 591 l 1
 545 591 l 1
 544 601 l 1
 544 612 l 1
 543 630 l 1
 543 644 l 2
 542 676 537 681 503 682 c 2
 453 684 l 1
 357 684 l 1
 357 126 l 2
 357 95 361 61 366 51 c 0
 371 41 384 35 405 33 c 2
 439 31 l 1
 460 30 l 1
 460 0 l 1
 152 0 l 1
 152 30 l 1
 173 31 l 1
 206 33 l 2
 231 35 244 42 248 56 c 0
 251 72 254 100 254 126 c 2
 254 684 l 1xf0
236 -201 m 1xe8
 236 -167 l 1
 257 -173 272 -175 286 -175 c 0
 319 -175 338 -161 338 -135 c 0
 338 -102 311 -87 246 -85 c 1
 293 0 l 1
 331 0 l 1
 299 -58 l 1
 373 -64 405 -86 405 -130 c 0
 405 -176 363 -211 306 -211 c 0
 285 -211 261 -208 236 -201 c 1xe8
EndSplineSet
EndChar
StartChar: tcommaaccent
Encoding: 317 355 117
Width: 278
Flags: W
HStem: -211 36<150 157 133.5 189.5> -12 20 0 20 3 39<260 260> 488 42<12 66 12 66 163 272>
VStem: 66 97<166 488 530 626 626 626> 193 67<-148 -118.5>
LayerCount: 2
Fore
SplineSet
66 488 m 1x4e
 12 488 l 1
 12 530 l 1
 66 530 l 1
 66 626 l 1
 163 650 l 1
 163 530 l 1
 272 530 l 1
 272 488 l 1
 163 488 l 1
 163 153 l 1
 163 110 l 2
 163 55 180 27 214 27 c 0
 227 27 242 32 260 42 c 1
 260 3 l 1x9e
 233 -8 213 -12 190 -12 c 0
 100 -12 66 37 66 166 c 2
 66 488 l 1x4e
91 -201 m 1
 91 -167 l 1
 112 -173 127 -175 140 -175 c 0
 174 -175 193 -161 193 -135 c 0
 193 -102 166 -87 101 -85 c 1
 147 0 l 1
 186 0 l 1xa6
 154 -58 l 1
 228 -64 260 -86 260 -130 c 0
 260 -176 218 -211 161 -211 c 0
 139 -211 116 -208 91 -201 c 1
EndSplineSet
EndChar
StartChar: Tcaron
Encoding: 275 356 41
Width: 611
Flags: MW
HStem: 0 30<152 460 152 152> 684 39<158 254 158 158 357 357 357 453>
VStem: 254 103<126 684>
LayerCount: 2
Fore
SplineSet
254 684 m 1
 158 684 l 1
 108 682 l 2
 80 681 73 678 70 663 c 0
 69 657 68 639 68 610 c 0
 67 606 67 602 67 601 c 2
 66 591 l 1
 15 591 l 1
 15 723 l 1
 596 723 l 1
 596 591 l 1
 545 591 l 1
 544 601 l 1
 544 612 l 1
 543 630 l 1
 543 644 l 2
 542 676 537 681 503 682 c 2
 453 684 l 1
 357 684 l 1
 357 126 l 2
 357 95 361 61 366 51 c 0
 371 40 383 35 405 33 c 2
 439 31 l 1
 460 30 l 1
 460 0 l 1
 152 0 l 1
 152 30 l 1
 173 31 l 1
 206 33 l 2
 231 35 244 42 248 56 c 0
 251 72 254 100 254 126 c 2
 254 684 l 1
477 940 m 1
 360 783 l 1
 252 783 l 1
 134 940 l 1
 176 940 l 1
 306 831 l 1
 435 940 l 1
 477 940 l 1
EndSplineSet
EndChar
StartChar: tcaron
Encoding: 311 357 105
Width: 325
Flags: W
HStem: -12 20 3 39<260 260> 488 42<12 66 12 66 163 272>
VStem: 66 97<166 488 530 626 626 626> 235 96<602 741 627 741 728 741 741 824 694.5 824>
LayerCount: 2
Fore
SplineSet
66 488 m 1xb8
 12 488 l 1
 12 530 l 1
 66 530 l 1
 66 626 l 1
 163 650 l 1
 163 530 l 1
 272 530 l 1
 272 488 l 1
 163 488 l 1
 163 153 l 1
 163 110 l 2
 163 55 180 27 214 27 c 0
 227 27 242 32 260 42 c 1
 260 3 l 1x78
 233 -8 213 -12 190 -12 c 0
 100 -12 66 37 66 166 c 2
 66 488 l 1xb8
274 728 m 1
 235 728 l 1
 235 824 l 1
 331 824 l 1
 331 741 l 2
 331 648 304 609 235 602 c 1
 235 627 l 1
 262 631 274 653 274 702 c 2
 274 728 l 1
EndSplineSet
EndChar
StartChar: uring
Encoding: 312 367 110
Width: 500
Flags: W
HStem: -12 63<197.5 207.5> 0 20 510 20<6 162 162 162 271 426 426 426> 626 33<218 261.5 218 270.5> 815 33<218.5 262>
VStem: 6 33 65 97<172 404 404 404> 195 33 330 96<0 530 87 530 126 404 404 404>
LayerCount: 2
Fore
SplineSet
330 0 m 1
 330 87 l 1
 281 17 237 -12 178 -12 c 0
 97 -12 65 36 65 157 c 2
 65 404 l 1
 64 451 l 2
 63 490 58 495 15 499 c 2
 6 500 l 1
 6 530 l 1
 162 530 l 1
 162 172 l 1
 163 134 l 2
 165 75 180 51 215 51 c 0xa280
 254 51 289 72 330 120 c 1
 330 404 l 1
 329 451 l 2
 328 490 323 495 280 499 c 2
 271 500 l 1
 271 530 l 1
 426 530 l 1
 426 126 l 1
 427 78 l 2
 428 39 433 34 476 31 c 2
 485 30 l 1
 485 0 l 1x6280
 330 0 l 1
240 848 m 0
 302 848 351 799 351 737 c 0
 351 675 302 626 239 626 c 0
 178 626 129 675 129 737 c 0x1d
 129 799 178 848 240 848 c 0
240 815 m 0
 197 815 162 780 162 737 c 0
 162 694 197 659 239 659 c 0
 284 659 318 693 318 737 c 0
 318 781 284 815 240 815 c 0
EndSplineSet
EndChar
StartChar: Uogonek
Encoding: 293 370 65
Width: 722
Flags: W
HStem: -181 40<433.5 445> -18 33<341.5 421 341.5 421> 0 20 693 30<9 293 9 293>
VStem: 99 104<271 287 287 596> 324 66<-106.5 -82.5> 569 51<266 294 294 597>
LayerCount: 2
Fore
SplineSet
293 723 m 1xde
 293 693 l 1
 284 692 l 1
 251 690 l 2
 214 687 209 682 206 645 c 2
 203 596 l 1
 203 287 l 2
 203 170 206 137 219 108 c 0
 247 47 303 15 380 15 c 0
 462 15 528 54 554 117 c 0
 565 144 569 185 569 266 c 2
 569 597 l 2
 569 628 565 663 560 673 c 0
 555 683 542 689 521 690 c 2
 488 692 l 1
 479 693 l 1
 479 723 l 1
 710 723 l 1
 710 693 l 1
 701 692 l 1
 668 690 l 2
 643 689 630 681 626 667 c 0
 623 652 620 622 620 597 c 2
 620 294 l 2
 620 190 613 142 592 101 c 0
 551 21 476 -18 366 -18 c 0
 188 -18 99 79 99 271 c 2
 99 597 l 2
 99 628 95 664 91 673 c 0
 86 683 72 689 51 690 c 2
 18 692 l 1
 9 693 l 1
 9 723 l 1
 293 723 l 1xde
505 -133 m 1
 505 -167 l 1
 480 -177 458 -181 432 -181 c 0
 361 -181 324 -154 324 -103 c 0
 324 -62 347 -31 402 0 c 1
 454 0 l 1xae
 409 -27 390 -54 390 -89 c 0
 390 -124 412 -141 455 -141 c 0
 472 -141 487 -139 505 -133 c 1
EndSplineSet
EndChar
StartChar: uogonek
Encoding: 327 371 127
Width: 500
Flags: W
HStem: -181 40<390.5 401.5> -12 63<197.5 207.5> 0 20 510 20<6 162 162 162 271 426 426 426>
VStem: 6 66 65 97<172 404 404 404> 330 96<0 530 87 530 126 404 404 404>
LayerCount: 2
Fore
SplineSet
330 0 m 1
 330 87 l 1
 281 17 237 -12 178 -12 c 0
 97 -12 65 36 65 157 c 2
 65 404 l 1
 64 451 l 2
 63 490 58 495 15 499 c 2
 6 500 l 1
 6 530 l 1
 162 530 l 1
 162 172 l 1
 163 134 l 2
 165 75 180 51 215 51 c 0x56
 254 51 289 72 330 120 c 1
 330 404 l 1
 329 451 l 2
 328 490 323 495 280 499 c 2
 271 500 l 1
 271 530 l 1
 426 530 l 1
 426 126 l 1
 427 78 l 2
 428 39 433 34 476 31 c 2
 485 30 l 1
 485 0 l 1x36
 330 0 l 1
461 -133 m 1
 461 -167 l 1
 437 -177 415 -181 388 -181 c 0
 318 -181 281 -154 281 -103 c 0
 281 -62 304 -30 358 0 c 1
 410 0 l 1
 366 -28 347 -54 347 -89 c 0
 347 -124 369 -141 412 -141 c 0xa8
 429 -141 444 -139 461 -133 c 1
EndSplineSet
EndChar
StartChar: Zdotaccent
Encoding: 280 379 51
Width: 611
Flags: MW
HStem: 0 45<162 380 162 551> 684 39<213 433 213 213> 783 96<250 346 250 346>
VStem: 250 96<783 879 783 879>
LayerCount: 2
Fore
SplineSet
45 0 m 1
 45 39 l 1
 433 684 l 1
 213 684 l 1
 160 682 l 2
 124 681 119 677 119 646 c 2
 117 591 l 1
 116 578 l 1
 62 578 l 1
 62 723 l 1
 548 723 l 1
 548 690 l 1
 162 45 l 1
 380 45 l 1
 461 48 l 2
 483 48 493 58 494 80 c 2
 496 129 l 1
 496 138 l 1
 551 138 l 1
 551 0 l 1
 45 0 l 1
250 783 m 1
 250 879 l 1
 346 879 l 1
 346 783 l 1
 250 783 l 1
EndSplineSet
EndChar
StartChar: zdotaccent
Encoding: 316 380 115
Width: 444
Flags: MW
HStem: 0 36<144 262 144 413> 497 33<146 193 146 146 193 288> 627 96<173 269 173 269>
VStem: 30 96
LayerCount: 2
Fore
SplineSet
30 0 m 1
 30 30 l 1
 288 497 l 1
 193 497 l 1
 146 497 l 2
 97 495 96 494 96 432 c 2
 96 424 l 1
 95 414 l 1
 44 414 l 1
 44 530 l 1
 400 530 l 1
 400 500 l 1
 144 36 l 1
 262 36 l 1
 321 38 l 2
 349 40 361 50 361 74 c 2
 361 110 l 1
 362 122 l 1
 413 122 l 1
 413 0 l 1xc0
 30 0 l 1
173 627 m 1
 173 723 l 1
 269 723 l 1
 269 627 l 1x30
 173 627 l 1
EndSplineSet
EndChar
StartChar: zcaron
Encoding: 315 382 114
Width: 444
Flags: MW
HStem: 0 36<144 262 144 413> 497 33<146 193 146 146 193 288>
LayerCount: 2
Fore
SplineSet
30 0 m 1
 30 30 l 1
 288 497 l 1
 193 497 l 1
 146 497 l 2
 97 495 96 494 96 432 c 2
 96 424 l 1
 95 414 l 1
 44 414 l 1
 44 530 l 1
 400 530 l 1
 400 500 l 1
 144 36 l 1
 262 36 l 1
 321 38 l 2
 349 40 361 50 361 74 c 2
 361 110 l 1
 362 122 l 1
 413 122 l 1
 413 0 l 1xc0
 30 0 l 1
394 783 m 1
 277 626 l 1
 169 626 l 1
 51 783 l 1
 93 783 l 1
 223 674 l 1
 352 783 l 1
 394 783 l 1
EndSplineSet
EndChar
StartChar: florin
Encoding: 131 402 216
Width: 500
Flags: MW
HStem: 362 30<8 107 8 113 210 332> 705 30<321 373>
LayerCount: 2
Fore
SplineSet
6 -145 m 1
 107 362 l 1
 8 362 l 1
 8 392 l 1
 113 392 l 1
 125 451 l 2
 160 629 254 735 378 735 c 0
 404 735 431 730 464 721 c 1
 464 609 l 1
 416 609 l 1
 415 624 415 636 414 645 c 0
 413 685 392 705 354 705 c 0
 288 705 262 660 227 478 c 2
 210 392 l 1
 332 392 l 1
 332 362 l 1
 203 362 l 1
 103 -145 l 1
 6 -145 l 1
EndSplineSet
EndChar
StartChar: Scommaaccent
Encoding: 332 536 132
Width: 556
Flags: MW
HStem: -211 36<267 282.5 258 312> -18 36<224 313 218.5 337> 708 33<247.5 311 218.5 333.5>
VStem: 63 99<551 608> 317 66<-148.5 -121> 408 103<129 194>
LayerCount: 2
Fore
SplineSet
58 15 m 1
 58 154 l 1
 109 154 l 1
 110 145 l 2
 111 127 111 118 111 112 c 2
 111 108 l 2
 111 54 172 18 265 18 c 0
 361 18 408 63 408 156 c 0
 408 232 387 261 294 311 c 2
 230 345 l 2
 117 406 63 473 63 552 c 0
 63 664 153 741 284 741 c 0
 338 741 395 732 470 710 c 1
 470 582 l 1
 416 582 l 1
 415 590 l 2
 414 609 413 620 413 626 c 2
 413 629 l 2
 413 684 376 708 291 708 c 0
 204 708 162 668 162 584 c 0
 162 518 185 486 266 443 c 2
 330 408 l 2
 468 334 511 283 511 192 c 0
 511 66 412 -18 262 -18 c 0
 186 -18 120 -7 58 15 c 1
216 -206 m 1
 216 -170 l 1
 230 -173 250 -175 266 -175 c 0
 299 -175 317 -161 317 -136 c 0
 317 -106 294 -91 240 -85 c 1
 240 -54 l 1
 340 -56 383 -81 383 -137 c 0
 383 -186 347 -211 277 -211 c 0
 257 -211 238 -209 216 -206 c 1
EndSplineSet
EndChar
StartChar: scommaaccent
Encoding: 310 537 104
Width: 389
Flags: MW
HStem: -211 36<172.5 188 164 217> -12 33<168.5 209.5 155.5 244.5> 509 33<185 221.5 150 229>
VStem: 49 90<411 447> 147 66 262 96<94 139>
LayerCount: 2
Fore
SplineSet
46 27 m 1
 46 150 l 1
 94 150 l 1
 95 141 l 1
 96 106 l 2
 99 50 128 21 183 21 c 0
 236 21 262 51 262 113 c 0
 262 165 251 181 190 223 c 2
 162 242 l 2
 71 303 49 333 49 400 c 0
 49 494 100 542 200 542 c 0
 243 542 279 533 320 512 c 1
 320 397 l 1
 272 397 l 1
 272 406 l 2
 272 476 251 509 207 509 c 0
 163 509 139 481 139 430 c 0
 139 392 155 361 184 342 c 2
 226 315 l 1
 254 296 l 2
 339 238 358 210 358 143 c 0
 358 45 297 -12 192 -12 c 0x74
 145 -12 102 0 46 27 c 1
121 -206 m 1
 121 -170 l 1
 136 -173 156 -175 172 -175 c 0
 204 -175 222 -161 222 -136 c 0
 222 -106 199 -90 145 -85 c 1
 145 -54 l 1
 245 -56 288 -81 288 -137 c 0
 288 -186 252 -211 182 -211 c 0x88
 163 -211 144 -209 121 -206 c 1
EndSplineSet
EndChar
StartChar: circumflex
Encoding: 136 710 286
Width: 333
Flags: W
LayerCount: 2
Fore
SplineSet
-5 626 m 1
 113 783 l 1
 221 783 l 1
 338 626 l 1
 296 626 l 1
 167 735 l 1
 37 626 l 1
 -5 626 l 1
EndSplineSet
EndChar
StartChar: caron
Encoding: 345 711 287
Width: 333
Flags: W
LayerCount: 2
Fore
SplineSet
338 783 m 1
 221 626 l 1
 113 626 l 1
 -5 783 l 1
 37 783 l 1
 167 674 l 1
 296 783 l 1
 338 783 l 1
EndSplineSet
EndChar
StartChar: breve
Encoding: 346 728 288
Width: 333
Flags: MW
HStem: 626 69<130.5 203 130.5 211>
LayerCount: 2
Fore
SplineSet
4 783 m 1
 36 783 l 1
 54 722 94 695 167 695 c 0
 239 695 279 722 298 783 c 1
 329 783 l 1
 315 685 255 626 167 626 c 0x80
 79 626 19 684 4 783 c 1
EndSplineSet
EndChar
StartChar: ring
Encoding: 344 730 283
Width: 333
Flags: MW
HStem: 626 33<145 188.5 145 197.5> 815 33<145.5 189>
VStem: 56 33<715.5 758.5 715.5 768> 245 33<715 759>
LayerCount: 2
Fore
SplineSet
167 848 m 0
 229 848 278 799 278 737 c 0
 278 675 229 626 166 626 c 0
 105 626 56 675 56 737 c 0xf0
 56 799 105 848 167 848 c 0
167 815 m 0
 124 815 89 780 89 737 c 0
 89 694 124 659 166 659 c 0
 211 659 245 693 245 737 c 0
 245 781 211 815 167 815 c 0
EndSplineSet
EndChar
StartChar: ogonek
Encoding: 348 731 292
Width: 333
Flags: MW
HStem: -181 40<185.5 196.5> 0 20
VStem: 76 66<-106.5 -82.5>
LayerCount: 2
Fore
SplineSet
256 -133 m 1
 256 -167 l 1
 232 -177 210 -181 183 -181 c 0
 113 -181 76 -154 76 -103 c 0
 76 -62 99 -30 153 0 c 1
 205 0 l 1
 161 -28 142 -54 142 -89 c 0
 142 -124 164 -141 207 -141 c 0xe0
 224 -141 239 -139 256 -133 c 1
EndSplineSet
EndChar
StartChar: tilde
Encoding: 152 732 289
Width: 333
Flags: W
HStem: 627 66<232.5 248.5> 676 66<84.5 99.5>
LayerCount: 2
Fore
SplineSet
34 627 m 1
 4 627 l 1
 19 706 54 742 115 742 c 0x40
 135 742 155 736 172 723 c 2
 190 711 l 2
 205 700 224 693 241 693 c 0
 273 693 291 708 299 741 c 1
 329 741 l 1
 313 662 279 627 218 627 c 0x80
 198 627 178 633 161 645 c 2
 144 657 l 2
 125 670 108 676 91 676 c 0x40
 62 676 44 661 34 627 c 1
EndSplineSet
EndChar
StartChar: hungarumlaut
Encoding: 347 733 290
Width: 333
Flags: W
LayerCount: 2
Fore
SplineSet
-2 626 m 1
 102 783 l 1
 185 783 l 1
 28 626 l 1
 -2 626 l 1
149 626 m 1
 253 783 l 1
 335 783 l 1
 179 626 l 1
 149 626 l 1
EndSplineSet
EndChar
StartChar: endash
Encoding: 150 8211 243
Width: 500
Flags: MW
HStem: 265 60<42 458 42 458>
LayerCount: 2
Fore
SplineSet
42 265 m 1
 42 325 l 1
 458 325 l 1
 458 265 l 1
 42 265 l 1
EndSplineSet
EndChar
StartChar: emdash
Encoding: 151 8212 244
Width: 1000
Flags: MW
HStem: 265 48<48 952 48 952>
LayerCount: 2
Fore
SplineSet
48 265 m 1
 48 313 l 1
 952 313 l 1
 952 265 l 1
 48 265 l 1
EndSplineSet
EndChar
StartChar: quoteleft
Encoding: 145 8216 228
Width: 333
Flags: MW
VStem: 100 121<494 598 598 614 494 633.5>
LayerCount: 2
Fore
SplineSet
173 614 m 1
 221 614 l 1
 221 494 l 1
 100 494 l 1
 100 598 l 2
 100 669 104 690 123 715 c 0
 149 750 179 767 221 771 c 1
 221 741 l 1
 187 736 173 707 173 646 c 2
 173 614 l 1
EndSplineSet
EndChar
StartChar: quoteright
Encoding: 146 8217 268
Width: 333
Flags: MW
VStem: 112 121<494 666 524 666 650 666 666 771 631.5 771>
LayerCount: 2
Fore
SplineSet
160 650 m 1
 112 650 l 1
 112 771 l 1
 233 771 l 1
 233 666 l 2
 233 597 229 576 210 550 c 0
 185 515 154 498 112 494 c 1
 112 524 l 1
 146 529 160 558 160 619 c 2
 160 650 l 1
EndSplineSet
EndChar
StartChar: quotesinglbase
Encoding: 130 8218 267
Width: 333
Flags: MW
HStem: 0 20
VStem: 112 121<-156 16 -126 16 0 16 16 121 -18.5 121>
LayerCount: 2
Fore
SplineSet
160 0 m 1
 112 0 l 1
 112 121 l 1
 233 121 l 1
 233 16 l 2
 233 -53 229 -74 210 -100 c 0
 184 -135 153 -153 112 -156 c 1
 112 -126 l 1
 146 -121 160 -93 160 -31 c 2
 160 0 l 1
EndSplineSet
EndChar
StartChar: quotedblleft
Encoding: 147 8220 230
Width: 444
Flags: MW
VStem: 60 121<494 598 598 614 494 633.5> 252 121<494 598 598 614 494 633.5>
LayerCount: 2
Fore
SplineSet
133 614 m 1
 181 614 l 1
 181 494 l 1
 60 494 l 1
 60 598 l 2
 60 669 64 690 83 715 c 0
 109 750 139 767 181 771 c 1
 181 741 l 1
 147 736 133 707 133 646 c 2
 133 614 l 1
325 614 m 1
 373 614 l 1
 373 494 l 1
 252 494 l 1
 252 598 l 2
 252 669 256 689 275 714 c 0
 301 750 331 767 373 771 c 1
 373 741 l 1
 339 736 325 707 325 646 c 2
 325 614 l 1
EndSplineSet
EndChar
StartChar: quotedblright
Encoding: 148 8221 229
Width: 444
Flags: MW
VStem: 71 121<494 666 524 666 650 666 666 771 631.5 771> 263 121<494 666 524 666 650 666 666 771 631.5 771>
LayerCount: 2
Fore
SplineSet
311 650 m 1
 263 650 l 1
 263 771 l 1
 384 771 l 1
 384 666 l 2
 384 597 380 576 361 550 c 0
 335 515 304 497 263 494 c 1
 263 524 l 1
 296 529 311 558 311 619 c 2
 311 650 l 1
119 650 m 1
 71 650 l 1
 71 771 l 1
 192 771 l 1
 192 666 l 2
 192 597 188 576 169 550 c 0
 144 515 113 498 71 494 c 1
 71 524 l 1
 105 529 119 558 119 619 c 2
 119 650 l 1
EndSplineSet
EndChar
StartChar: quotedblbase
Encoding: 132 8222 231
Width: 444
Flags: MW
HStem: 0 20
VStem: 71 121<-156 16 -126 16 0 16 16 121 -18.5 121> 263 121<-156 16 -126 16 0 16 16 121 -19 121>
LayerCount: 2
Fore
SplineSet
311 0 m 1
 263 0 l 1
 263 121 l 1
 384 121 l 1
 384 16 l 2
 384 -54 380 -74 361 -100 c 0
 334 -135 304 -153 263 -156 c 1
 263 -126 l 1
 296 -121 311 -93 311 -31 c 2
 311 0 l 1
119 0 m 1
 71 0 l 1
 71 121 l 1
 192 121 l 1
 192 16 l 2
 192 -53 188 -74 169 -100 c 0
 143 -135 112 -153 71 -156 c 1
 71 -126 l 1
 105 -121 119 -93 119 -31 c 2
 119 0 l 1
EndSplineSet
EndChar
StartChar: dagger
Encoding: 134 8224 251
Width: 500
Flags: MW
HStem: 703 20<202 298 298 298>
LayerCount: 2
Fore
SplineSet
202 -145 m 1
 226 419 l 1
 39 397 l 1
 39 470 l 1
 226 449 l 1
 202 723 l 1
 298 723 l 1
 274 449 l 1
 461 470 l 1
 461 397 l 1
 274 419 l 1
 298 -145 l 1
 202 -145 l 1
EndSplineSet
EndChar
StartChar: ellipsis
Encoding: 133 8230 225
Width: 1000
Flags: MW
HStem: 0 96<119 215 119 215 452 548 785 882>
VStem: 119 96<0 96 0 96> 452 96<0 96 0 96> 785 97<0 96 0 96>
LayerCount: 2
Fore
SplineSet
119 0 m 1
 119 96 l 1
 215 96 l 1
 215 0 l 1
 119 0 l 1
452 0 m 1
 452 96 l 1
 548 96 l 1
 548 0 l 1
 452 0 l 1
785 0 m 1
 785 96 l 1
 882 96 l 1
 882 0 l 1
 785 0 l 1
EndSplineSet
EndChar
StartChar: perthousand
Encoding: 137 8240 279
Width: 1000
Flags: W
HStem: -18 20 0 30<447 501 447 519 803 857> 331 30<447.5 502 803.5 857.5> 362 30<143 196.5 143 215> 693 30<143.5 198> 721 20<568 610 610 610>
VStem: 17 72<492.5 593 492.5 595.5> 252 72<493.5 593> 321 72<130.5 231 130.5 233.5> 556 72<131.5 231> 677 72<130.5 231 130.5 233.5> 912 72<132.5 232>
LayerCount: 2
Fore
SplineSet
171 723 m 0x7b
 261 723 324 649 324 543 c 0
 324 435 261 362 169 362 c 0
 80 362 17 437 17 542 c 0
 17 649 80 723 171 723 c 0x7b
171 693 m 0
 116 693 89 643 89 543 c 0
 89 442 116 392 170 392 c 0
 223 392 252 444 252 543 c 0
 252 643 225 693 171 693 c 0
475 361 m 0
 565 361 628 287 628 181 c 0
 628 73 565 0 473 0 c 0
 384 0 321 75 321 180 c 0x78f0
 321 287 384 361 475 361 c 0
475 331 m 0
 420 331 393 281 393 181 c 0
 393 80 420 30 474 30 c 0
 528 30 556 82 556 181 c 0
 556 281 529 331 475 331 c 0
831 361 m 0
 921 361 984 287 984 181 c 0
 984 73 921 0 829 0 c 0
 740 0 677 75 677 180 c 0
 677 287 740 361 831 361 c 0
831 331 m 0
 776 331 749 281 749 181 c 0
 749 80 776 30 830 30 c 0
 884 30 912 82 912 183 c 0
 912 281 884 331 831 331 c 0
36 -18 m 1x84f0
 568 741 l 1
 610 741 l 1
 79 -18 l 1
 36 -18 l 1x84f0
EndSplineSet
EndChar
StartChar: guilsinglleft
Encoding: 139 8249 239
Width: 333
Flags: W
LayerCount: 2
Fore
SplineSet
273 457 m 1
 139 265 l 1
 273 74 l 1
 249 54 l 1
 42 265 l 1
 249 476 l 1
 273 457 l 1
EndSplineSet
EndChar
StartChar: guilsinglright
Encoding: 155 8250 238
Width: 333
Flags: W
LayerCount: 2
Fore
SplineSet
60 73 m 1
 193 265 l 1
 60 456 l 1
 84 476 l 1
 291 265 l 1
 84 54 l 1
 60 73 l 1
EndSplineSet
EndChar
StartChar: fraction
Encoding: 342 8260 277
Width: 167
Flags: MW
HStem: -18 20 721 20<328 371 371 371>
LayerCount: 2
Fore
SplineSet
-203 -18 m 1
 328 741 l 1
 371 741 l 1
 -161 -18 l 1
 -203 -18 l 1
EndSplineSet
EndChar
StartChar: Euro
Encoding: 128 8364 217
Width: 500
Flags: MW
HStem: -18 48<300 356> 283 30<0 59 12 59 12 63 158 158 158 349> 416 30<12 60 0 63 158 404> 708 33<282.5 352.5 279.5 361.5>
VStem: 58 96<354 363.5>
LayerCount: 2
Fore
SplineSet
0 283 m 1
 12 313 l 1
 59 313 l 1
 58 338 58 350 58 358 c 0
 58 369 59 393 60 416 c 1
 0 416 l 1
 12 446 l 1
 63 446 l 1
 77 534 91 578 118 625 c 0
 164 703 233 741 326 741 c 0
 379 741 422 730 472 705 c 1
 472 578 l 1
 424 578 l 1
 423 605 l 2
 422 675 392 708 331 708 c 0
 234 708 175 619 158 446 c 1
 417 446 l 1
 404 416 l 1
 156 416 l 1
 155 394 154 373 154 358 c 0
 154 349 155 327 156 313 c 1
 362 313 l 1
 349 283 l 1
 158 283 l 1
 184 116 249 30 351 30 c 0
 390 30 426 41 467 67 c 1
 467 22 l 1
 426 -6 383 -18 329 -18 c 0
 184 -18 92 87 63 283 c 1
 0 283 l 1
EndSplineSet
EndChar
StartChar: trademark
Encoding: 153 8482 264
Width: 980
Flags: MW
HStem: 693 30<110 200 110 110 266 266 266 357 436 502 851 851 851 911>
VStem: 200 66<385 693 385 693> 502 48<385 690 355 693 355 693> 785 66<385 690 690 690>
LayerCount: 2
Fore
SplineSet
200 693 m 1
 110 693 l 1
 110 626 l 1
 68 626 l 1
 68 723 l 1
 400 723 l 1
 400 626 l 1
 357 626 l 1
 357 693 l 1
 266 693 l 1
 266 385 l 1
 327 385 l 1
 327 355 l 1
 140 355 l 1
 140 385 l 1
 200 385 l 1
 200 693 l 1
663 388 m 1
 550 690 l 1
 550 355 l 1
 442 355 l 1
 442 385 l 1
 502 385 l 1
 502 693 l 1
 436 693 l 1
 436 723 l 1
 610 723 l 1
 690 507 l 1
 765 723 l 1
 911 723 l 1
 911 693 l 1
 851 693 l 1
 851 385 l 1
 911 385 l 1
 911 355 l 1
 785 355 l 1
 785 690 l 1
 681 388 l 1
 663 388 l 1
EndSplineSet
EndChar
StartChar: minus
Encoding: 341 8722 260
Width: 795
Flags: MW
HStem: 265 48<108 686 108 686>
LayerCount: 2
Fore
SplineSet
108 265 m 1
 108 313 l 1
 686 313 l 1
 686 265 l 1
 108 265 l 1
EndSplineSet
EndChar
StartChar: fi
Encoding: 336 64257 197
Width: 556
Flags: W
HStem: 0 30<27 27 27 265> 488 42<18 86 18 86> 490 40<182 371> 627 96<384 468 384 468> 752 31<217 243>
VStem: 86 96<127 488 488 488 530 555 555 614 614 637.5> 371 97<127 490 490 490> 384 84<627 723>
LayerCount: 2
Fore
SplineSet
384 627 m 1xb5
 384 723 l 1
 468 723 l 1
 468 627 l 1
 384 627 l 1xb5
27 0 m 1
 27 30 l 1
 36 31 l 2
 79 34 84 39 85 78 c 2
 86 127 l 1
 86 488 l 1
 18 488 l 1
 18 530 l 1
 86 530 l 1
 86 555 l 2
 86 720 126 783 230 783 c 0
 269 783 299 773 335 747 c 1
 335 638 l 1
 281 638 l 1
 280 654 280 661 279 665 c 2
 279 671 l 1
 279 675 l 1
 279 675 279 676 280 677 c 0
 282 680 276 718 272 727 c 0
 264 744 252 752 234 752 c 0
 200 752 183 723 182 662 c 2
 182 614 l 1
 182 530 l 1
 468 530 l 1xce
 468 127 l 1
 469 78 l 2
 469 52 472 41 480 38 c 0
 486 35 504 32 530 31 c 2
 539 30 l 1
 539 0 l 1
 300 0 l 1
 300 30 l 1
 330 31 l 2
 357 31 370 46 370 78 c 2
 371 127 l 1
 371 490 l 1xb6
 182 490 l 1
 182 127 l 1
 183 78 l 2
 184 38 192 31 244 31 c 2
 265 30 l 1
 265 0 l 1
 27 0 l 1
EndSplineSet
EndChar
StartChar: fl
Encoding: 337 64258 198
Width: 556
Flags: W
HStem: 0 30<27 27 27 265> 488 42<18 86 18 86> 490 40<182 266> 752 31<218.5 236.5 201.5 256.5>
VStem: 86 96<127 488 488 488 530 555 555 599> 371 97<127 702 702 702>
LayerCount: 2
Fore
SplineSet
27 0 m 1xac
 27 30 l 1
 36 31 l 2
 79 34 84 39 85 78 c 2
 86 127 l 1
 86 488 l 1
 18 488 l 1
 18 530 l 1
 86 530 l 1
 86 555 l 2
 86 643 91 680 106 709 c 0
 130 756 175 783 228 783 c 0
 245 783 268 780 308 771 c 1
 468 771 l 1
 468 127 l 1
 469 78 l 2
 469 52 472 41 480 38 c 0
 486 35 504 32 530 31 c 2
 539 30 l 1
 539 0 l 1
 300 0 l 1
 300 30 l 1
 330 31 l 2
 357 31 370 46 370 78 c 2
 371 127 l 1
 371 702 l 1
 319 736 276 752 237 752 c 0
 200 752 183 724 182 662 c 2
 182 614 l 1
 182 530 l 1
 266 530 l 1xdc
 266 490 l 1
 182 490 l 1
 182 127 l 1
 183 78 l 2
 184 38 192 31 244 31 c 2
 265 30 l 1
 265 0 l 1
 27 0 l 1xac
EndSplineSet
EndChar
StartChar: commaaccent
Encoding: 350 -1 294
Width: 333
Flags: MW
HStem: -211 36<134.5 150 126 179>
VStem: 184 66<-148.5 -121>
LayerCount: 2
Fore
SplineSet
83 -206 m 1
 83 -170 l 1
 98 -173 118 -175 134 -175 c 0
 166 -175 184 -161 184 -136 c 0
 184 -106 161 -90 107 -85 c 1
 107 -54 l 1
 207 -56 250 -81 250 -137 c 0
 250 -186 214 -211 144 -211 c 0xc0
 125 -211 106 -209 83 -206 c 1
EndSplineSet
EndChar
